<svg width="193" height="32" viewBox="0 0 193 32" fill="none" xmlns="http://www.w3.org/2000/svg">
<path d="M51.667 24.7999V5.33325H55.9337V24.7999H51.667ZM55.4003 8.95992V5.33325H63.7203V8.95992H55.4003ZM55.4003 16.7189V13.0922H63.2937V16.7189H55.4003ZM55.4003 24.7999V21.1733H63.9059V24.7999H55.4003Z" fill="#98A2B3"/>
<path d="M65.0771 24.8001L69.6105 16.9601L69.5038 17.6257L65.2371 10.1868H69.8515L72.4905 15.1468H72.9171L75.3982 10.1868H79.7438L75.667 17.679L75.7737 17.1201L80.5737 24.8001H75.9315L72.7849 19.4924H72.3582L69.3971 24.8001H65.0771Z" fill="#98A2B3"/>
<path d="M80.2148 13.3056V10.1867H90.6682V13.3056H80.2148ZM88.6138 24.9856C87.1375 24.9856 85.9464 24.8035 85.0404 24.4395C84.1659 24.1058 83.4542 23.4468 83.0543 22.6005C82.6362 21.7387 82.4271 20.5696 82.4271 19.0933V6.23999H86.4015V19.2533C86.4015 19.9474 86.5836 20.4764 86.9476 20.8405C87.3117 21.2046 87.8316 21.3867 88.5071 21.3867H90.6682V24.9856H88.6138Z" fill="#98A2B3"/>
<path d="M92.8955 24.8001V10.1868H96.2832V16.4524H96.2022C96.2022 14.3916 96.6424 12.8008 97.5227 11.6801C98.4031 10.5594 99.6788 9.99902 101.35 9.99902H101.907V13.679H100.84C99.6667 13.679 98.76 13.9948 98.12 14.6262C97.48 15.2577 97.16 16.1686 97.16 17.359V24.8001H92.8955Z" fill="#98A2B3"/>
<path d="M107.551 25.1733C106.602 25.1933 105.659 25.0016 104.793 24.6122C104.032 24.2656 103.388 23.7053 102.939 22.9994C102.479 22.2411 102.247 21.3665 102.271 20.48C102.271 19.4133 102.547 18.5379 103.099 17.8538C103.707 17.1309 104.513 16.6021 105.418 16.3328C106.531 15.9869 107.693 15.8206 108.859 15.84H111.978V18.2122H108.831C108.085 18.2122 107.513 18.3957 107.112 18.7605C106.911 18.9489 106.753 19.1787 106.65 19.4339C106.546 19.6891 106.499 19.9638 106.512 20.2389C106.503 20.506 106.552 20.772 106.655 21.0184C106.759 21.2648 106.914 21.4858 107.112 21.6661C107.513 22.0309 108.085 22.2122 108.831 22.2122C109.276 22.2195 109.717 22.1338 110.126 21.9605C110.527 21.7787 110.861 21.4748 111.08 21.0922C111.361 20.5673 111.507 19.981 111.506 19.3856L112.52 20.4522C112.466 21.3488 112.216 22.2226 111.788 23.0122C111.401 23.6924 110.827 24.2476 110.135 24.6122C109.333 25.009 108.445 25.2017 107.551 25.1733ZM112.219 24.8V20.48H111.506V15.7866C111.506 15.04 111.329 14.4796 110.973 14.1056C110.618 13.7315 110.049 13.5452 109.266 13.5466C108.877 13.5466 108.361 13.5552 107.72 13.5722C107.08 13.5914 106.423 13.617 105.746 13.6533C105.07 13.6896 104.466 13.7237 103.907 13.76V10.1589C104.317 10.1248 104.797 10.0892 105.347 10.0522C105.898 10.0181 106.467 9.99036 107.054 9.97329C107.641 9.95622 108.191 9.94556 108.707 9.94556C110.201 9.94556 111.459 10.1589 112.481 10.5856C113.445 10.9649 114.262 11.643 114.813 12.5205C115.346 13.3824 115.613 14.4888 115.613 15.84V24.8H112.219Z" fill="#98A2B3"/>
<path d="M118.822 24.9323V5.17334H123.089V24.9323H118.822ZM122.556 15.9467V13.3333H126.396C127.232 13.3333 127.836 13.12 128.209 12.6933C128.6 12.2133 128.799 11.6052 128.768 10.9867C128.768 10.24 128.582 9.65334 128.209 9.22667C127.836 8.80001 127.232 8.58667 126.396 8.58667H122.556V5.17334H126.129C128.369 5.17334 130.089 5.6441 131.289 6.58561C132.49 7.52712 133.089 8.8697 133.088 10.6133V11.0123C133.088 12.2226 132.781 13.1918 132.168 13.92C131.515 14.6746 130.652 15.2175 129.689 15.4795C128.532 15.8068 127.332 15.9642 126.129 15.9467H122.556ZM122.556 24.9323V21.5189H127.115C127.934 21.5189 128.546 21.3056 128.956 20.8789C129.365 20.4523 129.568 19.8485 129.568 19.0656C129.568 18.2827 129.365 17.6853 128.956 17.2672C128.546 16.8491 127.934 16.64 127.115 16.64H122.556V13.9989H126.901C128.117 13.9817 129.328 14.1485 130.494 14.4939C131.458 14.7676 132.32 15.3188 132.973 16.0789C133.579 16.8085 133.881 17.7956 133.879 19.04V19.4133C133.909 20.4615 133.631 21.4953 133.079 22.3872C132.51 23.2436 131.69 23.9042 130.733 24.2795C129.703 24.7147 128.423 24.9323 126.893 24.9323H122.556Z" fill="#98A2B3"/>
<path d="M136.384 24.8001V10.1868H139.772V16.4524H139.69C139.69 14.3916 140.131 12.8008 141.011 11.6801C141.891 10.5594 143.167 9.99902 144.838 9.99902H145.397V13.679H144.33C143.157 13.679 142.25 13.9948 141.61 14.6262C140.97 15.2577 140.65 16.1686 140.65 17.359V24.8001H136.384Z" fill="#98A2B3"/>
<path d="M153.574 25.3056C152.443 25.3283 151.32 25.1101 150.28 24.6656C149.373 24.2725 148.563 23.6856 147.908 22.9461C147.281 22.2345 146.792 21.4118 146.468 20.5205C146.14 19.6371 145.972 18.7023 145.973 17.76V17.2267C145.969 16.2668 146.137 15.3139 146.468 14.4128C146.788 13.5268 147.272 12.7085 147.893 12C148.539 11.2727 149.335 10.6948 150.227 10.3061C151.232 9.87336 152.319 9.65955 153.414 9.67894C154.978 9.67894 156.298 10.0302 157.373 10.7328C158.427 11.4113 159.278 12.3603 159.839 13.4805C160.413 14.6264 160.705 15.8922 160.693 17.1733V18.6133H147.76V16.1856H158.107L156.72 17.3056C156.738 16.5421 156.612 15.7821 156.347 15.0656C156.132 14.4887 155.746 13.9915 155.24 13.6405C154.695 13.2953 154.058 13.1228 153.414 13.1456C152.746 13.1246 152.087 13.3013 151.519 13.6533C150.985 14.0141 150.575 14.5312 150.346 15.1339C150.06 15.8956 149.924 16.7056 149.947 17.5189C149.931 18.2956 150.057 19.0686 150.32 19.7995C150.541 20.4137 150.952 20.9414 151.494 21.3056C152.104 21.6412 152.787 21.8238 153.484 21.8379C154.18 21.852 154.87 21.6972 155.494 21.3867C155.945 21.1345 156.301 20.741 156.507 20.2667H160.426C160.221 21.2246 159.792 22.1203 159.174 22.88C158.542 23.6504 157.738 24.2619 156.827 24.6656C155.801 25.1092 154.692 25.3275 153.574 25.3056Z" fill="#98A2B3"/>
<path d="M167.029 25.1733C166.078 25.1936 165.135 25.0019 164.268 24.6122C163.508 24.265 162.865 23.7047 162.417 22.9994C161.956 22.2415 161.724 21.3666 161.749 20.48C161.749 19.4133 162.025 18.5379 162.577 17.8538C163.184 17.1304 163.99 16.6015 164.896 16.3328C166.009 15.9868 167.171 15.8204 168.337 15.84H171.453V18.2122H168.309C167.562 18.2122 166.989 18.395 166.589 18.7605C166.388 18.9487 166.23 19.1784 166.127 19.4337C166.023 19.689 165.977 19.9637 165.99 20.2389C165.98 20.5061 166.028 20.7722 166.132 21.0187C166.236 21.2652 166.392 21.4862 166.589 21.6661C166.989 22.0302 167.562 22.2122 168.309 22.2122C168.753 22.2197 169.193 22.134 169.602 21.9605C170 21.7773 170.332 21.4736 170.549 21.0922C170.829 20.567 170.976 19.9808 170.976 19.3856L171.989 20.4522C171.934 21.3489 171.684 22.2228 171.255 23.0122C170.869 23.6933 170.295 24.2488 169.602 24.6122C168.803 25.0079 167.92 25.2006 167.029 25.1733ZM171.697 24.8V20.48H170.976V15.7866C170.976 15.04 170.798 14.4796 170.442 14.1056C170.086 13.7322 169.518 13.5466 168.736 13.5466C168.344 13.5466 167.829 13.5552 167.189 13.5722C166.549 13.5914 165.892 13.617 165.216 13.6533C164.539 13.6896 163.936 13.7237 163.377 13.76V10.1589C163.783 10.1248 164.263 10.0892 164.817 10.0522C165.367 10.0181 165.937 9.99036 166.523 9.97329C167.11 9.95622 167.66 9.94556 168.177 9.94556C169.67 9.94556 170.927 10.1589 171.948 10.5856C172.913 10.9643 173.731 11.6424 174.282 12.5205C174.814 13.3824 175.08 14.4888 175.08 15.84V24.8H171.697Z" fill="#98A2B3"/>
<path d="M184.147 25.2799C183.18 25.2925 182.221 25.1013 181.333 24.7189C180.501 24.3548 179.752 23.824 179.133 23.1594C178.501 22.4786 178.016 21.6756 177.706 20.7999C177.371 19.8585 177.204 18.8657 177.213 17.8666V17.2522C177.205 16.2552 177.363 15.2639 177.68 14.3189C177.973 13.4428 178.435 12.6325 179.039 11.9338C179.631 11.2521 180.363 10.7063 181.185 10.3338C182.067 9.94223 183.022 9.74644 183.987 9.75992C185.05 9.73223 186.101 9.99479 187.027 10.5194C187.901 11.0506 188.597 11.8305 189.025 12.7594C189.506 13.7464 189.773 14.9596 189.825 16.3989L188.705 15.3599V5.33325H193V24.7999H189.612V18.7455H190.199C190.184 19.9787 189.888 21.1922 189.333 22.2933C188.853 23.2232 188.117 23.9961 187.212 24.5205C186.275 25.039 185.217 25.301 184.147 25.2799ZM185.213 21.7066C185.841 21.7134 186.46 21.5623 187.014 21.2671C187.562 20.9668 188.014 20.518 188.319 19.9722C188.663 19.344 188.833 18.6356 188.812 17.9199V16.9322C188.836 16.2396 188.66 15.5548 188.307 14.9589C187.981 14.4373 187.52 14.0135 186.973 13.7322C186.421 13.4473 185.807 13.3009 185.185 13.3055C184.51 13.2958 183.847 13.4866 183.28 13.8538C182.714 14.2242 182.258 14.74 181.96 15.3471C181.628 16.0319 181.463 16.7857 181.48 17.5466C181.46 18.3118 181.625 19.0706 181.96 19.7589C182.257 20.3571 182.72 20.8571 183.293 21.1989C183.875 21.5409 184.539 21.7165 185.213 21.7066Z" fill="#98A2B3"/>
<path d="M15.4385 5.33342H7.89502L17.2283 14.6668H8.33448C7.36093 14.6834 6.39382 14.506 5.48955 14.1449C4.58528 13.7838 3.76196 13.2463 3.06761 12.5637C2.37326 11.8811 1.82178 11.067 1.44533 10.169C1.06888 9.27106 0.875 8.30712 0.875 7.33342C0.875 6.35973 1.06888 5.39578 1.44533 4.4978C1.82178 3.59983 2.37326 2.78579 3.06761 2.10318C3.76196 1.42057 4.58528 0.883054 5.48955 0.521975C6.39382 0.160895 7.36093 -0.0165154 8.33448 9.0183e-05H21.0001V10.895L15.4385 5.33342Z" fill="#98A2B3"/>
<path d="M21.0001 21.1051V32H8.33448C7.36093 32.0166 6.39382 31.8392 5.48955 31.4781C4.58528 31.117 3.76196 30.5795 3.06761 29.8969C2.37326 29.2143 1.82178 28.4003 1.44533 27.5023C1.06888 26.6043 0.875 25.6404 0.875 24.6667C0.875 23.693 1.06888 22.729 1.44533 21.8311C1.82178 20.9331 2.37326 20.119 3.06761 19.4364C3.76196 18.7538 4.58528 18.2163 5.48955 17.8552C6.39382 17.4941 7.36093 17.3167 8.33448 17.3333H17.2283L7.89502 26.6667H15.4385L21.0001 21.1051Z" fill="#98A2B3"/>
<path d="M43.4004 7.3344C43.4018 8.29768 43.2131 9.25177 42.8451 10.142C42.4771 11.0322 41.9371 11.8411 41.2559 12.5222C40.5748 13.2034 39.7659 13.7434 38.8757 14.1114C37.9855 14.4794 37.0314 14.6681 36.0681 14.6667H27.1721L36.5055 5.33333H28.962L23.4004 10.8949V0H36.0681C38.013 0.000565688 39.8779 0.773545 41.2529 2.14895C42.628 3.52436 43.4004 5.38957 43.4004 7.3344Z" fill="#98A2B3"/>
<path d="M43.667 24.6658C43.6673 25.6288 43.4778 26.5825 43.1095 27.4724C42.7411 28.3622 42.2011 29.1707 41.5202 29.8518C40.8393 30.5329 40.0309 31.0732 39.1412 31.4418C38.2514 31.8104 37.2978 32.0002 36.3347 32.0002H23.667V21.1052L29.2286 26.6668H36.7721L27.4387 17.3335H36.3347C38.2792 17.3341 40.1439 18.1067 41.5188 19.4817C42.8937 20.8566 43.6664 22.7213 43.667 24.6658Z" fill="#98A2B3"/>
</svg>
