<svg width="40" height="30" viewBox="0 0 40 30" fill="none" xmlns="http://www.w3.org/2000/svg">
<g clip-path="url(#clip0_694_14490)">
<path d="M13.536 5H6.465L15.215 13.75H6.875C5.05164 13.75 3.30295 13.0257 2.01364 11.7364C0.724328 10.447 0 8.69836 0 6.875C0 5.05164 0.724328 3.30295 2.01364 2.01364C3.30295 0.724328 5.05164 0 6.875 0L18.75 0V10.214L13.536 5Z" fill="#009640"/>
<path d="M18.75 19.7855V30H6.875C5.97216 30 5.07816 29.8222 4.24405 29.4767C3.40994 29.1312 2.65204 28.6248 2.01364 27.9864C1.37524 27.348 0.868829 26.5901 0.523328 25.7559C0.177827 24.9218 0 24.0278 0 23.125C0 22.2222 0.177827 21.3282 0.523328 20.4941C0.868829 19.6599 1.37524 18.902 2.01364 18.2636C2.65204 17.6252 3.40994 17.1188 4.24405 16.7733C5.07816 16.4278 5.97216 16.25 6.875 16.25H15.2145L6.4645 25H13.5355L18.75 19.7855Z" fill="#009640"/>
<path d="M40 6.875C40.0009 7.77808 39.8236 8.67246 39.4784 9.50696C39.1332 10.3415 38.6268 11.0997 37.9883 11.7383C37.3497 12.3768 36.5915 12.8832 35.757 13.2284C34.9225 13.5736 34.0281 13.7509 33.125 13.75H24.7855L33.5355 5H26.4645L21.25 10.2145V1.81861e-08H33.125C34.0279 -6.56513e-05 34.9219 0.177717 35.756 0.523194C36.5902 0.868672 37.3481 1.37508 37.9865 2.01349C38.6249 2.65191 39.1313 3.40983 39.4768 4.24397C39.8223 5.07812 40.0001 5.97214 40 6.875Z" fill="#009640"/>
<path d="M40 23.125C39.9999 24.9483 39.2755 26.6969 37.9862 27.9862C36.6969 29.2755 34.9483 29.9999 33.125 30H21.25V19.785L26.465 25H33.536L24.786 16.25H33.125C34.0279 16.2499 34.9219 16.4277 35.756 16.7732C36.5902 17.1187 37.3481 17.6251 37.9865 18.2635C38.6249 18.9019 39.1313 19.6598 39.4768 20.494C39.8223 21.3281 40.0001 22.2221 40 23.125Z" fill="#009640"/>
</g>
<defs>
<clipPath id="clip0_694_14490">
<rect width="40" height="30" fill="white"/>
</clipPath>
</defs>
</svg>
