<svg width="37" height="36" viewBox="0 0 37 36" fill="none" xmlns="http://www.w3.org/2000/svg">
<g clip-path="url(#clip0_1074_30697)">
<path fill-rule="evenodd" clip-rule="evenodd" d="M29.8203 23.5078C28.6812 23.5078 27.7578 22.5844 27.7578 21.4453C27.7578 20.3062 28.6812 19.3828 29.8203 19.3828H33.3359C33.828 19.3828 34.291 19.2585 34.6953 19.0396V22.1484C34.6953 22.8992 34.0867 23.5078 33.3359 23.5078H29.8203ZM36.1953 16.5234V22.1484C36.1953 23.7276 34.9151 25.0078 33.3359 25.0078H29.8203C27.8527 25.0078 26.2578 23.4128 26.2578 21.4453C26.2578 19.4778 27.8527 17.8828 29.8203 17.8828H33.3359C34.0867 17.8828 34.6953 17.2742 34.6953 16.5234C34.6953 16.1092 35.0311 15.7734 35.4453 15.7734C35.8595 15.7734 36.1953 16.1092 36.1953 16.5234Z" fill="#101828"/>
<path fill-rule="evenodd" clip-rule="evenodd" d="M19.7007 31.2891C19.7007 31.7033 20.0365 32.0391 20.4507 32.0391H29.1171C30.6963 32.0391 31.9765 30.7588 31.9765 29.1797V24.2578C31.9765 23.8436 31.6407 23.5078 31.2265 23.5078C30.8123 23.5078 30.4765 23.8436 30.4765 24.2578V29.1797C30.4765 29.9304 29.8678 30.5391 29.1171 30.5391H20.4507C20.0365 30.5391 19.7007 30.8748 19.7007 31.2891Z" fill="#101828"/>
<path fill-rule="evenodd" clip-rule="evenodd" d="M3.66406 30.5391C2.91334 30.5391 2.30469 29.9304 2.30469 29.1797V12.0084C2.709 12.2273 3.17202 12.3516 3.66406 12.3516H29.1172C29.8679 12.3516 30.4766 12.9602 30.4766 13.7109V18.6328C30.4766 19.047 30.8123 19.3828 31.2266 19.3828C31.6408 19.3828 31.9766 19.047 31.9766 18.6328V13.7109C31.9766 12.1317 30.6963 10.8516 29.1172 10.8516H3.66406C2.91334 10.8516 2.30469 10.2429 2.30469 9.49219C2.30469 9.07798 1.9689 8.74219 1.55469 8.74219C1.14047 8.74219 0.804688 9.07798 0.804688 9.49219V29.1797C0.804688 30.7588 2.08491 32.0391 3.66406 32.0391H8.11175C8.52596 32.0391 8.86175 31.7033 8.86175 31.2891C8.86175 30.8748 8.52596 30.5391 8.11175 30.5391H3.66406Z" fill="#101828"/>
<path fill-rule="evenodd" clip-rule="evenodd" d="M30.4766 18.6328C30.4766 19.047 30.8123 19.3828 31.2266 19.3828H33.3359C34.9151 19.3828 36.1953 18.1026 36.1953 16.5234C36.1953 14.9443 34.9151 13.6641 33.3359 13.6641H31.2266C30.8123 13.6641 30.4766 13.9998 30.4766 14.4141V18.6328ZM31.9766 17.8828V15.1641H33.3359C34.0867 15.1641 34.6953 15.7727 34.6953 16.5234C34.6953 17.2742 34.0867 17.8828 33.3359 17.8828H31.9766Z" fill="#101828"/>
<path fill-rule="evenodd" clip-rule="evenodd" d="M7.90625 11.6016C7.90625 12.0158 8.24204 12.3516 8.65625 12.3516H25.5312C25.9455 12.3516 26.2812 12.0158 26.2812 11.6016V1.05469C26.2812 0.640473 25.9455 0.304688 25.5312 0.304688H8.65625C8.24204 0.304688 7.90625 0.640473 7.90625 1.05469V11.6016ZM9.40625 10.8516V1.80469H24.7812V10.8516H9.40625Z" fill="#101828"/>
<path fill-rule="evenodd" clip-rule="evenodd" d="M31.2266 14.4609C31.6408 14.4609 31.9766 14.1252 31.9766 13.7109V9.49219C31.9766 7.91295 30.6963 6.63281 29.1172 6.63281H25.5312C25.117 6.63281 24.7812 6.9686 24.7812 7.38281C24.7812 7.79703 25.117 8.13281 25.5312 8.13281H29.1172C29.8679 8.13281 30.4766 8.74141 30.4766 9.49219V11.1947C30.0722 10.9758 29.6092 10.8516 29.1172 10.8516H3.66406C2.91334 10.8516 2.30469 10.2429 2.30469 9.49219C2.30469 8.74141 2.91332 8.13281 3.66406 8.13281H8.65625C9.07046 8.13281 9.40625 7.79703 9.40625 7.38281C9.40625 6.9686 9.07046 6.63281 8.65625 6.63281H3.66406C2.08493 6.63281 0.804688 7.91295 0.804688 9.49219C0.804688 11.0713 2.08491 12.3516 3.66406 12.3516H29.1172C29.8679 12.3516 30.4766 12.9602 30.4766 13.7109C30.4766 14.1252 30.8123 14.4609 31.2266 14.4609Z" fill="#101828"/>
<path fill-rule="evenodd" clip-rule="evenodd" d="M21.4266 1.80469H24.7812V5.15933C23.0784 4.85022 21.7357 3.50751 21.4266 1.80469ZM19.8594 1.05469C19.8594 4.18718 22.3988 6.72656 25.5312 6.72656C25.9455 6.72656 26.2812 6.39078 26.2812 5.97656V1.05469C26.2812 0.640474 25.9455 0.304688 25.5312 0.304688H20.6094C20.1952 0.304688 19.8594 0.640474 19.8594 1.05469Z" fill="#101828"/>
<path fill-rule="evenodd" clip-rule="evenodd" d="M7.90625 5.97656C7.90625 6.39078 8.24204 6.72656 8.65625 6.72656C11.7887 6.72656 14.3281 4.18718 14.3281 1.05469C14.3281 0.640474 13.9923 0.304688 13.5781 0.304688H8.65625C8.24204 0.304688 7.90625 0.640474 7.90625 1.05469V5.97656ZM9.40625 5.15933V1.80469H12.7609C12.4518 3.50751 11.1091 4.85022 9.40625 5.15933Z" fill="#101828"/>
<path d="M14.2812 35.6953C9.98375 35.6953 6.5 32.2116 6.5 27.9141C6.5 23.6166 9.98375 20.1328 14.2812 20.1328C18.5788 20.1328 22.0625 23.6166 22.0625 27.9141C22.0625 32.2116 18.5788 35.6953 14.2812 35.6953Z" fill="#009640"/>
<path fill-rule="evenodd" clip-rule="evenodd" d="M11.9076 30.8199C12.2005 31.1128 12.6753 31.1128 12.9682 30.8199L17.4429 26.3452C17.7358 26.0523 17.7358 25.5774 17.4429 25.2845C17.15 24.9916 16.6751 24.9916 16.3823 25.2845L12.4379 29.2289L11.4766 28.2677C11.1837 27.9748 10.7088 27.9748 10.4159 28.2677C10.1231 28.5606 10.1231 29.0355 10.416 29.3284L11.9076 30.8199Z" fill="white"/>
</g>
<defs>
<clipPath id="clip0_1074_30697">
<rect width="36" height="36" fill="white" transform="translate(0.5)"/>
</clipPath>
</defs>
</svg>
