<svg width="currentWidth" height="currentHeight" viewBox="0 0 64 64" fill="none" xmlns="http://www.w3.org/2000/svg">
  <g clip-path="url(#a)">
    <path d="M50.906 62.125h5.588a5.631 5.631 0 0 0 5.631-5.631V7.506a5.631 5.631 0 0 0-5.631-5.631H7.506a5.631 5.631 0 0 0-5.631 5.631v48.988a5.631 5.631 0 0 0 5.631 5.631h43.4ZM1.875 16.875h60.25m-37.75-7.5h30.25" stroke="#98A2B3" stroke-width="3" stroke-miterlimit="10" stroke-linecap="round" stroke-linejoin="round"/>
    <path d="M11.25 9.375a1.875 1.875 0 1 1-3.75 0 1.875 1.875 0 0 1 3.75 0Zm7.5 0a1.875 1.875 0 1 1-3.75 0 1.875 1.875 0 0 1 3.75 0Z" fill="#98A2B3"/>
    <path d="m48.358 36.816-3.29 10.307H22.986l-3.93-16.228h24.977c3.075 0 5.26 2.992 4.325 5.92Z" fill="#009640" stroke="#009640" stroke-width="3" stroke-miterlimit="10" stroke-linecap="round" stroke-linejoin="round"/>
    <path d="M29.366 53.875a3.75 3.75 0 1 1-7.5 0 3.75 3.75 0 0 1 7.5 0Zm17.625 0a3.75 3.75 0 1 1-7.5 0 3.75 3.75 0 0 1 7.5 0Z" fill="#009640"/>
    <path d="m20.327 36.142-2.815-11.767m.001 0h-7.09" stroke="#009640" stroke-width="3" stroke-miterlimit="10" stroke-linecap="round" stroke-linejoin="round"/>
  </g>
  <defs>
    <clipPath id="a">
      <path fill="#fff" d="M0 0h64v64H0z"/>
    </clipPath>
  </defs>
</svg>
