<svg width="48" height="48" viewBox="0 0 64 64" fill="none" xmlns="http://www.w3.org/2000/svg"><g clip-path="url(#a)"><path fill-rule="evenodd" clip-rule="evenodd" d="M7.506 60.625a4.131 4.131 0 0 1-4.131-4.131V7.506a4.131 4.131 0 0 1 4.131-4.131h48.988a4.131 4.131 0 0 1 4.131 4.131v48.988a4.131 4.131 0 0 1-4.131 4.131H7.506ZM.375 56.494a7.131 7.131 0 0 0 7.131 7.131h48.988a7.131 7.131 0 0 0 7.131-7.131V7.506A7.131 7.131 0 0 0 56.494.375H7.506A7.131 7.131 0 0 0 .375 7.506v48.988Z" fill="#344054"/><path fill-rule="evenodd" clip-rule="evenodd" d="M.375 16.875a1.5 1.5 0 0 0 1.5 1.5h60.25a1.5 1.5 0 0 0 0-3H1.875a1.5 1.5 0 0 0-1.5 1.5Zm22.5-7.5a1.5 1.5 0 0 0 1.5 1.5h30.25a1.5 1.5 0 0 0 0-3h-30.25a1.5 1.5 0 0 0-1.5 1.5Z" fill="#344054"/><path d="M11.25 9.375a1.875 1.875 0 1 1-3.75 0 1.875 1.875 0 0 1 3.75 0Zm7.5 0a1.875 1.875 0 1 1-3.75 0 1.875 1.875 0 0 1 3.75 0Z" fill="#344054"/><path d="m48.358 36.816-3.29 10.307H22.986l-3.93-16.228h24.977c3.075 0 5.26 2.992 4.325 5.92Z" fill="url(#b)"/><path fill-rule="evenodd" clip-rule="evenodd" d="M21.528 47.476a1.5 1.5 0 0 0 1.458 1.147h22.082a1.5 1.5 0 0 0 1.43-1.044l3.29-10.307c1.243-3.897-1.665-7.877-5.755-7.877H19.056A1.5 1.5 0 0 0 17.6 31.25l3.93 16.227Zm2.638-1.853-3.203-13.228h23.07a3.04 3.04 0 0 1 2.896 3.964l-2.957 9.264H24.166Z" fill="url(#c)"/><path d="M29.366 53.875a3.75 3.75 0 1 1-7.5 0 3.75 3.75 0 0 1 7.5 0Z" fill="url(#d)"/><path d="M46.991 53.875a3.75 3.75 0 1 1-7.5 0 3.75 3.75 0 0 1 7.5 0Z" fill="url(#e)"/><path fill-rule="evenodd" clip-rule="evenodd" d="M20.676 37.601a1.5 1.5 0 0 0 1.11-1.807l-2.815-11.768a1.5 1.5 0 1 0-2.917.698l2.815 11.768a1.5 1.5 0 0 0 1.807 1.11Z" fill="url(#f)"/><path fill-rule="evenodd" clip-rule="evenodd" d="M8.924 24.375a1.5 1.5 0 0 0 1.5 1.5h7.088a1.5 1.5 0 0 0 0-3h-7.088a1.5 1.5 0 0 0-1.5 1.5Z" fill="url(#g)"/></g><defs><linearGradient id="b" x1="33.816" y1="47.123" x2="33.816" y2="30.895" gradientUnits="userSpaceOnUse"><stop stop-color="#16B364"/><stop offset="1" stop-color="#CDE762"/></linearGradient><linearGradient id="c" x1="33.817" y1="48.623" x2="33.817" y2="29.395" gradientUnits="userSpaceOnUse"><stop stop-color="#16B364"/><stop offset="1" stop-color="#CDE762"/></linearGradient><linearGradient id="d" x1="25.616" y1="57.625" x2="25.616" y2="50.125" gradientUnits="userSpaceOnUse"><stop stop-color="#16B364"/><stop offset="1" stop-color="#CDE762"/></linearGradient><linearGradient id="e" x1="43.241" y1="57.625" x2="43.241" y2="50.125" gradientUnits="userSpaceOnUse"><stop stop-color="#16B364"/><stop offset="1" stop-color="#CDE762"/></linearGradient><linearGradient id="f" x1="18.92" y1="37.643" x2="18.92" y2="22.875" gradientUnits="userSpaceOnUse"><stop stop-color="#16B364"/><stop offset="1" stop-color="#CDE762"/></linearGradient><linearGradient id="g" x1="13.968" y1="25.875" x2="13.968" y2="22.875" gradientUnits="userSpaceOnUse"><stop stop-color="#16B364"/><stop offset="1" stop-color="#CDE762"/></linearGradient><clipPath id="a"><path fill="#fff" d="M0 0h64v64H0z"/></clipPath></defs></svg>
