<svg width="64" height="64" viewBox="0 0 64 64" fill="none" xmlns="http://www.w3.org/2000/svg">
<g clip-path="url(#clip0_635_16156)">
<path d="M50.9062 62.125H56.4937C59.6037 62.125 62.125 59.6038 62.125 56.4938V16.875V7.50625C62.125 4.39625 59.6037 1.875 56.4937 1.875H7.50625C4.39625 1.875 1.875 4.39625 1.875 7.50625V16.875V56.4938C1.875 59.6038 4.39625 62.125 7.50625 62.125H13.0937H50.9062Z" stroke="#98A2B3" stroke-width="3" stroke-miterlimit="10" stroke-linecap="round" stroke-linejoin="round"/>
<path d="M1.875 16.875H62.125" stroke="#98A2B3" stroke-width="3" stroke-miterlimit="10" stroke-linecap="round" stroke-linejoin="round"/>
<path d="M24.375 9.375H54.625" stroke="#98A2B3" stroke-width="3" stroke-miterlimit="10" stroke-linecap="round" stroke-linejoin="round"/>
<path d="M11.25 9.375C11.25 10.4105 10.4105 11.25 9.375 11.25C8.3395 11.25 7.5 10.4105 7.5 9.375C7.5 8.3395 8.3395 7.5 9.375 7.5C10.4105 7.5 11.25 8.3395 11.25 9.375Z" fill="#98A2B3"/>
<path d="M18.75 9.375C18.75 10.4105 17.9105 11.25 16.875 11.25C15.8395 11.25 15 10.4105 15 9.375C15 8.3395 15.8395 7.5 16.875 7.5C17.9105 7.5 18.75 8.3395 18.75 9.375Z" fill="#98A2B3"/>
<path d="M48.3583 36.8156L45.0683 47.1226H22.9864L19.0566 30.8954H44.0335C47.1078 30.8954 49.2931 33.8869 48.3583 36.8156Z" fill="#009640" stroke="#009640" stroke-width="3" stroke-miterlimit="10" stroke-linecap="round" stroke-linejoin="round"/>
<path d="M29.3662 53.875C29.3662 55.9461 27.6873 57.625 25.6162 57.625C23.5451 57.625 21.8662 55.9461 21.8662 53.875C21.8662 51.8039 23.5451 50.125 25.6162 50.125C27.6873 50.125 29.3662 51.8039 29.3662 53.875Z" fill="#009640"/>
<path d="M46.9912 53.875C46.9912 55.9461 45.3123 57.625 43.2412 57.625C41.1701 57.625 39.4912 55.9461 39.4912 53.875C39.4912 51.8039 41.1701 50.125 43.2412 50.125C45.3123 50.125 46.9912 51.8039 46.9912 53.875Z" fill="#009640"/>
<path d="M20.3272 36.1425L17.5122 24.375" stroke="#009640" stroke-width="3" stroke-miterlimit="10" stroke-linecap="round" stroke-linejoin="round"/>
<path d="M17.5126 24.375H10.4238" stroke="#009640" stroke-width="3" stroke-miterlimit="10" stroke-linecap="round" stroke-linejoin="round"/>
</g>
<defs>
<clipPath id="clip0_635_16156">
<rect width="64" height="64" fill="white"/>
</clipPath>
</defs>
</svg>
