<svg width="40" height="40" viewBox="0 0 40 40" fill="none" xmlns="http://www.w3.org/2000/svg">
<g clip-path="url(#clip0_853_41957)">
<path d="M12.6372 24.7656C15.0385 20.0097 19.1319 15.2434 22.3436 12.9688L17.6561 3.51563C17.6561 3.51563 19.4139 1.17188 21.1717 1.17188C22.9295 1.17188 24.6874 3.51563 24.6874 3.51563C24.6874 3.51563 26.4452 1.17188 28.203 1.17188C29.9608 1.17188 31.7186 3.51563 31.7186 3.51563L27.0311 12.9688C31.8871 16.5484 38.828 26.0251 38.828 31.7969C38.828 38.2087 32.3851 38.8079 27.4999 38.8281H24.6092" stroke="#101828" stroke-width="2" stroke-miterlimit="10" stroke-linecap="round" stroke-linejoin="round"/>
<path d="M24.6875 24.7656H1.17188V38.8281H24.6875V24.7656Z" fill="#009640" stroke="#009640" stroke-width="2" stroke-miterlimit="10" stroke-linecap="round" stroke-linejoin="round"/>
<path d="M15.3125 31.7969C15.3125 33.0913 14.2631 34.1406 12.9688 34.1406C11.6744 34.1406 10.625 33.0913 10.625 31.7969C10.625 30.5025 11.6744 29.4531 12.9688 29.4531C14.2631 29.4531 15.3125 30.5025 15.3125 31.7969Z" stroke="white" stroke-width="2" stroke-miterlimit="10" stroke-linecap="round" stroke-linejoin="round"/>
<path d="M27.0312 12.9688H22.3438" stroke="#101828" stroke-width="2" stroke-miterlimit="10" stroke-linecap="round" stroke-linejoin="round"/>
<path d="M22.3438 20.0781C23.8445 18.5775 24.6875 16.464 24.6875 14.3417M24.6875 14.3417V12.9688M24.6875 14.3417C24.6875 16.464 25.5305 18.5775 27.0312 20.0781" stroke="#101828" stroke-width="2" stroke-miterlimit="10" stroke-linecap="round" stroke-linejoin="round"/>
<path d="M5.9375 31.9688C6.0324 31.9688 6.10938 31.8918 6.10938 31.7969C6.10938 31.702 6.0324 31.625 5.9375 31.625C5.8426 31.625 5.76562 31.702 5.76562 31.7969C5.76562 31.8918 5.8426 31.9688 5.9375 31.9688Z" fill="white" stroke="white" stroke-width="2"/>
<path d="M20 31.9688C20.0949 31.9688 20.1719 31.8918 20.1719 31.7969C20.1719 31.702 20.0949 31.625 20 31.625C19.9051 31.625 19.8281 31.702 19.8281 31.7969C19.8281 31.8918 19.9051 31.9688 20 31.9688Z" fill="white" stroke="white" stroke-width="2"/>
</g>
<defs>
<clipPath id="clip0_853_41957">
<rect width="40" height="40" fill="white"/>
</clipPath>
</defs>
</svg>
