<svg width="48" height="48" viewBox="0 0 48 48" fill="none" xmlns="http://www.w3.org/2000/svg"><g clip-path="url(#a)"><path fill-rule="evenodd" clip-rule="evenodd" d="M28.53 46.594a1 1 0 0 0 1 1h3.474c2.93-.012 6.514-.191 9.385-1.424 1.455-.625 2.771-1.538 3.72-2.874.954-1.343 1.484-3.04 1.484-5.14 0-3.775-2.23-8.56-5.059-12.835-2.647-3.998-5.949-7.743-8.836-10.05l5.26-10.608c.3-.607-.128-1.11-.506-1.542-.25-.286-.61-.67-1.044-1.056-.817-.726-2.115-1.659-3.565-1.659s-2.748.933-3.565 1.66c-.243.216-.463.431-.653.63-.19-.199-.41-.414-.654-.63-.817-.727-2.116-1.66-3.565-1.66-1.45 0-2.748.933-3.565 1.66-.529.47-1.023.99-1.453 1.552-.102.236-.264.775-.097 1.045l5.253 10.594c-3.876 2.989-8.495 8.51-11.272 14.011a1 1 0 0 0 1.785.901c2.754-5.455 7.412-10.913 11.078-13.606h1.49v.647c0 2.292-.914 4.57-2.52 6.177a1 1 0 0 0 1.414 1.414 10.5 10.5 0 0 0 2.106-3.04 10.5 10.5 0 0 0 2.105 3.04 1 1 0 1 0 1.414-1.414c-1.606-1.606-2.52-3.885-2.52-6.177v-.648h1.48c2.744 2.099 6.08 5.81 8.763 9.863 2.791 4.217 4.726 8.58 4.726 11.731 0 1.748-.436 3.026-1.115 3.982-.684.964-1.667 1.675-2.878 2.194-2.46 1.056-5.672 1.25-8.603 1.262h-3.466a1 1 0 0 0-1 1m3.287-32.031 5.06-10.205a10 10 0 0 0-.798-.798c-.765-.68-1.576-1.154-2.236-1.154s-1.47.474-2.236 1.154a9 9 0 0 0-1.183 1.26 1.01 1.01 0 0 1-1.6-.001 9 9 0 0 0-1.182-1.26c-.765-.68-1.577-1.153-2.236-1.153s-1.471.474-2.236 1.154a10 10 0 0 0-.798.798l5.06 10.205z" fill="#101828"/><path d="M1.406 47.594a1 1 0 0 1-1-1V29.719a1 1 0 0 1 1-1h28.219a1 1 0 0 1 1 1v16.875a1 1 0 0 1-1 1z" fill="url(#b)"/><path fill-rule="evenodd" clip-rule="evenodd" d="M11.75 38.156a3.813 3.813 0 1 0 7.625 0 3.813 3.813 0 0 0-7.625 0m3.813 1.813a1.813 1.813 0 1 1 0-3.625 1.813 1.813 0 0 1 0 3.625" fill="#fff"/><path d="M7.125 39.563a1.406 1.406 0 1 0 0-2.813 1.406 1.406 0 0 0 0 2.813m16.875 0a1.406 1.406 0 1 0 0-2.813 1.406 1.406 0 0 0 0 2.813" fill="#fff"/></g><defs><linearGradient id="b" x1="15.516" y1="28.719" x2="15.516" y2="47.594" gradientUnits="userSpaceOnUse"><stop stop-color="#16B364"/><stop offset="1" stop-color="#CDE762"/></linearGradient><clipPath id="a"><path fill="#fff" d="M0 0h48v48H0z"/></clipPath></defs></svg>