<svg width="64" height="64" viewBox="0 0 64 64" fill="none" xmlns="http://www.w3.org/2000/svg">
<path d="M58.5946 16.5607C54.034 8.67846 45.5116 3.37508 35.75 3.37508V29.7501L58.5946 42.9393C60.8395 39.0595 62.125 34.5551 62.125 29.7501C62.125 24.9451 60.8395 20.4407 58.5946 16.5607Z" fill="#009640" stroke="#009640" stroke-width="3" stroke-miterlimit="10" stroke-linecap="round" stroke-linejoin="round"/>
<path d="M28.25 34.25V7.875C18.4884 7.875 9.96612 13.1784 5.40537 21.0606C3.1605 24.9406 1.875 29.445 1.875 34.25C1.875 39.0549 3.1605 43.5594 5.40537 47.4394C9.96612 55.3216 18.4884 60.625 28.25 60.625C38.0116 60.625 46.5339 55.3216 51.0946 47.4394L28.25 34.25Z" stroke="#98A2B3" stroke-width="3" stroke-miterlimit="10" stroke-linecap="round" stroke-linejoin="round"/>
</svg>
