<svg viewBox="0 0 20 20" fill="none" xmlns="http://www.w3.org/2000/svg">
<path d="M8.525 12.275L6.075 9.825C5.925 9.675 5.74167 9.6 5.525 9.6C5.30833 9.6 5.125 9.675 4.975 9.825C4.80833 9.99167 4.725 10.1875 4.725 10.4125C4.725 10.6375 4.8 10.825 4.95 10.975L8 14.025C8.13333 14.1583 8.30833 14.225 8.525 14.225C8.74167 14.225 8.91667 14.1583 9.05 14.025L15.05 8.025C15.2 7.875 15.275 7.69167 15.275 7.475C15.275 7.25833 15.1917 7.06667 15.025 6.9C14.875 6.75 14.6875 6.675 14.4625 6.675C14.2375 6.675 14.0417 6.75833 13.875 6.925L8.525 12.275ZM10 20C8.58333 20 7.26667 19.7458 6.05 19.2375C4.83333 18.7292 3.775 18.025 2.875 17.125C1.975 16.225 1.27083 15.1667 0.7625 13.95C0.254167 12.7333 0 11.4167 0 10C0 8.6 0.254167 7.29167 0.7625 6.075C1.27083 4.85833 1.975 3.8 2.875 2.9C3.775 2 4.83333 1.29167 6.05 0.775C7.26667 0.258333 8.58333 0 10 0C11.4 0 12.7083 0.258333 13.925 0.775C15.1417 1.29167 16.2 2 17.1 2.9C18 3.8 18.7083 4.85833 19.225 6.075C19.7417 7.29167 20 8.6 20 10C20 11.4167 19.7417 12.7333 19.225 13.95C18.7083 15.1667 18 16.225 17.1 17.125C16.2 18.025 15.1417 18.7292 13.925 19.2375C12.7083 19.7458 11.4 20 10 20Z" fill="url(#paint0_linear_4227_11781)"/>
<defs>
<linearGradient id="paint0_linear_4227_11781" x1="10" y1="0" x2="10" y2="20" gradientUnits="userSpaceOnUse">
<stop stop-color="#16B364"/>
<stop offset="1" stop-color="#CDE762"/>
</linearGradient>
</defs>
</svg>
 