<svg  width="currentWidth" height="currentHeight" viewBox="0 0 64 64" fill="none" xmlns="http://www.w3.org/2000/svg">
  <g clip-path="url(#a)">
    <path d="M54.092 49.07c0 2.762-2.26 5.022-5.02 5.022H14.928a5.036 5.036 0 0 1-5.02-5.021V14.929a5.035 5.035 0 0 1 5.02-5.02H49.07a5.034 5.034 0 0 1 5.02 5.02v34.142Z" stroke="#98A2B3" stroke-width="3" stroke-miterlimit="10" stroke-linecap="round" stroke-linejoin="round"/>
    <path d="M46.059 41.038c0 2.761-2.26 5.02-5.021 5.02H22.963c-2.762 0-5.021-2.259-5.021-5.02V22.963c0-2.762 2.26-5.021 5.02-5.021h18.076a5.036 5.036 0 0 1 5.02 5.02v18.076Z" fill="#009640"/>
    <path d="M14.93 9.908V1.875m0 52.217v8.033m8.535-52.217V1.875m0 52.217v8.033M32 9.908V1.875m0 52.217v8.033m8.536-52.217V1.875m0 52.217v8.033m8.535-8.033v8.033m0-52.217V1.875m5.021 13.055h8.033m-52.216 0H1.874m52.218 8.535h8.033m-52.216 0H1.874M54.092 32h8.033M9.909 32H1.874m52.218 8.535h8.033m-52.216 0H1.874m8.035 8.535H1.874m52.218 0h8.033" stroke="#98A2B3" stroke-width="3" stroke-miterlimit="10" stroke-linecap="round" stroke-linejoin="round"/>
  </g>
  <defs>
    <clipPath id="a">
      <path fill="#fff" d="M0 0h64v64H0z"/>
    </clipPath>
  </defs>
</svg>
