<svg width="48" height="48" viewBox="0 0 64 64" fill="none" xmlns="http://www.w3.org/2000/svg"><g clip-path="url(#a)"><path fill-rule="evenodd" clip-rule="evenodd" d="M8.408 49.07c0 3.59 2.931 6.522 6.521 6.522h34.142c3.59 0 6.52-2.931 6.52-6.521V14.929c0-3.59-2.93-6.52-6.52-6.52H14.93c-3.59 0-6.52 2.93-6.52 6.52v34.142Zm6.521 3.522a3.536 3.536 0 0 1-3.52-3.521V14.929a3.536 3.536 0 0 1 3.52-3.52h34.142a3.536 3.536 0 0 1 3.52 3.52v34.142a3.536 3.536 0 0 1-3.52 3.52H14.93Z" fill="#344054"/><path d="M46.059 41.038c0 2.761-2.26 5.02-5.021 5.02H22.963c-2.762 0-5.021-2.259-5.021-5.02V22.963c0-2.762 2.26-5.021 5.02-5.021h18.076a5.036 5.036 0 0 1 5.02 5.02v18.076Z" fill="url(#b)"/><path fill-rule="evenodd" clip-rule="evenodd" d="M14.93 11.408a1.5 1.5 0 0 0 1.5-1.5V1.875a1.5 1.5 0 0 0-3 0v8.033a1.5 1.5 0 0 0 1.5 1.5Zm0 52.217a1.5 1.5 0 0 0 1.5-1.5v-8.033a1.5 1.5 0 0 0-3 0v8.033a1.5 1.5 0 0 0 1.5 1.5Zm8.535-52.217a1.5 1.5 0 0 0 1.5-1.5V1.875a1.5 1.5 0 1 0-3 0v8.033a1.5 1.5 0 0 0 1.5 1.5Zm0 52.217a1.5 1.5 0 0 0 1.5-1.5v-8.033a1.5 1.5 0 1 0-3 0v8.033a1.5 1.5 0 0 0 1.5 1.5ZM32 11.408a1.5 1.5 0 0 0 1.5-1.5V1.875a1.5 1.5 0 1 0-3 0v8.033a1.5 1.5 0 0 0 1.5 1.5Zm0 52.217a1.5 1.5 0 0 0 1.5-1.5v-8.033a1.5 1.5 0 1 0-3 0v8.033a1.5 1.5 0 0 0 1.5 1.5Zm8.536-52.217a1.5 1.5 0 0 0 1.5-1.5V1.875a1.5 1.5 0 1 0-3 0v8.033a1.5 1.5 0 0 0 1.5 1.5Zm0 52.217a1.5 1.5 0 0 0 1.5-1.5v-8.033a1.5 1.5 0 1 0-3 0v8.033a1.5 1.5 0 0 0 1.5 1.5Zm8.535 0a1.5 1.5 0 0 0 1.5-1.5v-8.033a1.5 1.5 0 1 0-3 0v8.033a1.5 1.5 0 0 0 1.5 1.5Zm0-52.217a1.5 1.5 0 0 0 1.5-1.5V1.875a1.5 1.5 0 1 0-3 0v8.033a1.5 1.5 0 0 0 1.5 1.5Zm3.521 3.522a1.5 1.5 0 0 0 1.5 1.5h8.033a1.5 1.5 0 1 0 0-3h-8.033a1.5 1.5 0 0 0-1.5 1.5Zm-52.217 0a1.5 1.5 0 0 0 1.5 1.5h8.034a1.5 1.5 0 0 0 0-3H1.874a1.5 1.5 0 0 0-1.5 1.5Zm52.217 8.535a1.5 1.5 0 0 0 1.5 1.5h8.033a1.5 1.5 0 1 0 0-3h-8.033a1.5 1.5 0 0 0-1.5 1.5Zm-52.217 0a1.5 1.5 0 0 0 1.5 1.5h8.034a1.5 1.5 0 0 0 0-3H1.874a1.5 1.5 0 0 0-1.5 1.5ZM52.592 32a1.5 1.5 0 0 0 1.5 1.5h8.033a1.5 1.5 0 1 0 0-3h-8.033a1.5 1.5 0 0 0-1.5 1.5ZM.375 32a1.5 1.5 0 0 0 1.5 1.5h8.034a1.5 1.5 0 0 0 0-3H1.874a1.5 1.5 0 0 0-1.5 1.5Zm52.217 8.535a1.5 1.5 0 0 0 1.5 1.5h8.033a1.5 1.5 0 1 0 0-3h-8.033a1.5 1.5 0 0 0-1.5 1.5Zm-52.217 0a1.5 1.5 0 0 0 1.5 1.5h8.034a1.5 1.5 0 0 0 0-3H1.874a1.5 1.5 0 0 0-1.5 1.5Zm0 8.535a1.5 1.5 0 0 0 1.5 1.5h8.034a1.5 1.5 0 0 0 0-3H1.874a1.5 1.5 0 0 0-1.5 1.5Zm52.217 0a1.5 1.5 0 0 0 1.5 1.5h8.033a1.5 1.5 0 1 0 0-3h-8.033a1.5 1.5 0 0 0-1.5 1.5Z" fill="#344054"/></g><defs><linearGradient id="b" x1="32" y1="46.058" x2="32" y2="17.942" gradientUnits="userSpaceOnUse"><stop stop-color="#16B364"/><stop offset="1" stop-color="#CDE762"/></linearGradient><clipPath id="a"><path fill="#fff" d="M0 0h64v64H0z"/></clipPath></defs></svg>