<svg width="40" height="40" viewBox="0 0 40 40" fill="none" xmlns="http://www.w3.org/2000/svg">
<g clip-path="url(#clip0_853_41955)">
<path d="M27.3522 23.4375H33.2812C36.3016 23.4375 38.75 20.9891 38.75 17.9688C38.75 14.9484 36.3016 12.5 33.2812 12.5C32.9596 12.5 32.6452 12.5295 32.3392 12.5836C32.6455 11.7008 32.8125 10.7527 32.8125 9.76562C32.8125 5.01945 28.965 1.17188 24.2188 1.17188C20.935 1.17188 18.0819 3.01391 16.6351 5.7207C15.5678 5.06617 14.313 4.6875 12.9688 4.6875C9.08547 4.6875 5.9375 7.83547 5.9375 11.7188C5.9375 12.0019 5.95899 12.2795 5.99149 12.5538C3.31586 12.9104 1.25 15.1956 1.25 17.9688C1.25 20.9891 3.69836 23.4375 6.71875 23.4375H12.6477" stroke="#101828" stroke-width="2" stroke-miterlimit="10" stroke-linecap="round" stroke-linejoin="round"/>
<path d="M7.99688 16.6906C6.62398 15.3176 5.9375 13.5183 5.9375 11.7187" stroke="#101828" stroke-width="2" stroke-miterlimit="10" stroke-linecap="round" stroke-linejoin="round"/>
<path d="M33.2813 12.5C31.7711 12.5 30.4039 13.1121 29.4143 14.1017" stroke="#101828" stroke-width="2" stroke-miterlimit="10" stroke-linecap="round" stroke-linejoin="round"/>
<path d="M20.0001 32.5781C18.2742 32.5781 16.8751 31.179 16.8751 29.4531C16.8751 27.7272 18.2742 26.3281 20.0001 26.3281C21.726 26.3281 23.1251 27.7272 23.1251 29.4531C23.1251 31.179 21.726 32.5781 20.0001 32.5781ZM27.8126 29.4531C27.8126 28.8705 27.7439 28.3047 27.6229 27.7584L29.2909 26.7954L26.9472 22.7359L25.2744 23.7016C24.4417 22.9377 23.4485 22.3465 22.3438 21.9994V20.0781H17.6563V21.9994C16.5517 22.3465 15.5584 22.9377 14.7258 23.7016L13.053 22.7359L10.7092 26.7954L12.3773 27.7584C12.2563 28.3047 12.1876 28.8705 12.1876 29.4531C12.1876 30.0358 12.2563 30.6016 12.3773 31.1478L10.7092 32.1109L13.053 36.1704L14.7258 35.2045C15.5584 35.9685 16.5517 36.5598 17.6563 36.9069V38.8281H22.3438V36.9069C23.4484 36.5598 24.4417 35.9685 25.2744 35.2045L26.9472 36.1704L29.2909 32.1109L27.6229 31.1478C27.7439 30.6016 27.8126 30.0358 27.8126 29.4531Z" fill="#009640" stroke="#009640" stroke-width="2" stroke-miterlimit="10" stroke-linecap="round" stroke-linejoin="round"/>
</g>
<defs>
<clipPath id="clip0_853_41955">
<rect width="40" height="40" fill="white"/>
</clipPath>
</defs>
</svg>
