<svg width="48" height="48" viewBox="0 0 64 64" fill="none" xmlns="http://www.w3.org/2000/svg"><g clip-path="url(#a)"><path fill-rule="evenodd" clip-rule="evenodd" d="M.375 39.188c0 2.89 2.36 5.25 5.25 5.25h34a1.5 1.5 0 0 0 0-3h-34a2.261 2.261 0 0 1-2.25-2.25v-27.75a2.261 2.261 0 0 1 2.25-2.25h41.5a2.261 2.261 0 0 1 2.25 2.25V33.25a1.5 1.5 0 0 0 3 0V11.437c0-2.89-2.36-5.25-5.25-5.25h-41.5c-2.89 0-5.25 2.36-5.25 5.25v27.75Z" fill="#344054"/><path d="M51 58c7.16 0 13-5.84 13-13s-5.84-13-13-13-13 5.84-13 13 5.84 13 13 13Z" fill="url(#b)"/><path fill-rule="evenodd" clip-rule="evenodd" d="M49.734 50.5a1.5 1.5 0 0 0 1.11-.492l7.266-8a1.5 1.5 0 1 0-2.22-2.017l-6.156 6.778-2.624-2.889a1.5 1.5 0 1 0-2.22 2.017l3.734 4.111a1.5 1.5 0 0 0 1.11.492Z" fill="#fff"/><path fill-rule="evenodd" clip-rule="evenodd" d="M.375 21.938a1.5 1.5 0 0 0 1.5 1.5h49a1.5 1.5 0 0 0 1.5-1.5v-7.5a1.5 1.5 0 0 0-1.5-1.5h-49a1.5 1.5 0 0 0-1.5 1.5v7.5Zm3-1.5v-4.5h46v4.5h-46Zm4.5 9a1.5 1.5 0 0 0 1.5 1.5h4.688a1.5 1.5 0 0 0 0-3H9.375a1.5 1.5 0 0 0-1.5 1.5Zm0 5.999a1.5 1.5 0 0 0 1.5 1.5H20a1.5 1.5 0 0 0 0-3H9.375a1.5 1.5 0 0 0-1.5 1.5Z" fill="#344054"/></g><defs><linearGradient id="b" x1="51" y1="58" x2="51" y2="32" gradientUnits="userSpaceOnUse"><stop stop-color="#16B364"/><stop offset="1" stop-color="#CDE762"/></linearGradient><clipPath id="a"><path fill="#fff" d="M0 0h64v64H0z"/></clipPath></defs></svg>