<svg  width="currentWidth" height="currentHeight" viewBox="0 0 64 64" fill="none" xmlns="http://www.w3.org/2000/svg">
  <g clip-path="url(#a)">
    <path d="M39.625 42.938h-34a3.761 3.761 0 0 1-3.75-3.75v-27.75a3.761 3.761 0 0 1 3.75-3.75h41.5a3.761 3.761 0 0 1 3.75 3.75V33.25" stroke="#98A2B3" stroke-width="3" stroke-miterlimit="22.926" stroke-linecap="round" stroke-linejoin="round"/>
    <path d="M51 58c7.16 0 13-5.84 13-13s-5.84-13-13-13-13 5.84-13 13 5.84 13 13 13Z" fill="#009640"/>
    <path d="M46 44.889 49.734 49 57 41" stroke="#fff" stroke-width="3" stroke-miterlimit="22.926" stroke-linecap="round" stroke-linejoin="round"/>
    <path d="M1.875 21.938h49v-7.5h-49v7.5Zm7.5 7.5h4.688m-4.688 5.999H20" stroke="#98A2B3" stroke-width="3" stroke-miterlimit="22.926" stroke-linecap="round" stroke-linejoin="round"/>
  </g>
  <defs>
    <clipPath id="a">
      <path fill="#fff" d="M0 0h64v64H0z"/>
    </clipPath>
  </defs>
</svg>
