<svg  width="currentWidth" height="currentHeight" viewBox="0 0 64 64" fill="none" xmlns="http://www.w3.org/2000/svg"><g clip-path="url(#a)" stroke-width="3" stroke-miterlimit="10" stroke-linecap="round" stroke-linejoin="round"><path d="M38 42H22v12h16V42Z" stroke="#98A2B3"/><path d="M58.108 19.95V5.892a4.016 4.016 0 0 0-4.016-4.017h-48.2a4.017 4.017 0 0 0-4.017 4.017v32.133a4.017 4.017 0 0 0 4.017 4.017h32.133V23.967a4.017 4.017 0 0 1 4.017-4.017h16.066ZM15.933 54.092h22.092" stroke="#98A2B3"/><path d="M62.125 23.967a4.016 4.016 0 0 0-4.017-4.017H42.042a4.017 4.017 0 0 0-4.017 4.017v34.141a4.017 4.017 0 0 0 4.017 4.017h16.066a4.016 4.016 0 0 0 4.017-4.017V23.967Z" fill="#009640" stroke="#009640"/><path d="M48.067 24.983h4.016" stroke="#fff"/></g><defs><clipPath id="a"><path fill="#fff" d="M0 0h64v64H0z"/></clipPath></defs></svg>