<svg width="48" height="48" viewBox="0 0 64 64" fill="none" xmlns="http://www.w3.org/2000/svg"><g clip-path="url(#a)"><path d="M38 55.5H22c-.8 0-1.5-.7-1.5-1.5V42c0-.8.7-1.5 1.5-1.5h16c.8 0 1.5.7 1.5 1.5v12c0 .8-.7 1.5-1.5 1.5Zm-14.5-3h13v-9h-13v9Z" fill="#344054"/><path d="M38 43.5H5.9C2.9 43.5.4 41 .4 38V5.9C.4 2.9 2.9.4 5.9.4h48.2C55.6.4 57 .9 58 2c1 1 1.6 2.4 1.6 3.9V20c0 .8-.7 1.5-1.5 1.5H42c-1.4 0-2.5 1.1-2.5 2.5v18c0 .9-.6 1.5-1.5 1.5ZM5.9 3.4c-1.4 0-2.5 1.1-2.5 2.5V38c0 1.4 1.1 2.5 2.5 2.5h30.6V24c0-3 2.5-5.5 5.5-5.5h14.6V5.9c0-.7-.3-1.3-.7-1.8-.5-.5-1.1-.7-1.8-.7H5.9ZM38 55.6H15.9c-.8 0-1.5-.7-1.5-1.5s.7-1.5 1.5-1.5H38c.8 0 1.5.7 1.5 1.5s-.6 1.5-1.5 1.5Z" fill="#344054"/><path d="M62.1 24c0-1.1-.4-2.1-1.2-2.8-.8-.8-1.8-1.2-2.8-1.2H42c-1.1 0-2.1.4-2.8 1.2-.8.7-1.2 1.7-1.2 2.8v34.1c0 1.1.4 2.1 1.2 2.8.8.8 1.8 1.2 2.8 1.2h16.1c1.1 0 2.1-.4 2.8-1.2.8-.8 1.2-1.8 1.2-2.8V24Z" fill="url(#b)"/><path d="M58.1 63.6H42c-1.5 0-2.9-.6-3.9-1.6s-1.6-2.4-1.6-3.9V24c0-1.5.6-2.9 1.6-3.9s2.4-1.6 3.9-1.6h16.1c1.5 0 2.9.6 3.9 1.6s1.6 2.4 1.6 3.9v34.1c0 1.5-.6 2.9-1.6 3.9-1 1.1-2.4 1.6-3.9 1.6ZM42 21.4c-.7 0-1.3.3-1.8.7-.5.5-.7 1.1-.7 1.8V58c0 .7.3 1.3.7 1.8.5.5 1.1.7 1.8.7h16.1c.7 0 1.3-.3 1.8-.7.5-.4.7-1.1.7-1.8V24c0-.7-.3-1.3-.7-1.8-.5-.5-1.1-.7-1.8-.7H42v-.1Z" fill="url(#c)"/><path fill-rule="evenodd" clip-rule="evenodd" d="M46.6 25c0-.8.7-1.5 1.5-1.5h4c.8 0 1.5.7 1.5 1.5s-.7 1.5-1.5 1.5h-4c-.9 0-1.5-.7-1.5-1.5Z" fill="#fff"/></g><defs><linearGradient id="b" x1="50.05" y1="20" x2="50.05" y2="62.1" gradientUnits="userSpaceOnUse"><stop stop-color="#16B364"/><stop offset="1" stop-color="#CDE762"/></linearGradient><linearGradient id="c" x1="50.05" y1="18.5" x2="50.05" y2="63.6" gradientUnits="userSpaceOnUse"><stop stop-color="#16B364"/><stop offset="1" stop-color="#CDE762"/></linearGradient><clipPath id="a"><path fill="#fff" d="M0 0h64v64H0z"/></clipPath></defs></svg>