<svg width="36" height="36" viewBox="0 0 36 36" fill="none" xmlns="http://www.w3.org/2000/svg">
<g clip-path="url(#clip0_1141_28067)">
<path fill-rule="evenodd" clip-rule="evenodd" d="M4.1799 22.8904C8.69081 27.4013 15.6471 27.9735 20.7793 24.6087C21.1257 24.3816 21.2225 23.9166 20.9953 23.5702C20.7682 23.2238 20.3033 23.1271 19.9569 23.3543C15.4071 26.3373 9.23887 25.828 5.24056 21.8297C0.659395 17.2486 0.659395 9.82172 5.24056 5.24055C9.82173 0.65938 17.2486 0.65938 21.8297 5.24055C25.8287 9.23953 26.3373 15.4077 23.3543 19.9576C23.1272 20.304 23.2239 20.7689 23.5703 20.996C23.9167 21.2231 24.3816 21.1264 24.6087 20.78C27.9735 15.6479 27.4021 8.69153 22.8904 4.17989C17.7235 -0.987067 9.34686 -0.987067 4.1799 4.17989C-0.987051 9.34684 -0.987051 17.7234 4.1799 22.8904Z" fill="#101828"/>
<path fill-rule="evenodd" clip-rule="evenodd" d="M7.24508 19.7752C7.45703 19.9871 7.77481 20.0525 8.05322 19.9415L16.2881 16.6576C16.4792 16.5814 16.6307 16.43 16.7069 16.2388L19.9908 8.00393C20.1018 7.72551 20.0364 7.40773 19.8245 7.19579C19.6125 6.98384 19.2948 6.91844 19.0163 7.02947L10.7815 10.3133C10.5903 10.3896 10.4389 10.541 10.3626 10.7322L7.07876 18.967C6.96774 19.2455 7.03314 19.5632 7.24508 19.7752ZM9.1184 17.9019L11.6365 11.5872L17.9512 9.0691L15.433 15.3837L9.1184 17.9019Z" fill="#101828"/>
<path fill-rule="evenodd" clip-rule="evenodd" d="M13.5352 4.15186C13.9494 4.15186 14.2852 3.81607 14.2852 3.40186V1.05482C14.2852 0.640611 13.9494 0.304824 13.5352 0.304824C13.1209 0.304824 12.7852 0.640611 12.7852 1.05482V3.40186C12.7852 3.81607 13.1209 4.15186 13.5352 4.15186Z" fill="#101828"/>
<path fill-rule="evenodd" clip-rule="evenodd" d="M22.9189 13.5352C22.9189 13.9494 23.2547 14.2852 23.6689 14.2852H26.016C26.4302 14.2852 26.766 13.9494 26.766 13.5352C26.766 13.1209 26.4302 12.7852 26.016 12.7852H23.6689C23.2547 12.7852 22.9189 13.1209 22.9189 13.5352Z" fill="#101828"/>
<path fill-rule="evenodd" clip-rule="evenodd" d="M0.304688 13.5352C0.304688 13.9494 0.640474 14.2852 1.05469 14.2852H3.40172C3.81593 14.2852 4.15172 13.9494 4.15172 13.5352C4.15172 13.1209 3.81593 12.7852 3.40172 12.7852H1.05469C0.640474 12.7852 0.304688 13.1209 0.304688 13.5352Z" fill="#101828"/>
<path fill-rule="evenodd" clip-rule="evenodd" d="M13.5352 26.7656C13.9494 26.7656 14.2852 26.4298 14.2852 26.0156V23.6686C14.2852 23.2544 13.9494 22.9186 13.5352 22.9186C13.1209 22.9186 12.7852 23.2544 12.7852 23.6686V26.0156C12.7852 26.4298 13.1209 26.7656 13.5352 26.7656Z" fill="#101828"/>
<path d="M34.9451 23.1547L30.0794 26.0934L32.9554 29.7792C33.6583 30.6801 33.5794 31.9636 32.7714 32.7716C31.9634 33.5796 30.6799 33.6585 29.779 32.9555L26.0932 30.0795L23.1545 34.9453L19.1367 19.1378L34.9451 23.1547Z" fill="#009640"/>
<path fill-rule="evenodd" clip-rule="evenodd" d="M23.0445 35.6872C23.3437 35.7315 23.6402 35.5919 23.7965 35.333L26.2982 31.1908L29.3176 33.5468C29.3176 33.5468 29.3176 33.5468 29.3176 33.5468C30.5171 34.4828 32.226 34.3776 33.3018 33.3019L33.3018 33.3019C34.3775 32.2262 34.4825 30.5172 33.5467 29.3178L33.5467 29.3178L31.1907 26.2984L35.3329 23.7966C35.5918 23.6403 35.7314 23.3438 35.687 23.0446C35.6427 22.7455 35.423 22.5022 35.1299 22.4278L19.3214 18.4109C19.0651 18.3457 18.7934 18.4204 18.6064 18.6075C18.4194 18.7945 18.3447 19.0662 18.4098 19.3225L22.4276 35.13C22.5021 35.4231 22.7454 35.6428 23.0445 35.6872ZM23.4396 33.0224L20.1743 20.1752L33.0222 23.4399L29.6917 25.4514C29.5081 25.5622 29.3808 25.7464 29.3418 25.9573C29.3029 26.1682 29.3562 26.3857 29.4881 26.5547L32.3641 30.2405C32.8341 30.8429 32.7813 31.7011 32.2411 32.2412C31.7008 32.7815 30.8427 32.8342 30.2404 32.3642L30.2404 32.3642L26.5545 29.4882C26.3855 29.3563 26.168 29.3031 25.9571 29.342C25.7462 29.3809 25.562 29.5082 25.4512 29.6918L23.4396 33.0224Z" fill="#009640"/>
</g>
<defs>
<clipPath id="clip0_1141_28067">
<rect width="36" height="36" fill="white"/>
</clipPath>
</defs>
</svg>
