<svg width="37" height="36" viewBox="0 0 37 36" fill="none" xmlns="http://www.w3.org/2000/svg">
<g clip-path="url(#clip0_1074_30653)">
<path fill-rule="evenodd" clip-rule="evenodd" d="M24.8516 32.7656C24.8516 34.3448 26.1318 35.625 27.7109 35.625C29.2901 35.625 30.5703 34.3448 30.5703 32.7656C30.5703 31.1865 29.2901 29.9062 27.7109 29.9062C26.1318 29.9062 24.8516 31.1865 24.8516 32.7656ZM27.7109 34.125C26.9602 34.125 26.3516 33.5163 26.3516 32.7656C26.3516 32.0149 26.9602 31.4062 27.7109 31.4062C28.4617 31.4062 29.0703 32.0149 29.0703 32.7656C29.0703 33.5163 28.4617 34.125 27.7109 34.125Z" fill="#101828"/>
<path fill-rule="evenodd" clip-rule="evenodd" d="M13.6484 34.125C12.8977 34.125 12.2891 33.5163 12.2891 32.7656C12.2891 32.0149 12.8977 31.4062 13.6484 31.4062C14.3992 31.4062 15.0078 32.0149 15.0078 32.7656C15.0078 33.5163 14.3992 34.125 13.6484 34.125ZM10.7891 32.7656C10.7891 34.3448 12.0693 35.625 13.6484 35.625C15.2276 35.625 16.5078 34.3448 16.5078 32.7656C16.5078 31.1865 15.2276 29.9062 13.6484 29.9062C12.0693 29.9062 10.7891 31.1865 10.7891 32.7656Z" fill="#101828"/>
<path fill-rule="evenodd" clip-rule="evenodd" d="M12.2422 29.9062C11.4915 29.9062 10.8828 29.2976 10.8828 28.5469V27.1875H31.2266C31.6408 27.1875 31.9766 26.8517 31.9766 26.4375C31.9766 26.0233 31.6408 25.6875 31.2266 25.6875H10.1328C9.7186 25.6875 9.38281 26.0233 9.38281 26.4375V28.5469C9.38281 30.126 10.663 31.4062 12.2422 31.4062H31.2266C31.6408 31.4062 31.9766 31.0705 31.9766 30.6562C31.9766 30.242 31.6408 29.9062 31.2266 29.9062H12.2422Z" fill="#101828"/>
<path fill-rule="evenodd" clip-rule="evenodd" d="M7.97656 18C7.97656 18.4142 8.31235 18.75 8.72656 18.75H34.0391C34.4533 18.75 34.7891 18.4142 34.7891 18C34.7891 17.5858 34.4533 17.25 34.0391 17.25H8.72656C8.31235 17.25 7.97656 17.5858 7.97656 18Z" fill="#101828"/>
<path fill-rule="evenodd" clip-rule="evenodd" d="M8.67969 22.2188C8.67969 22.633 9.01547 22.9688 9.42969 22.9688H32.6328C33.047 22.9688 33.3828 22.633 33.3828 22.2188C33.3828 21.8045 33.047 21.4688 32.6328 21.4688H9.42969C9.01547 21.4688 8.67969 21.8045 8.67969 22.2188Z" fill="#101828"/>
<path fill-rule="evenodd" clip-rule="evenodd" d="M10.2561 27.1772C10.6647 27.1091 10.9407 26.7227 10.8726 26.3141L7.88511 8.38922C7.88511 8.38921 7.88511 8.38923 7.88511 8.38922C7.65537 7.01046 6.46233 5.99988 5.06462 5.99988H1.55469C1.14047 5.99988 0.804688 6.33567 0.804688 6.74988C0.804688 7.1641 1.14047 7.49988 1.55469 7.49988H5.06462C5.72915 7.49988 6.29631 7.98037 6.4055 8.63573L9.39302 26.5607C9.46111 26.9693 9.84753 27.2453 10.2561 27.1772Z" fill="#101828"/>
<path fill-rule="evenodd" clip-rule="evenodd" d="M15.4062 27.1875C15.8205 27.1875 16.1562 26.8517 16.1562 26.4375V13.7812C16.1562 13.367 15.8205 13.0312 15.4062 13.0312C14.992 13.0312 14.6562 13.367 14.6562 13.7812V26.4375C14.6562 26.8517 14.992 27.1875 15.4062 27.1875Z" fill="#101828"/>
<path fill-rule="evenodd" clip-rule="evenodd" d="M20.6797 27.1875C21.0939 27.1875 21.4297 26.8517 21.4297 26.4375V13.7812C21.4297 13.367 21.0939 13.0312 20.6797 13.0312C20.2655 13.0312 19.9297 13.367 19.9297 13.7812V26.4375C19.9297 26.8517 20.2655 27.1875 20.6797 27.1875Z" fill="#101828"/>
<path fill-rule="evenodd" clip-rule="evenodd" d="M9.39302 26.5608C9.4533 26.9224 9.76619 27.1875 10.1328 27.1875H31.2266C31.5494 27.1875 31.836 26.9809 31.9381 26.6747L36.1568 14.0184C36.2331 13.7897 36.1947 13.5383 36.0537 13.3427C35.9128 13.1471 35.6864 13.0312 35.4453 13.0312H32.6332C32.219 13.0312 31.8832 13.367 31.8832 13.7812C31.8832 14.1955 32.219 14.5312 32.6332 14.5312H34.4047L30.686 25.6875H10.7682L8.90879 14.5312H24.1949C24.6091 14.5312 24.9449 14.1955 24.9449 13.7812C24.9449 13.367 24.6091 13.0312 24.1949 13.0312H8.02344C7.80298 13.0312 7.59368 13.1283 7.45118 13.2965C7.30868 13.4647 7.2474 13.6871 7.28365 13.9045L9.39302 26.5608Z" fill="#101828"/>
<path fill-rule="evenodd" clip-rule="evenodd" d="M25.9531 27.1875C26.3673 27.1875 26.7031 26.8517 26.7031 26.4375V14.7443C26.7031 14.3301 26.3673 13.9943 25.9531 13.9943C25.5389 13.9943 25.2031 14.3301 25.2031 14.7443V26.4375C25.2031 26.8517 25.5389 27.1875 25.9531 27.1875Z" fill="#101828"/>
<path d="M28.4141 15.9375C24.1166 15.9375 20.6328 12.4538 20.6328 8.15625C20.6328 3.85875 24.1166 0.375 28.4141 0.375C32.7116 0.375 36.1953 3.85875 36.1953 8.15625C36.1953 12.4538 32.7116 15.9375 28.4141 15.9375Z" fill="#009640"/>
<path fill-rule="evenodd" clip-rule="evenodd" d="M26.8891 11.0264C27.182 11.3193 27.6569 11.3193 27.9498 11.0264L31.9273 7.04899C32.2202 6.7561 32.2202 6.28123 31.9273 5.98833C31.6344 5.69544 31.1595 5.69543 30.8666 5.98832L27.4194 9.43545L25.961 7.97704C25.6681 7.68415 25.1932 7.68416 24.9003 7.97705C24.6074 8.26995 24.6074 8.74483 24.9003 9.03771L26.8891 11.0264Z" fill="white"/>
</g>
<defs>
<clipPath id="clip0_1074_30653">
<rect width="36" height="36" fill="white" transform="translate(0.5)"/>
</clipPath>
</defs>
</svg>
