<svg width="64" height="64" viewBox="0 0 64 64" fill="none" xmlns="http://www.w3.org/2000/svg">
<path d="M5.7105 12.375H58.2895C60.399 12.375 62.125 14.101 62.125 16.2105V47.7895C62.125 49.899 60.399 51.625 58.2895 51.625H5.7105C3.601 51.625 1.875 49.899 1.875 47.7895V16.2105C1.875 14.101 3.601 12.375 5.7105 12.375Z" stroke="#98A2B3" stroke-width="3" stroke-miterlimit="22.926" stroke-linecap="round" stroke-linejoin="round"/>
<path d="M44.1875 45.375V50.75" stroke="#98A2B3" stroke-width="3" stroke-miterlimit="22.926" stroke-linecap="round" stroke-linejoin="round"/>
<path d="M44.1875 12.375V24.375" stroke="#98A2B3" stroke-width="3" stroke-miterlimit="22.926" stroke-linecap="round" stroke-linejoin="round"/>
<path d="M33.625 34.8751H3.375" stroke="#98A2B3" stroke-width="3" stroke-miterlimit="22.926" stroke-linecap="round" stroke-linejoin="round"/>
<path d="M60.2262 34.8751H54.75" stroke="#98A2B3" stroke-width="3" stroke-miterlimit="22.926" stroke-linecap="round" stroke-linejoin="round"/>
<path d="M9.375 19.8751H26.375" stroke="#98A2B3" stroke-width="3" stroke-miterlimit="22.926" stroke-linecap="round" stroke-linejoin="round"/>
<path d="M9.375 27.3751H19.125" stroke="#98A2B3" stroke-width="3" stroke-miterlimit="22.926" stroke-linecap="round" stroke-linejoin="round"/>
<path d="M44.1876 24.6245C45.6666 24.6698 46.1983 26.9386 47.5653 27.5049C48.7853 28.0103 50.6192 26.7011 51.5237 27.6633C52.5374 28.7413 51.3092 30.7214 51.8754 32.0885C52.3808 33.3085 54.6031 33.6795 54.5626 34.9995C54.5171 36.4785 52.2483 37.0103 51.6822 38.3771C51.1768 39.5973 52.4858 41.431 51.5237 42.3356C50.4458 43.3494 48.4656 42.1211 47.0986 42.6874C45.8786 43.1928 45.5074 45.415 44.1876 45.3745C42.7086 45.329 42.1768 43.0603 40.8098 42.494C39.5898 41.9886 37.7559 43.2978 36.8513 42.3356C35.8377 41.2576 37.0659 39.2775 36.4997 37.9104C35.9943 36.6904 33.7719 36.3194 33.8126 34.9995C33.8579 33.5205 36.1267 32.9888 36.6929 31.6218C37.1983 30.4018 35.8893 28.5679 36.8513 27.6633C37.9293 26.6496 39.9094 27.8778 41.2766 27.3115C42.4966 26.8063 42.8677 24.584 44.1876 24.6245Z" fill="#009640" stroke="#009640" stroke-width="3" stroke-miterlimit="22.926" stroke-linecap="round" stroke-linejoin="round"/>
</svg>
