<svg width="48" height="48" viewBox="0 0 64 64" fill="none" xmlns="http://www.w3.org/2000/svg"><path fill-rule="evenodd" clip-rule="evenodd" d="M.375 47.79a5.347 5.347 0 0 0 5.335 5.335h52.58a5.347 5.347 0 0 0 5.335-5.336V16.21a5.347 5.347 0 0 0-5.336-5.335H5.711A5.347 5.347 0 0 0 .375 16.21v31.58Zm5.335 2.335a2.347 2.347 0 0 1-2.335-2.336V16.21a2.347 2.347 0 0 1 2.335-2.335h52.58a2.347 2.347 0 0 1 2.335 2.335v31.58a2.347 2.347 0 0 1-2.336 2.335H5.711Z" fill="#344054"/><path fill-rule="evenodd" clip-rule="evenodd" d="M44.188 52.25a1.5 1.5 0 0 0 1.5-1.5v-5.375a1.5 1.5 0 0 0-3 0v5.375a1.5 1.5 0 0 0 1.5 1.5Zm0-26.375a1.5 1.5 0 0 0 1.5-1.5v-12a1.5 1.5 0 0 0-3 0v12a1.5 1.5 0 0 0 1.5 1.5Zm-42.313 9a1.5 1.5 0 0 0 1.5 1.5h30.25a1.5 1.5 0 0 0 0-3H3.375a1.5 1.5 0 0 0-1.5 1.5Zm51.375 0a1.5 1.5 0 0 0 1.5 1.5h5.476a1.5 1.5 0 1 0 0-3H54.75a1.5 1.5 0 0 0-1.5 1.5Zm-45.375-15a1.5 1.5 0 0 0 1.5 1.5h17a1.5 1.5 0 0 0 0-3h-17a1.5 1.5 0 0 0-1.5 1.5Zm0 7.5a1.5 1.5 0 0 0 1.5 1.5h9.75a1.5 1.5 0 0 0 0-3h-9.75a1.5 1.5 0 0 0-1.5 1.5Z" fill="#344054"/><path d="M44.188 24.625c1.48.045 2.01 2.314 3.378 2.88 1.22.505 3.054-.804 3.958.158 1.014 1.078-.214 3.058.352 4.426.505 1.22 2.728 1.59 2.687 2.91-.045 1.48-2.314 2.011-2.88 3.378-.506 1.22.803 3.054-.159 3.959-1.078 1.014-3.058-.215-4.425.352-1.22.505-1.591 2.727-2.91 2.687-1.48-.046-2.012-2.315-3.379-2.88-1.22-.506-3.054.803-3.958-.16-1.014-1.077.214-3.057-.352-4.425-.505-1.22-2.728-1.59-2.687-2.91.045-1.48 2.314-2.011 2.88-3.378.506-1.22-.803-3.054.159-3.959 1.078-1.013 3.058.215 4.425-.351 1.22-.506 1.591-2.728 2.911-2.687Z" fill="url(#a)" stroke="url(#b)" stroke-width="3" stroke-miterlimit="22.926" stroke-linecap="round" stroke-linejoin="round"/><defs><linearGradient id="a" x1="44.188" y1="24.624" x2="44.188" y2="45.375" gradientUnits="userSpaceOnUse"><stop stop-color="#16B364"/><stop offset="1" stop-color="#CDE762"/></linearGradient><linearGradient id="b" x1="44.188" y1="24.624" x2="44.188" y2="45.375" gradientUnits="userSpaceOnUse"><stop stop-color="#16B364"/><stop offset="1" stop-color="#CDE762"/></linearGradient></defs></svg>