<svg width="48" height="48" viewBox="0 0 64 64" fill="none" xmlns="http://www.w3.org/2000/svg"><g clip-path="url(#a)"><path fill-rule="evenodd" clip-rule="evenodd" d="M.375 58.375c0 2.9 2.35 5.25 5.25 5.25h52.75c2.9 0 5.25-2.35 5.25-5.25V5.625c0-2.9-2.35-5.25-5.25-5.25H5.625a5.25 5.25 0 0 0-5.25 5.25v52.75Zm5.25 2.25a2.25 2.25 0 0 1-2.25-2.25V5.625a2.25 2.25 0 0 1 2.25-2.25h52.75a2.25 2.25 0 0 1 2.25 2.25v52.75a2.25 2.25 0 0 1-2.25 2.25H5.625Z" fill="#344054"/><path fill-rule="evenodd" clip-rule="evenodd" d="M.375 16.875a1.5 1.5 0 0 0 1.5 1.5h60.25a1.5 1.5 0 0 0 0-3H1.875a1.5 1.5 0 0 0-1.5 1.5Z" fill="#344054"/><path d="M15.125 9.375a1.875 1.875 0 1 1-3.75 0 1.875 1.875 0 0 1 3.75 0Z" fill="#344054"/><path fill-rule="evenodd" clip-rule="evenodd" d="M12.125 9.375a1.125 1.125 0 1 1 2.25 0 1.125 1.125 0 0 1-2.25 0Zm1.125 1.875a1.875 1.875 0 1 0 0-3.75 1.875 1.875 0 0 0 0 3.75Z" fill="#344054"/><path d="M22.625 9.375a1.875 1.875 0 1 1-3.75 0 1.875 1.875 0 0 1 3.75 0Z" fill="#344054"/><path fill-rule="evenodd" clip-rule="evenodd" d="M19.625 9.375a1.125 1.125 0 1 1 2.25 0 1.125 1.125 0 0 1-2.25 0Zm1.125 1.875a1.875 1.875 0 1 0 0-3.75 1.875 1.875 0 0 0 0 3.75Z" fill="#344054"/><path d="M30.125 9.375a1.875 1.875 0 1 1-3.75 0 1.875 1.875 0 0 1 3.75 0Z" fill="#344054"/><path fill-rule="evenodd" clip-rule="evenodd" d="M27.125 9.375a1.125 1.125 0 1 1 2.25 0 1.125 1.125 0 0 1-2.25 0Zm1.125 1.875a1.875 1.875 0 1 0 0-3.75 1.875 1.875 0 0 0 0 3.75Z" fill="#344054"/><path d="M50.875 35.75H13.25V24.375h37.625V35.75Z" fill="url(#b)"/><path fill-rule="evenodd" clip-rule="evenodd" d="M11.75 35.75a1.5 1.5 0 0 0 1.5 1.5h37.625a1.5 1.5 0 0 0 1.5-1.5V24.375a1.5 1.5 0 0 0-1.5-1.5H13.25a1.5 1.5 0 0 0-1.5 1.5V35.75Zm3-1.5v-8.375h34.625v8.375H14.75Z" fill="url(#c)"/><path d="M32 54.625H13.25V43.25H32v11.375Z" fill="url(#d)"/><path fill-rule="evenodd" clip-rule="evenodd" d="M11.75 54.625a1.5 1.5 0 0 0 1.5 1.5H32a1.5 1.5 0 0 0 1.5-1.5V43.25a1.5 1.5 0 0 0-1.5-1.5H13.25a1.5 1.5 0 0 0-1.5 1.5v11.375Zm3-1.5V44.75H30.5v8.375H14.75Z" fill="url(#e)"/><path d="M50.875 54.625H39.5V43.25h11.375v11.375Z" fill="url(#f)"/><path fill-rule="evenodd" clip-rule="evenodd" d="M38 54.625a1.5 1.5 0 0 0 1.5 1.5h11.375a1.5 1.5 0 0 0 1.5-1.5V43.25a1.5 1.5 0 0 0-1.5-1.5H39.5a1.5 1.5 0 0 0-1.5 1.5v11.375Zm3-1.5V44.75h8.375v8.375H41Z" fill="url(#g)"/></g><defs><linearGradient id="b" x1="32.063" y1="35.75" x2="32.063" y2="24.375" gradientUnits="userSpaceOnUse"><stop stop-color="#16B364"/><stop offset="1" stop-color="#CDE762"/></linearGradient><linearGradient id="c" x1="32.063" y1="37.25" x2="32.063" y2="22.875" gradientUnits="userSpaceOnUse"><stop stop-color="#16B364"/><stop offset="1" stop-color="#CDE762"/></linearGradient><linearGradient id="d" x1="22.625" y1="54.625" x2="22.625" y2="43.25" gradientUnits="userSpaceOnUse"><stop stop-color="#16B364"/><stop offset="1" stop-color="#CDE762"/></linearGradient><linearGradient id="e" x1="22.625" y1="56.125" x2="22.625" y2="41.75" gradientUnits="userSpaceOnUse"><stop stop-color="#16B364"/><stop offset="1" stop-color="#CDE762"/></linearGradient><linearGradient id="f" x1="45.188" y1="54.625" x2="45.188" y2="43.25" gradientUnits="userSpaceOnUse"><stop stop-color="#16B364"/><stop offset="1" stop-color="#CDE762"/></linearGradient><linearGradient id="g" x1="45.188" y1="56.125" x2="45.188" y2="41.75" gradientUnits="userSpaceOnUse"><stop stop-color="#16B364"/><stop offset="1" stop-color="#CDE762"/></linearGradient><clipPath id="a"><path fill="#fff" d="M0 0h64v64H0z"/></clipPath></defs></svg>