<svg  width="currentWidth" height="currentHeight" viewBox="0 0 64 64" fill="none" xmlns="http://www.w3.org/2000/svg">
  <g clip-path="url(#a)" stroke-width="3">
    <path d="M58.375 62.125H5.625a3.75 3.75 0 0 1-3.75-3.75V5.625a3.75 3.75 0 0 1 3.75-3.75h52.75a3.75 3.75 0 0 1 3.75 3.75v52.75a3.75 3.75 0 0 1-3.75 3.75Zm-56.5-45.25h60.25" stroke="#98A2B3" stroke-miterlimit="10" stroke-linecap="round" stroke-linejoin="round"/>
    <path d="M13.25 9.75a.375.375 0 1 0 0-.75.375.375 0 0 0 0 .75Zm7.5 0a.375.375 0 1 0 0-.75.375.375 0 0 0 0 .75Zm7.5 0a.375.375 0 1 0 0-.75.375.375 0 0 0 0 .75Z" fill="#98A2B3" stroke="#98A2B3"/>
    <path d="M50.875 35.75H13.25V24.375h37.625V35.75ZM32 54.625H13.25V43.25H32v11.375Zm18.875 0H39.5V43.25h11.375v11.375Z" fill="#009640" stroke="#009640" stroke-miterlimit="10" stroke-linecap="round" stroke-linejoin="round"/>
  </g>
  <defs>
    <clipPath id="a">
      <path fill="#fff" d="M0 0h64v64H0z"/>
    </clipPath>
  </defs>
</svg>
