<svg width="48" height="48" viewBox="0 0 48 48" fill="none" xmlns="http://www.w3.org/2000/svg"><g clip-path="url(#a)"><path fill-rule="evenodd" clip-rule="evenodd" d="M23.814 47.383a1 1 0 0 0 .678 0l17.79-6.407a1 1 0 0 0 .66-.94v-11.84a1 1 0 1 0-2 0v11.135L24.154 45.38l-16.79-6.048V28.345a1 1 0 1 0-2 0v11.69a1 1 0 0 0 .661.941zM5.424 18.085a1 1 0 0 0 1.282.597l10.523-3.834a1 1 0 0 0-.684-1.879L6.02 16.803a1 1 0 0 0-.597 1.282m37.15.011a1 1 0 0 0-.583-1.289L31.588 12.88a1 1 0 1 0-.707 1.87l10.403 3.93a1 1 0 0 0 1.288-.583" fill="#101828"/><path fill-rule="evenodd" clip-rule="evenodd" d="M18.54 34.118a1 1 0 0 0 1.227-.43l5.23-9.004a1 1 0 0 0-.523-1.442l-17.77-6.44a1 1 0 0 0-1.208.444L.539 25.897a1 1 0 0 0 .505 1.43zM2.853 25.883l3.961-6.914 15.854 5.745-4.2 7.23z" fill="#101828"/><path fill-rule="evenodd" clip-rule="evenodd" d="M24.133 47.443a1 1 0 0 0 1-1V28.067l3.089 5.602a1 1 0 0 0 1.237.45l17.496-6.792a1 1 0 0 0 .506-1.43l-4.957-8.651a1 1 0 0 0-1.213-.442l-17.503 6.44a1 1 0 0 0-.655.938v22.26a1 1 0 0 0 1 1m1.438-22.725 15.618-5.745 3.959 6.91-15.597 6.054z" fill="#101828"/><path d="M24 19.049A9.246 9.246 0 0 1 24 .557a9.246 9.246 0 0 1 0 18.492" fill="url(#b)"/><path fill-rule="evenodd" clip-rule="evenodd" d="M22.08 12.781a1 1 0 0 0 1.415 0l4.26-4.26a1 1 0 1 0-1.415-1.414l-3.552 3.553-1.08-1.08a1 1 0 1 0-1.415 1.414z" fill="#fff"/></g><defs><linearGradient id="b" x1="24" y1=".557" x2="24" y2="19.049" gradientUnits="userSpaceOnUse"><stop stop-color="#16B364"/><stop offset="1" stop-color="#CDE762"/></linearGradient><clipPath id="a"><path fill="#fff" d="M0 0h48v48H0z"/></clipPath></defs></svg>