<svg width="36" height="36" viewBox="0 0 36 36" fill="none" xmlns="http://www.w3.org/2000/svg">
<g clip-path="url(#clip0_1141_28570)">
<path fill-rule="evenodd" clip-rule="evenodd" d="M17.8606 35.5377C18.0249 35.5968 18.2046 35.5968 18.3689 35.5377L31.7113 30.7321C32.0088 30.6249 32.2071 30.3427 32.2071 30.0265V21.148C32.2071 20.7338 31.8713 20.398 31.4571 20.398C31.0429 20.398 30.7071 20.7338 30.7071 21.148V29.4994L18.1148 34.0349L5.52246 29.4994V21.2588C5.52246 20.8446 5.18667 20.5088 4.77246 20.5088C4.35825 20.5088 4.02246 20.8446 4.02246 21.2588V30.0265C4.02246 30.3427 4.2208 30.6249 4.51831 30.7321L17.8606 35.5377Z" fill="#101828"/>
<path fill-rule="evenodd" clip-rule="evenodd" d="M4.06798 13.5637C4.20977 13.9529 4.64022 14.1534 5.0294 14.0116L12.922 11.1361C13.3112 10.9943 13.5117 10.5639 13.3699 10.1747C13.2281 9.7855 12.7977 9.58494 12.4085 9.72674L4.51593 12.6022C4.12674 12.744 3.92618 13.1745 4.06798 13.5637Z" fill="#101828"/>
<path fill-rule="evenodd" clip-rule="evenodd" d="M31.9294 13.5719C32.0757 13.1844 31.8802 12.7516 31.4927 12.6053L23.691 9.65899C23.3035 9.51265 22.8707 9.70815 22.7243 10.0957C22.578 10.4832 22.7735 10.9159 23.161 11.0623L30.9627 14.0086C31.3503 14.1549 31.783 13.9594 31.9294 13.5719Z" fill="#101828"/>
<path fill-rule="evenodd" clip-rule="evenodd" d="M13.9055 25.5887C14.2497 25.7223 14.64 25.5855 14.8254 25.2663L18.7483 18.513C18.8599 18.3208 18.8806 18.089 18.8047 17.8802C18.7288 17.6713 18.5642 17.5068 18.3553 17.4311L5.02805 12.6018C4.68535 12.4776 4.30299 12.6178 4.12178 12.934L0.403936 19.4229C0.29532 19.6125 0.274767 19.84 0.347651 20.046C0.420535 20.2519 0.579609 20.4159 0.783285 20.4949L13.9055 25.5887ZM2.13889 19.4121L5.10983 14.2268L17.0004 18.5356L13.8505 23.9583L2.13889 19.4121Z" fill="#101828"/>
<path fill-rule="evenodd" clip-rule="evenodd" d="M18.0996 35.582C18.5138 35.582 18.8496 35.2462 18.8496 34.832V21.0501L21.1661 25.2518C21.3475 25.5807 21.7442 25.7248 22.0943 25.5889L35.2166 20.4951C35.4202 20.416 35.5793 20.2521 35.6522 20.0461C35.7251 19.8401 35.7045 19.6126 35.5959 19.4231L31.8781 12.9342C31.6962 12.6167 31.3118 12.4769 30.9684 12.6032L17.8407 17.4325C17.5456 17.541 17.3496 17.822 17.3496 18.1364V34.832C17.3496 35.2462 17.6854 35.582 18.0996 35.582ZM19.1779 18.5389L30.8916 14.2297L33.861 19.4123L22.163 23.9532L19.1779 18.5389Z" fill="#101828"/>
<path d="M17.9996 14.2865C14.17 14.2865 11.0654 11.1819 11.0654 7.35223C11.0654 3.5226 14.17 0.417969 17.9996 0.417969C21.8293 0.417969 24.9339 3.5226 24.9339 7.35223C24.9339 11.1819 21.8293 14.2865 17.9996 14.2865Z" fill="#009640"/>
<path fill-rule="evenodd" clip-rule="evenodd" d="M16.5604 9.58576C16.8533 9.87864 17.3282 9.87864 17.621 9.58575L20.8159 6.39089C21.1088 6.098 21.1088 5.62312 20.8159 5.33023C20.523 5.03734 20.0481 5.03734 19.7552 5.33023L17.0907 7.99477L16.2803 7.18443C15.9874 6.89154 15.5125 6.89155 15.2197 7.18446C14.9268 7.47736 14.9268 7.95223 15.2197 8.24512L16.5604 9.58576Z" fill="white"/>
</g>
<defs>
<clipPath id="clip0_1141_28570">
<rect width="36" height="36" fill="white"/>
</clipPath>
</defs>
</svg>
