<svg width="40" height="40" viewBox="0 0 40 40" fill="none" xmlns="http://www.w3.org/2000/svg">
<g clip-path="url(#clip0_853_41954)">
<path d="M20 14.5313C18.2741 14.5313 16.875 15.9303 16.875 17.6563V19.2188C16.875 20.9447 18.2741 22.3438 20 22.3438C21.7259 22.3438 23.125 20.9447 23.125 19.2188V17.6563C23.125 15.9303 21.7259 14.5313 20 14.5313Z" fill="#009640" stroke="#009640" stroke-width="2" stroke-miterlimit="10" stroke-linecap="round" stroke-linejoin="round"/>
<path d="M26.25 27.0313V27.9943L20 29.9999L13.75 27.9943V27.0313C13.75 24.4424 15.8487 22.3438 18.4375 22.3438H21.5625C24.1513 22.3438 26.25 24.4424 26.25 27.0313Z" fill="#009640" stroke="#009640" stroke-width="2" stroke-miterlimit="10" stroke-linecap="round" stroke-linejoin="round"/>
<path d="M30.1562 20C30.1562 25.6091 25.6091 30.1562 20 30.1562C14.3909 30.1562 9.84375 25.6091 9.84375 20C9.84375 14.3909 14.3909 9.84375 20 9.84375C25.6091 9.84375 30.1562 14.3909 30.1562 20Z" stroke="#101828" stroke-width="2" stroke-miterlimit="10" stroke-linecap="round" stroke-linejoin="round"/>
<path d="M33.7588 12.6203L37.1823 11.9527L38.6309 16.4109L35.4688 17.883L35.4653 17.8846C35.5594 18.5782 35.625 19.2806 35.625 20C35.625 20.7194 35.5594 21.4218 35.4653 22.1153L35.4688 22.117L38.6309 23.5891L37.1823 28.0473L33.7588 27.3797L33.7709 27.382C33.0962 28.6379 32.2487 29.7843 31.2701 30.8048L31.2702 30.805L32.963 33.8547L29.1707 36.6098L26.7934 34.0575L26.7914 34.0553C25.5332 34.6645 24.1853 35.112 22.7667 35.3659L22.3438 38.8281H17.6563L17.2332 35.3659C15.8146 35.112 14.4668 34.6645 13.2086 34.0553L13.2065 34.0575L10.8292 36.6098L7.03695 33.8547L8.72977 30.805L8.72992 30.8048C7.75133 29.7843 6.90375 28.6379 6.22914 27.382L6.2411 27.3797L2.81766 28.0473L1.36914 23.5891L4.53117 22.117L4.53469 22.1153C4.44055 21.4218 4.375 20.7194 4.375 20C4.375 19.2806 4.44055 18.5782 4.53469 17.8847L4.53117 17.883L1.36914 16.4109L2.81766 11.9527L6.2411 12.6203L6.22914 12.6181C6.90375 11.3621 7.75133 10.2157 8.72984 9.19516L8.72977 9.195L7.03695 6.14532L10.8292 3.39016L13.2065 5.94243L13.2085 5.94469C14.4667 5.33547 15.8146 4.88797 17.2332 4.63407L17.6563 1.17188H22.3438L22.7667 4.63407C24.1853 4.88797 25.5332 5.33547 26.7913 5.94469L26.7934 5.94243L29.1707 3.39016L32.963 6.14532L31.2702 9.195L31.2701 9.19516C32.2487 10.2157 33.0962 11.3621 33.7709 12.6181L33.7588 12.6203Z" stroke="#101828" stroke-width="2" stroke-miterlimit="10" stroke-linecap="round" stroke-linejoin="round"/>
</g>
<defs>
<clipPath id="clip0_853_41954">
<rect width="40" height="40" fill="white"/>
</clipPath>
</defs>
</svg>
