<svg width="48" height="48" viewBox="0 0 48 48" fill="none" xmlns="http://www.w3.org/2000/svg"><g clip-path="url(#a)"><path fill-rule="evenodd" clip-rule="evenodd" d="M35.088 38.444a5.688 5.688 0 1 1 8.011 0 6.63 6.63 0 0 1 4.495 6.275v1.875a1 1 0 0 1-1 1h-15a1 1 0 0 1-1-1v-1.875a6.63 6.63 0 0 1 4.494-6.275m2.13 1.65a4.625 4.625 0 0 0-4.624 4.625v.875h13v-.875a4.625 4.625 0 0 0-4.625-4.625zm1.876-2a3.687 3.687 0 1 0 0-7.375 3.687 3.687 0 0 0 0 7.375M28.637 30.44a1 1 0 0 0 .582-.909v-4.625H43.78a3.813 3.813 0 0 0 3.813-3.812V9.844A3.813 3.813 0 0 0 43.78 6.03H18.47a3.813 3.813 0 0 0-3.813 3.813v11.25a3.813 3.813 0 0 0 3.813 3.812h2.817l6.282 5.385a1 1 0 0 0 1.069.149m-1.418-3.083-4.912-4.21a1 1 0 0 0-.65-.24H18.47a1.813 1.813 0 0 1-1.813-1.813V9.844c0-1.001.812-1.813 1.813-1.813h25.31c1.001 0 1.813.812 1.813 1.813v11.25a1.813 1.813 0 0 1-1.813 1.812H28.22a1 1 0 0 0-1 1z" fill="#101828"/><path d="M10.781 39.094h-3.75a5.625 5.625 0 0 0-5.625 5.625v1.875h15v-1.875a5.625 5.625 0 0 0-5.625-5.625" fill="url(#b)"/><path fill-rule="evenodd" clip-rule="evenodd" d="M.406 46.594a1 1 0 0 0 1 1h15a1 1 0 0 0 1-1v-1.875a6.625 6.625 0 0 0-6.625-6.625h-3.75a6.625 6.625 0 0 0-6.625 6.625zm2-1v-.875a4.625 4.625 0 0 1 4.625-4.625h3.75a4.625 4.625 0 0 1 4.625 4.625v.875z" fill="url(#c)"/><path d="M13.594 34.406a4.687 4.687 0 1 1-9.375 0 4.687 4.687 0 0 1 9.375 0" fill="url(#d)"/><path fill-rule="evenodd" clip-rule="evenodd" d="M3.219 34.406a5.688 5.688 0 1 0 11.375 0 5.688 5.688 0 0 0-11.375 0m5.687 3.688a3.688 3.688 0 1 1 0-7.375 3.688 3.688 0 0 1 0 7.375" fill="url(#e)"/><path d="M5.526 24.666a1 1 0 0 1-1.651-.76v-4.65A3.813 3.813 0 0 1 .5 15.47V4.219A3.813 3.813 0 0 1 4.313.406h25.312a3.813 3.813 0 0 1 3.813 3.813v11.25a3.813 3.813 0 0 1-3.813 3.812H11.807z" fill="url(#f)"/></g><defs><linearGradient id="b" x1="8.906" y1="46.594" x2="8.906" y2="39.094" gradientUnits="userSpaceOnUse"><stop stop-color="#16B364"/><stop offset="1" stop-color="#CDE762"/></linearGradient><linearGradient id="c" x1="8.906" y1="47.594" x2="8.906" y2="38.094" gradientUnits="userSpaceOnUse"><stop stop-color="#16B364"/><stop offset="1" stop-color="#CDE762"/></linearGradient><linearGradient id="d" x1="8.906" y1="39.094" x2="8.906" y2="29.719" gradientUnits="userSpaceOnUse"><stop stop-color="#16B364"/><stop offset="1" stop-color="#CDE762"/></linearGradient><linearGradient id="e" x1="8.906" y1="40.094" x2="8.906" y2="28.719" gradientUnits="userSpaceOnUse"><stop stop-color="#16B364"/><stop offset="1" stop-color="#CDE762"/></linearGradient><linearGradient id="f" x1="16.969" y1=".406" x2="16.969" y2="24.906" gradientUnits="userSpaceOnUse"><stop stop-color="#16B364"/><stop offset="1" stop-color="#CDE762"/></linearGradient><clipPath id="a"><path fill="#fff" d="M0 0h48v48H0z"/></clipPath></defs></svg>