<svg width="48" height="48" viewBox="0 0 48 48" fill="none" xmlns="http://www.w3.org/2000/svg">
<g clip-path="url(#clip0_1317_32329)">
<path d="M40.9687 39.0938H37.2187C34.1122 39.0938 31.5938 41.6122 31.5938 44.7188V46.5938H46.5937V44.7188C46.5937 41.6122 44.0753 39.0938 40.9687 39.0938Z" stroke="#101828" stroke-width="2" stroke-miterlimit="10" stroke-linecap="round" stroke-linejoin="round"/>
<path d="M43.7812 34.4063C43.7812 36.9951 41.6826 39.0938 39.0937 39.0938C36.5049 39.0938 34.4062 36.9951 34.4062 34.4063C34.4062 31.8174 36.5049 29.7188 39.0937 29.7188C41.6826 29.7188 43.7812 31.8174 43.7812 34.4063Z" stroke="#101828" stroke-width="2" stroke-miterlimit="10" stroke-linecap="round" stroke-linejoin="round"/>
<path d="M46.5938 9.84375V21.0938C46.5938 22.647 45.3345 23.9062 43.7812 23.9062H28.2188V29.5312L21.6562 23.9062H18.4688C16.9155 23.9062 15.6562 22.647 15.6562 21.0938V9.84375C15.6562 8.2905 16.9155 7.03125 18.4688 7.03125H43.7812C45.3345 7.03125 46.5938 8.2905 46.5938 9.84375Z" stroke="#101828" stroke-width="2" stroke-miterlimit="10" stroke-linecap="round" stroke-linejoin="round"/>
<path d="M10.7812 39.0938H7.03125C3.92466 39.0938 1.40625 41.6122 1.40625 44.7188V46.5938H16.4062V44.7188C16.4062 41.6122 13.8878 39.0938 10.7812 39.0938Z" fill="#009640" stroke="#009640" stroke-width="2" stroke-miterlimit="10" stroke-linecap="round" stroke-linejoin="round"/>
<path d="M13.5937 34.4063C13.5937 36.9951 11.4951 39.0938 8.90625 39.0938C6.31744 39.0938 4.21875 36.9951 4.21875 34.4063C4.21875 31.8174 6.31744 29.7188 8.90625 29.7188C11.4951 29.7188 13.5937 31.8174 13.5937 34.4063Z" fill="#009640" stroke="#009640" stroke-width="2" stroke-miterlimit="10" stroke-linecap="round" stroke-linejoin="round"/>
<path d="M1.5 4.21875V15.4688C1.5 17.022 2.75925 18.2812 4.3125 18.2812H4.875V23.9062L11.4375 18.2812H29.625C31.1782 18.2812 32.4375 17.022 32.4375 15.4688V4.21875C32.4375 2.6655 31.1782 1.40625 29.625 1.40625H4.3125C2.75925 1.40625 1.5 2.6655 1.5 4.21875Z" fill="#009640" stroke="#009640" stroke-width="2" stroke-miterlimit="10" stroke-linecap="round" stroke-linejoin="round"/>
</g>
<defs>
<clipPath id="clip0_1317_32329">
<rect width="48" height="48" fill="white"/>
</clipPath>
</defs>
</svg>
