<svg width="37" height="36" viewBox="0 0 37 36" fill="none" xmlns="http://www.w3.org/2000/svg">
<g clip-path="url(#clip0_1074_30656)">
<path fill-rule="evenodd" clip-rule="evenodd" d="M0.804688 30.7266C0.804688 31.1408 1.14047 31.4766 1.55469 31.4766H35.4453C35.8595 31.4766 36.1953 31.1408 36.1953 30.7266V8.12953C36.1953 7.71532 35.8595 7.37953 35.4453 7.37953H27.7686C27.3544 7.37953 27.0186 7.71532 27.0186 8.12953C27.0186 8.54375 27.3544 8.87953 27.7686 8.87953H34.6953V29.9766H2.30469V8.87953H9.23141C9.64562 8.87953 9.98141 8.54375 9.98141 8.12953C9.98141 7.71532 9.64562 7.37953 9.23141 7.37953H1.55469C1.14047 7.37953 0.804688 7.71532 0.804688 8.12953V30.7266Z" fill="#101828"/>
<path fill-rule="evenodd" clip-rule="evenodd" d="M14.293 34.9453C14.293 35.3595 14.6288 35.6953 15.043 35.6953H21.957C22.3712 35.6953 22.707 35.3595 22.707 34.9453V30.7266C22.707 30.3123 22.3712 29.9766 21.957 29.9766H15.043C14.6288 29.9766 14.293 30.3123 14.293 30.7266V34.9453ZM15.793 34.1953V31.4766H21.207V34.1953H15.793Z" fill="#101828"/>
<path fill-rule="evenodd" clip-rule="evenodd" d="M9.10156 34.9453C9.10156 35.3595 9.43735 35.6953 9.85156 35.6953H18.4999C18.9141 35.6953 19.2499 35.3595 19.2499 34.9453C19.2499 34.5311 18.9141 34.1953 18.4999 34.1953H9.85156C9.43735 34.1953 9.10156 34.5311 9.10156 34.9453Z" fill="#101828"/>
<path fill-rule="evenodd" clip-rule="evenodd" d="M17.75 34.9453C17.75 35.3595 18.0858 35.6953 18.5 35.6953H27.1483C27.5625 35.6953 27.8983 35.3595 27.8983 34.9453C27.8983 34.5311 27.5625 34.1953 27.1483 34.1953H18.5C18.0858 34.1953 17.75 34.5311 17.75 34.9453Z" fill="#101828"/>
<path d="M27.7686 1.0547V16.6514H24.1383C23.4685 16.6514 22.8361 16.9605 22.4245 17.489L18.5 22.5295L14.5756 17.489C14.1641 16.9605 13.5317 16.6514 12.8618 16.6514H9.23145V1.0547H27.7686Z" fill="#009640"/>
<path fill-rule="evenodd" clip-rule="evenodd" d="M18.5 23.2795C18.7313 23.2795 18.9497 23.1728 19.0918 22.9903L23.0163 17.9498C23.2857 17.6038 23.6998 17.4014 24.1383 17.4014H27.7686C28.1828 17.4014 28.5186 17.0656 28.5186 16.6514V1.0547C28.5186 0.640482 28.1828 0.304697 27.7686 0.304697H9.23145C8.81723 0.304697 8.48145 0.640482 8.48145 1.0547V16.6514C8.48145 17.0656 8.81723 17.4014 9.23145 17.4014H12.8618C13.3004 17.4014 13.7144 17.6038 13.9838 17.9498C13.9838 17.9498 13.9838 17.9498 13.9839 17.9498L17.9083 22.9903C18.0504 23.1728 18.2687 23.2795 18.5 23.2795ZM18.5 21.3087L15.1674 17.0283L15.1674 17.0283C14.6137 16.3172 13.763 15.9014 12.8618 15.9014H9.98145V1.8047H27.0186V15.9014H24.1383C23.2372 15.9014 22.3864 16.3172 21.8328 17.0283L21.8328 17.0283L18.5 21.3087Z" fill="#009640"/>
<path fill-rule="evenodd" clip-rule="evenodd" d="M12.3613 12.8418C12.3613 13.256 12.6971 13.5918 13.1113 13.5918H23.8892C24.3035 13.5918 24.6392 13.256 24.6392 12.8418C24.6392 12.4276 24.3035 12.0918 23.8892 12.0918H13.1113C12.6971 12.0918 12.3613 12.4276 12.3613 12.8418Z" fill="white"/>
<path d="M22.7908 12.8418V10.8858C22.7908 8.5161 20.8698 6.59509 18.5001 6.59509C16.1303 6.59509 14.2095 8.5161 14.2095 10.8858V12.8418" fill="white"/>
<path fill-rule="evenodd" clip-rule="evenodd" d="M14.2095 13.5918C14.6237 13.5918 14.9595 13.256 14.9595 12.8418V10.8858C14.9595 8.93028 16.5446 7.34509 18.5001 7.34509C20.4556 7.34509 22.0408 8.9303 22.0408 10.8858V12.8418C22.0408 13.256 22.3765 13.5918 22.7908 13.5918C23.205 13.5918 23.5408 13.256 23.5408 12.8418V10.8858C23.5408 8.1019 21.2841 5.84509 18.5001 5.84509C15.7161 5.84509 13.4595 8.10192 13.4595 10.8858V12.8418C13.4595 13.256 13.7953 13.5918 14.2095 13.5918Z" fill="white"/>
<path fill-rule="evenodd" clip-rule="evenodd" d="M18.5002 7.34521C18.9144 7.34518 19.2502 7.00937 19.2501 6.59515L19.25 4.86385C19.25 4.44964 18.9142 4.11388 18.4999 4.11391C18.0857 4.11394 17.75 4.44976 17.75 4.86397L17.7501 6.59528C17.7502 7.00949 18.086 7.34525 18.5002 7.34521Z" fill="white"/>
<path fill-rule="evenodd" clip-rule="evenodd" d="M0.804688 26.5078C0.804688 26.922 1.14047 27.2578 1.55469 27.2578H35.4453C35.8595 27.2578 36.1953 26.922 36.1953 26.5078C36.1953 26.0936 35.8595 25.7578 35.4453 25.7578H1.55469C1.14047 25.7578 0.804688 26.0936 0.804688 26.5078Z" fill="#101828"/>
</g>
<defs>
<clipPath id="clip0_1074_30656">
<rect width="36" height="36" fill="white" transform="translate(0.5)"/>
</clipPath>
</defs>
</svg>
