<svg width="64" height="64" viewBox="0 0 64 64" fill="none" xmlns="http://www.w3.org/2000/svg">
<g clip-path="url(#clip0_638_25025)">
<path d="M54.1775 36.6312C58.7125 35.7114 62.125 31.7014 62.125 26.8939C62.125 22.5512 59.3387 18.8626 55.4575 17.51C55.7775 12.6375 51.9137 8.56748 47.09 8.56748C45.7937 8.56748 44.5662 8.8626 43.47 9.38748C41.5412 4.96635 37.1325 1.87498 32 1.87498C26.8675 1.87498 22.4588 4.96635 20.53 9.38748C19.4338 8.8626 18.2062 8.56748 16.91 8.56748C12.0962 8.56748 8.22375 12.6262 8.5425 17.51C4.66125 18.8626 1.875 22.5512 1.875 26.8939C1.875 31.6751 5.25125 35.6675 9.75 36.6162" fill="#009640"/>
<path d="M54.1775 36.6312C58.7125 35.7114 62.125 31.7014 62.125 26.8939C62.125 22.5512 59.3387 18.8626 55.4575 17.51C55.7775 12.6375 51.9137 8.56748 47.09 8.56748C45.7937 8.56748 44.5662 8.8626 43.47 9.38748C41.5412 4.96635 37.1325 1.87498 32 1.87498C26.8675 1.87498 22.4588 4.96635 20.53 9.38748C19.4338 8.8626 18.2062 8.56748 16.91 8.56748C12.0962 8.56748 8.22375 12.6262 8.5425 17.51C4.66125 18.8626 1.875 22.5512 1.875 26.8939C1.875 31.6751 5.25125 35.6675 9.75 36.6162" stroke="#009640" stroke-width="3" stroke-miterlimit="10" stroke-linecap="round" stroke-linejoin="round"/>
<path d="M5.625 54.625H58.375V56.8156C58.375 59.7479 55.998 62.125 53.0657 62.125H10.9342C8.002 62.125 5.625 59.7479 5.625 56.8156V54.625Z" stroke="#98A2B3" stroke-width="3" stroke-miterlimit="10" stroke-linecap="round" stroke-linejoin="round"/>
<path d="M45.2987 23.5688H46.8575H54.1775V54.625H9.75V23.5688H45.2987Z" fill="white" stroke="#98A2B3" stroke-width="3" stroke-miterlimit="10" stroke-linecap="round" stroke-linejoin="round"/>
<path d="M26.6602 41.009C28.0177 39.6515 29.8927 38.8128 31.9639 38.8128C34.0352 38.8128 35.9102 39.6515 37.2677 41.009" stroke="#98A2B3" stroke-width="3" stroke-miterlimit="10" stroke-linecap="round" stroke-linejoin="round"/>
<path d="M21.3574 35.7065C24.0712 32.9915 27.8212 31.3128 31.9637 31.3128C36.1062 31.3128 39.8562 32.9915 42.5699 35.7065" stroke="#98A2B3" stroke-width="3" stroke-miterlimit="10" stroke-linecap="round" stroke-linejoin="round"/>
<path d="M33.8389 46.3123C33.8389 47.3478 32.9994 48.1873 31.9639 48.1873C30.9284 48.1873 30.0889 47.3478 30.0889 46.3123C30.0889 45.2768 30.9284 44.4373 31.9639 44.4373C32.9994 44.4373 33.8389 45.2768 33.8389 46.3123Z" fill="#98A2B3"/>
</g>
<defs>
<clipPath id="clip0_638_25025">
<rect width="64" height="64" fill="white"/>
</clipPath>
</defs>
</svg>
