<svg width="48" height="48" viewBox="0 0 64 64" fill="none" xmlns="http://www.w3.org/2000/svg"><path fill-rule="evenodd" clip-rule="evenodd" d="M16.558 28.017a1.5 1.5 0 0 0 1.5 1.5h27.884c6.328 0 11.458-5.13 11.458-11.459C57.4 11.73 52.27 6.6 45.942 6.6H18.058a1.5 1.5 0 0 0 0 3h27.884a8.458 8.458 0 1 1 0 16.917H18.058a1.5 1.5 0 0 0-1.5 1.5Zm1.5 26.383a8.458 8.458 0 1 1 0-16.917h27.884a1.5 1.5 0 1 0 0-3H18.058c-6.328 0-11.458 5.13-11.458 11.459C6.6 52.27 11.73 57.4 18.058 57.4h27.884a1.5 1.5 0 1 0 0-3H18.058Z" fill="#344054"/><path d="M8.1 18.058c0-5.5 4.458-9.958 9.958-9.958s9.959 4.458 9.959 9.958-4.459 9.959-9.959 9.959S8.1 23.558 8.1 18.058Z" fill="url(#a)"/><path fill-rule="evenodd" clip-rule="evenodd" d="M6.6 18.058c0 6.328 5.13 11.459 11.458 11.459s11.459-5.13 11.459-11.459c0-6.328-5.13-11.458-11.459-11.458C11.73 6.6 6.6 11.73 6.6 18.058Zm11.458 8.459a8.459 8.459 0 1 1 0-16.918 8.459 8.459 0 0 1 0 16.918Z" fill="url(#b)"/><path d="M35.983 45.942c0-5.5 4.459-9.959 9.959-9.959s9.958 4.459 9.958 9.959-4.458 9.958-9.958 9.958-9.959-4.458-9.959-9.958Z" fill="url(#c)"/><path fill-rule="evenodd" clip-rule="evenodd" d="M34.483 45.942c0 6.328 5.13 11.458 11.459 11.458 6.328 0 11.458-5.13 11.458-11.458s-5.13-11.459-11.458-11.459-11.459 5.13-11.459 11.459ZM45.942 54.4a8.459 8.459 0 1 1 0-16.917 8.459 8.459 0 0 1 0 16.917Z" fill="url(#d)"/><defs><linearGradient id="a" x1="18.058" y1="28.017" x2="18.058" y2="8.1" gradientUnits="userSpaceOnUse"><stop stop-color="#16B364"/><stop offset="1" stop-color="#CDE762"/></linearGradient><linearGradient id="b" x1="18.058" y1="29.517" x2="18.058" y2="6.6" gradientUnits="userSpaceOnUse"><stop stop-color="#16B364"/><stop offset="1" stop-color="#CDE762"/></linearGradient><linearGradient id="c" x1="45.942" y1="55.9" x2="45.942" y2="35.983" gradientUnits="userSpaceOnUse"><stop stop-color="#16B364"/><stop offset="1" stop-color="#CDE762"/></linearGradient><linearGradient id="d" x1="45.942" y1="57.4" x2="45.942" y2="34.483" gradientUnits="userSpaceOnUse"><stop stop-color="#16B364"/><stop offset="1" stop-color="#CDE762"/></linearGradient></defs></svg>