<svg  width="currentWidth" height="currentHeight" viewBox="0 0 64 64" fill="none" xmlns="http://www.w3.org/2000/svg">
  <path d="M18.058 28.017h27.884c5.5 0 9.958-4.459 9.958-9.959S51.442 8.1 45.942 8.1H18.058m27.884 27.883H18.058c-5.5 0-9.958 4.459-9.958 9.959s4.458 9.958 9.958 9.958h27.884" stroke="#98A2B3" stroke-width="3" stroke-miterlimit="10" stroke-linecap="round" stroke-linejoin="round"/>
  <path d="M8.1 18.058c0-5.5 4.458-9.958 9.958-9.958s9.959 4.458 9.959 9.958-4.459 9.959-9.959 9.959S8.1 23.558 8.1 18.058Zm27.883 27.884c0-5.5 4.459-9.959 9.959-9.959s9.958 4.459 9.958 9.959-4.458 9.958-9.958 9.958-9.959-4.458-9.959-9.958Z" fill="#009640" stroke="#009640" stroke-width="3" stroke-miterlimit="10" stroke-linecap="round" stroke-linejoin="round"/>
</svg>
