<svg width="64" height="64" viewBox="0 0 64 64" fill="none" xmlns="http://www.w3.org/2000/svg">
<path d="M18.0581 28.0166H45.9419C51.4419 28.0166 55.9004 23.5581 55.9004 18.0581C55.9004 12.5581 51.4419 8.09959 45.9419 8.09959H18.0581" stroke="#98A2B3" stroke-width="3" stroke-miterlimit="10" stroke-linecap="round" stroke-linejoin="round"/>
<path d="M45.9419 35.9834H18.0581C12.5581 35.9834 8.09961 40.4419 8.09961 45.9419C8.09961 51.4419 12.5581 55.9004 18.0581 55.9004H45.9419" stroke="#98A2B3" stroke-width="3" stroke-miterlimit="10" stroke-linecap="round" stroke-linejoin="round"/>
<path d="M8.09961 18.0581C8.09961 12.5582 12.5582 8.09959 18.0581 8.09959C23.558 8.09959 28.0166 12.5582 28.0166 18.0581C28.0166 23.558 23.558 28.0166 18.0581 28.0166C12.5582 28.0166 8.09961 23.558 8.09961 18.0581Z" fill="#009640" stroke="#009640" stroke-width="3" stroke-miterlimit="10" stroke-linecap="round" stroke-linejoin="round"/>
<path d="M35.9834 45.9419C35.9834 40.442 40.442 35.9834 45.9419 35.9834C51.4418 35.9834 55.9004 40.442 55.9004 45.9419C55.9004 51.4418 51.4418 55.9004 45.9419 55.9004C40.442 55.9004 35.9834 51.4418 35.9834 45.9419Z" fill="#009640" stroke="#009640" stroke-width="3" stroke-miterlimit="10" stroke-linecap="round" stroke-linejoin="round"/>
</svg>
