<svg width="48" height="48" viewBox="0 0 64 64" fill="none" xmlns="http://www.w3.org/2000/svg"><path fill-rule="evenodd" clip-rule="evenodd" d="M44.188 49.024a1.5 1.5 0 0 1 1.5 1.5v7.87c0 2.88-2.351 5.23-5.231 5.23H23.668a5.24 5.24 0 0 1-5.23-5.23v-7.666a1.5 1.5 0 0 1 3 0v7.666a2.242 2.242 0 0 0 2.23 2.23h16.789a2.242 2.242 0 0 0 2.23-2.23v-7.87a1.5 1.5 0 0 1 1.5-1.5Z" fill="#344054"/><path fill-rule="evenodd" clip-rule="evenodd" d="M35.937 48.622a1.5 1.5 0 0 1 1.5 1.5v10.604a1.5 1.5 0 0 1-3 0V50.122a1.5 1.5 0 0 1 1.5-1.5Z" fill="#344054"/><path d="M40.438 9.375H23.561a2 2 0 0 0-2 2v6.75a2 2 0 0 0 2 2h16.875a2 2 0 0 0 2-2v-6.75a2 2 0 0 0-2-2Z" fill="url(#a)"/><path fill-rule="evenodd" clip-rule="evenodd" d="M20.063 35.125a1.5 1.5 0 0 1 1.5-1.5h1.375a1.5 1.5 0 0 1 0 3h-1.375a1.5 1.5 0 0 1-1.5-1.5Zm0 7.5a1.5 1.5 0 0 1 1.5-1.5h1.375a1.5 1.5 0 0 1 0 3h-1.375a1.5 1.5 0 0 1-1.5-1.5Zm9.75-7.5a1.5 1.5 0 0 1 1.5-1.5h1.375a1.5 1.5 0 0 1 0 3h-1.376a1.5 1.5 0 0 1-1.5-1.5Zm0 7.5a1.5 1.5 0 0 1 1.5-1.5h1.375a1.5 1.5 0 0 1 0 3h-1.376a1.5 1.5 0 0 1-1.5-1.5Zm9.75-7.5a1.5 1.5 0 0 1 1.5-1.5h1.374a1.5 1.5 0 0 1 0 3h-1.374a1.5 1.5 0 0 1-1.5-1.5Zm0 7.5a1.5 1.5 0 0 1 1.5-1.5h1.374a1.5 1.5 0 0 1 0 3h-1.374a1.5 1.5 0 0 1-1.5-1.5Z" fill="#344054"/><path fill-rule="evenodd" clip-rule="evenodd" d="M18.186 3.375a2.811 2.811 0 0 0-2.811 2.811v39.628a2.811 2.811 0 0 0 2.811 2.811h27.628a2.811 2.811 0 0 0 2.811-2.811V6.186a2.811 2.811 0 0 0-2.811-2.811H18.186Zm-5.811 2.811A5.811 5.811 0 0 1 18.186.375h27.628a5.811 5.811 0 0 1 5.811 5.811v39.628a5.811 5.811 0 0 1-5.811 5.811H18.186a5.811 5.811 0 0 1-5.811-5.811V6.186Z" fill="#344054"/><path fill-rule="evenodd" clip-rule="evenodd" d="M50.125 8.875a1.5 1.5 0 0 1 1.5 1.5V20.66a8.465 8.465 0 0 1-8.465 8.465H20.84a8.465 8.465 0 0 1-8.465-8.465V11a1.5 1.5 0 0 1 3 0v9.66a5.465 5.465 0 0 0 5.465 5.465h22.32a5.465 5.465 0 0 0 5.465-5.465V10.375a1.5 1.5 0 0 1 1.5-1.5Z" fill="#344054"/><defs><linearGradient id="a" x1="32" y1="9.375" x2="32" y2="20.125" gradientUnits="userSpaceOnUse"><stop stop-color="#16B364"/><stop offset="1" stop-color="#CDE762"/></linearGradient></defs></svg>