<svg  width="currentWidth" height="currentHeight" viewBox="0 0 64 64" fill="none" xmlns="http://www.w3.org/2000/svg">
  <path d="M44.188 50.524v7.87a3.742 3.742 0 0 1-3.731 3.73H23.668a3.742 3.742 0 0 1-3.73-3.73v-7.666m15.999-.606v10.604" stroke="#98A2B3" stroke-width="3" stroke-miterlimit="22.926" stroke-linecap="round" stroke-linejoin="round"/>
  <path d="M40.438 9.375H23.561a2 2 0 0 0-2 2v6.75a2 2 0 0 0 2 2h16.875a2 2 0 0 0 2-2v-6.75a2 2 0 0 0-2-2Z" fill="#009640"/>
  <path d="M21.563 35.125h1.375m-1.375 7.5h1.375m8.375-7.5h1.375m-1.375 7.5h1.375m8.375-7.5h1.374m-1.374 7.5h1.374" stroke="#98A2B3" stroke-width="3" stroke-miterlimit="22.926" stroke-linecap="round" stroke-linejoin="round"/>
  <path clip-rule="evenodd" d="M45.814 50.125H18.186a4.311 4.311 0 0 1-4.311-4.311V6.186a4.311 4.311 0 0 1 4.311-4.311h27.628a4.311 4.311 0 0 1 4.311 4.311v39.628a4.311 4.311 0 0 1-4.311 4.311Z" stroke="#98A2B3" stroke-width="3" stroke-miterlimit="22.926" stroke-linecap="round" stroke-linejoin="round"/>
  <path d="M13.875 11v9.66a6.965 6.965 0 0 0 6.965 6.965h22.32a6.965 6.965 0 0 0 6.965-6.965V10.375" stroke="#98A2B3" stroke-width="3" stroke-miterlimit="22.926" stroke-linecap="round" stroke-linejoin="round"/>
</svg>
