<svg width="48" height="48" viewBox="0 0 48 48" fill="none" xmlns="http://www.w3.org/2000/svg">
<g clip-path="url(#clip0_2781_25854)">
<path fill-rule="evenodd" clip-rule="evenodd" d="M12.75 47.5938C13.3023 47.5938 13.75 47.146 13.75 46.5938V43.7812C13.75 43.229 13.3023 42.7812 12.75 42.7812C12.1977 42.7812 11.75 43.229 11.75 43.7812V46.5938C11.75 47.146 12.1977 47.5938 12.75 47.5938Z" fill="url(#paint0_linear_2781_25854)"/>
<path d="M18.375 40.9688L21.1875 43.7812L18.375 40.9688Z" fill="url(#paint1_linear_2781_25854)"/>
<path fill-rule="evenodd" clip-rule="evenodd" d="M21.8946 44.4884C22.2851 44.0978 22.2851 43.4647 21.8946 43.0741L19.0821 40.2616C18.6916 39.8711 18.0584 39.8711 17.6679 40.2616C17.2774 40.6522 17.2774 41.2853 17.6679 41.6759L20.4804 44.4884C20.8709 44.8789 21.5041 44.8789 21.8946 44.4884Z" fill="url(#paint2_linear_2781_25854)"/>
<path d="M7.125 40.9688L4.3125 43.7812L7.125 40.9688Z" fill="url(#paint3_linear_2781_25854)"/>
<path fill-rule="evenodd" clip-rule="evenodd" d="M3.60539 44.4884C3.99592 44.8789 4.62908 44.8789 5.01961 44.4884L7.83211 41.6759C8.22263 41.2853 8.22263 40.6522 7.83211 40.2616C7.44158 39.8711 6.80842 39.8711 6.41789 40.2616L3.60539 43.0741C3.21487 43.4647 3.21487 44.0978 3.60539 44.4884Z" fill="url(#paint4_linear_2781_25854)"/>
<path fill-rule="evenodd" clip-rule="evenodd" d="M35.25 5.21875C35.8023 5.21875 36.25 4.77103 36.25 4.21875V1.40625C36.25 0.853965 35.8023 0.40625 35.25 0.40625C34.6977 0.40625 34.25 0.853965 34.25 1.40625V4.21875C34.25 4.77103 34.6977 5.21875 35.25 5.21875Z" fill="#101828"/>
<path fill-rule="evenodd" clip-rule="evenodd" d="M40.1679 7.73836C40.5584 8.12888 41.1916 8.12888 41.5821 7.73836L44.3946 4.92586C44.7851 4.53533 44.7851 3.90217 44.3946 3.51164C44.0041 3.12112 43.3709 3.12112 42.9804 3.51164L40.1679 6.32414C39.7774 6.71467 39.7774 7.34783 40.1679 7.73836Z" fill="#101828"/>
<path fill-rule="evenodd" clip-rule="evenodd" d="M30.3321 7.73836C30.7226 7.34783 30.7226 6.71467 30.3321 6.32414L27.5196 3.51164C27.1291 3.12112 26.4959 3.12112 26.1054 3.51164C25.7149 3.90217 25.7149 4.53533 26.1054 4.92586L28.9179 7.73836C29.3084 8.12888 29.9416 8.12888 30.3321 7.73836Z" fill="#101828"/>
<path fill-rule="evenodd" clip-rule="evenodd" d="M35.25 39.875C34.249 39.875 33.4375 39.0635 33.4375 38.0625V35.25C33.4375 34.6977 32.9898 34.25 32.4375 34.25H24C23.4477 34.25 23 34.6977 23 35.25C23 35.8023 23.4477 36.25 24 36.25H31.4375V38.0625C31.4375 40.1682 33.1445 41.875 35.25 41.875C37.3555 41.875 39.0625 40.1682 39.0625 38.0625V36.25H46.5937C47.146 36.25 47.5937 35.8023 47.5937 35.25V26.8125C47.5937 26.2602 47.146 25.8125 46.5937 25.8125H43.7812C42.7803 25.8125 41.9687 25.001 41.9687 24C41.9687 22.999 42.7803 22.1875 43.7812 22.1875H46.5937C47.146 22.1875 47.5937 21.7398 47.5937 21.1875V12.75C47.5937 12.1977 47.146 11.75 46.5937 11.75H38.0625C37.5102 11.75 37.0625 12.1977 37.0625 12.75V15.5625C37.0625 16.5635 36.251 17.375 35.25 17.375C34.249 17.375 33.4375 16.5635 33.4375 15.5625V12.75C33.4375 12.1977 32.9898 11.75 32.4375 11.75H24C23.4477 11.75 23 12.1977 23 12.75C23 13.3023 23.4477 13.75 24 13.75H31.4375V15.5625C31.4375 17.6681 33.1445 19.375 35.25 19.375C37.3555 19.375 39.0625 17.6681 39.0625 15.5625V13.75H45.5937V20.1875H43.7812C41.6757 20.1875 39.9688 21.8944 39.9688 24C39.9688 26.1056 41.6757 27.8125 43.7812 27.8125H45.5937V34.25H38.0625C37.5102 34.25 37.0625 34.6977 37.0625 35.25V38.0625C37.0625 39.0635 36.251 39.875 35.25 39.875Z" fill="#101828"/>
<path d="M1.40625 36.25C0.853965 36.25 0.40625 35.8023 0.40625 35.25V26.8125C0.40625 26.2602 0.853965 25.8125 1.40625 25.8125H4.21875C5.21974 25.8125 6.03125 25.001 6.03125 24C6.03125 22.999 5.21974 22.1875 4.21875 22.1875H1.40625C0.853965 22.1875 0.40625 21.7398 0.40625 21.1875V12.75C0.40625 12.1977 0.853965 11.75 1.40625 11.75H8.9375V9.9375C8.9375 7.83187 10.6444 6.125 12.75 6.125C14.8556 6.125 16.5625 7.83187 16.5625 9.9375V11.75H24C24.5523 11.75 25 12.1977 25 12.75V20.1875H26.8125C28.918 20.1875 30.625 21.8944 30.625 24C30.625 26.1056 28.918 27.8125 26.8125 27.8125H25V35.25C25 35.8023 24.5523 36.25 24 36.25H15.5625C15.0102 36.25 14.5625 35.8023 14.5625 35.25V32.4375C14.5625 31.4365 13.751 30.625 12.75 30.625C11.749 30.625 10.9375 31.4365 10.9375 32.4375V35.25C10.9375 35.8023 10.4898 36.25 9.9375 36.25H1.40625Z" fill="url(#paint5_linear_2781_25854)"/>
</g>
<defs>
<linearGradient id="paint0_linear_2781_25854" x1="12.75" y1="47.5938" x2="12.75" y2="42.7812" gradientUnits="userSpaceOnUse">
<stop stop-color="#16B364"/>
<stop offset="1" stop-color="#CDE762"/>
</linearGradient>
<linearGradient id="paint1_linear_2781_25854" x1="19.7812" y1="43.7812" x2="19.7812" y2="40.9688" gradientUnits="userSpaceOnUse">
<stop stop-color="#16B364"/>
<stop offset="1" stop-color="#CDE762"/>
</linearGradient>
<linearGradient id="paint2_linear_2781_25854" x1="19.7812" y1="44.7812" x2="19.7812" y2="39.9688" gradientUnits="userSpaceOnUse">
<stop stop-color="#16B364"/>
<stop offset="1" stop-color="#CDE762"/>
</linearGradient>
<linearGradient id="paint3_linear_2781_25854" x1="5.71875" y1="43.7812" x2="5.71875" y2="40.9688" gradientUnits="userSpaceOnUse">
<stop stop-color="#16B364"/>
<stop offset="1" stop-color="#CDE762"/>
</linearGradient>
<linearGradient id="paint4_linear_2781_25854" x1="5.71875" y1="44.7812" x2="5.71875" y2="39.9688" gradientUnits="userSpaceOnUse">
<stop stop-color="#16B364"/>
<stop offset="1" stop-color="#CDE762"/>
</linearGradient>
<linearGradient id="paint5_linear_2781_25854" x1="15.5156" y1="6.125" x2="15.5156" y2="36.25" gradientUnits="userSpaceOnUse">
<stop stop-color="#16B364"/>
<stop offset="1" stop-color="#CDE762"/>
</linearGradient>
<clipPath id="clip0_2781_25854">
<rect width="48" height="48" fill="white"/>
</clipPath>
</defs>
</svg>
