<svg width="64" height="64" viewBox="0 0 64 64" fill="none" xmlns="http://www.w3.org/2000/svg">
<path d="M59.289 48.1137L60.769 57.0037L51.879 55.5237C48.8077 57.3262 45.2327 58.36 41.414 58.36C33.364 58.36 26.3865 53.7675 22.959 47.0587C34.2265 46.86 43.2977 37.665 43.2977 26.3512C43.2977 22.9637 42.484 19.765 41.0415 16.9412C41.1652 16.9387 41.289 16.9375 41.414 16.9375C52.8527 16.9375 62.1252 26.21 62.1252 37.6487C62.1252 41.4662 61.0915 45.0425 59.289 48.1137Z" stroke="#98A2B3" stroke-width="3" stroke-miterlimit="10" stroke-linecap="round" stroke-linejoin="round"/>
<path d="M51.2058 37.6487H40.0713" stroke="#98A2B3" stroke-width="3" stroke-miterlimit="10" stroke-linecap="round" stroke-linejoin="round"/>
<path d="M51.2053 45.8835H31.6318" stroke="#98A2B3" stroke-width="3" stroke-miterlimit="10" stroke-linecap="round" stroke-linejoin="round"/>
<path d="M51.2056 29.4139H43.2598" stroke="#98A2B3" stroke-width="3" stroke-miterlimit="10" stroke-linecap="round" stroke-linejoin="round"/>
<path d="M43.2975 26.3513C43.2975 37.665 34.2262 46.86 22.9587 47.0588C22.835 47.0613 22.7112 47.0625 22.5862 47.0625C18.7675 47.0625 15.1925 46.0287 12.1212 44.2262L3.23125 45.7062L4.71125 36.8163C2.90875 33.745 1.875 30.1688 1.875 26.3513C1.875 14.9125 11.1475 5.64 22.5862 5.64C30.6362 5.64 37.6137 10.2325 41.0412 16.9413C42.4837 19.765 43.2975 22.9638 43.2975 26.3513Z" fill="#009640" stroke="#009640" stroke-width="3" stroke-miterlimit="10" stroke-linecap="round" stroke-linejoin="round"/>
<path d="M17.8691 20.4636C17.8691 17.8584 19.9811 15.7465 22.5863 15.7465C25.1915 15.7465 27.3035 17.8584 27.3035 20.4636C27.3035 23.0689 25.1915 25.1807 22.5863 25.1807V30.7059" stroke="white" stroke-width="3" stroke-miterlimit="10" stroke-linecap="round" stroke-linejoin="round"/>
<path d="M22.5861 38.8311C23.5668 38.8311 24.5064 37.9687 24.4611 36.9561C24.4156 35.9402 23.6372 35.0811 22.5861 35.0811C21.6053 35.0811 20.6657 35.9435 20.7111 36.9561C20.7566 37.972 21.5349 38.8311 22.5861 38.8311Z" fill="white"/>
</svg>
