<svg width="40" height="40" viewBox="0 0 40 40" fill="none" xmlns="http://www.w3.org/2000/svg">
<path d="M15.0781 22.1093V28.5852H9.53125L20 38.8196L30.4687 28.5852H24.9219V22.1875" stroke="#101828" stroke-width="2" stroke-miterlimit="22.926" stroke-linecap="round" stroke-linejoin="round"/>
<path d="M19.9998 23.0383C26.0192 23.0383 30.9288 18.1289 30.9288 12.1093C30.9288 6.08997 26.0192 1.18044 19.9998 1.18044C13.9803 1.18044 9.0708 6.08997 9.0708 12.1093C9.0708 18.1289 13.9803 23.0383 19.9998 23.0383Z" fill="#009640" stroke="#009640" stroke-width="2" stroke-miterlimit="22.926" stroke-linecap="round" stroke-linejoin="round"/>
<path d="M19.5298 11.9263C21.0215 12.4548 22.7113 12.8621 22.6956 14.6194C22.6674 17.7597 17.3892 17.4095 17.3892 14.6292" stroke="white" stroke-width="2" stroke-miterlimit="22.926" stroke-linecap="round" stroke-linejoin="round"/>
<path d="M19.6832 11.984C18.4418 11.5456 17.2913 11.015 17.3043 9.5637C17.3324 6.42331 22.6107 6.77354 22.6107 9.55385" stroke="white" stroke-width="2" stroke-miterlimit="22.926" stroke-linecap="round" stroke-linejoin="round"/>
<path d="M20.0728 16.9177V18.7401" stroke="white" stroke-width="2" stroke-miterlimit="22.926" stroke-linecap="round" stroke-linejoin="round"/>
<path d="M19.9272 5.47874V7.30109" stroke="white" stroke-width="2" stroke-miterlimit="22.926" stroke-linecap="round" stroke-linejoin="round"/>
</svg>
