<svg width="64" height="64" viewBox="0 0 64 64" fill="none" xmlns="http://www.w3.org/2000/svg">
<path d="M43.25 43.8606V62.125L32 58.375L20.75 62.125V43.8606" fill="#009640"/>
<path d="M43.25 43.8606V62.125L32 58.375L20.75 62.125V43.8606" stroke="#009640" stroke-width="3" stroke-miterlimit="10" stroke-linecap="round" stroke-linejoin="round"/>
<path d="M54.5 24.375C54.5 23.2288 54.156 22.1645 53.566 21.2774C52.5971 19.8205 52.115 18.02 52.2255 16.274C52.2928 15.211 52.0586 14.1176 51.4856 13.125C50.9125 12.1323 50.0825 11.3826 49.128 10.9094C47.5607 10.1321 46.2428 8.81425 45.4656 7.247C44.9924 6.2925 44.2427 5.4625 43.25 4.88937C42.2574 4.31637 41.164 4.08225 40.101 4.1495C38.355 4.26 36.5545 3.77775 35.0977 2.809C34.2105 2.21912 33.1462 1.875 32 1.875C30.8538 1.875 29.7895 2.21912 28.9024 2.809C27.4455 3.77775 25.645 4.26 23.899 4.1495C22.836 4.08225 21.7426 4.31637 20.75 4.88937C19.7572 5.4625 19.0076 6.2925 18.5344 7.247C17.7572 8.81425 16.4393 10.1321 14.872 10.9094C13.9175 11.3826 13.0875 12.1323 12.5144 13.125C11.9414 14.1176 11.7073 15.211 11.7745 16.274C11.885 18.02 11.4029 19.8205 10.434 21.2774C9.844 22.1645 9.5 23.2288 9.5 24.375C9.5 25.5212 9.844 26.5855 10.434 27.4726C11.4029 28.9295 11.885 30.73 11.7745 32.476C11.7073 33.539 11.9414 34.6324 12.5144 35.625C13.0875 36.6178 13.9175 37.3674 14.872 37.8406C16.4393 38.6178 17.7572 39.9358 18.5344 41.503C19.0076 42.4575 19.7572 43.2875 20.75 43.8606C21.7426 44.4336 22.836 44.6678 23.899 44.6005C25.645 44.49 27.4455 44.9722 28.9024 45.941C29.7895 46.531 30.8538 46.875 32 46.875C33.1462 46.875 34.2105 46.531 35.0977 45.941C36.5545 44.9722 38.355 44.49 40.101 44.6005C41.164 44.6678 42.2574 44.4336 43.25 43.8606C44.2427 43.2875 44.9924 42.4575 45.4656 41.503C46.2428 39.9358 47.5607 38.6178 49.128 37.8406C50.0825 37.3674 50.9125 36.6178 51.4856 35.625C52.0586 34.6324 52.2928 33.539 52.2255 32.476C52.115 30.73 52.5971 28.9295 53.566 27.4726C54.156 26.5855 54.5 25.5212 54.5 24.375Z" fill="white" stroke="#98A2B3" stroke-width="3" stroke-miterlimit="10" stroke-linecap="round" stroke-linejoin="round"/>
<path d="M47 24.375C47 32.6593 40.2843 39.375 32 39.375C23.7157 39.375 17 32.6593 17 24.375C17 16.0907 23.7157 9.375 32 9.375C40.2843 9.375 47 16.0907 47 24.375Z" stroke="#98A2B3" stroke-width="3" stroke-miterlimit="10" stroke-linecap="round" stroke-linejoin="round"/>
</svg>
