<svg width="40" height="40" viewBox="0 0 40 40" fill="none" xmlns="http://www.w3.org/2000/svg">
<path d="M31.0156 18.9062C31.0156 19.5534 30.4909 20.0781 29.8438 20.0781C29.1966 20.0781 28.6719 19.5534 28.6719 18.9062C28.6719 18.2591 29.1966 17.7344 29.8438 17.7344C30.4909 17.7344 31.0156 18.2591 31.0156 18.9062Z" fill="#101828"/>
<path d="M17.9895 12.2656H24.7656C25.4338 12.2656 26.0859 12.3312 26.7206 12.4462C27.6016 10.0622 29.888 8.35938 32.5781 8.35938H35.7031L35.4572 8.55617C33.4744 10.1423 32.209 12.4292 31.8857 14.9153C32.8141 15.7159 33.6096 16.6668 34.228 17.7344L38.8281 18.5156V25.5469L34.9722 27.1094C34.1834 29.1686 32.7965 30.9285 31.0156 32.1719V38.8281H26.3281L24.7656 34.1406H12.1094L10.5469 38.8281H5.85937V32.1719C3.0282 30.1951 1.17188 26.918 1.17188 23.2031C1.17188 20.451 2.18859 17.9367 3.86656 16.0143" stroke="#101828" stroke-width="2" stroke-miterlimit="10" stroke-linecap="round" stroke-linejoin="round"/>
<path d="M19.4523 11.7234C19.4523 16.5412 15.5455 20.4468 10.7262 20.4468C5.9068 20.4468 2 16.5412 2 11.7234C2 6.90568 5.9068 3.00006 10.7262 3.00006C15.5455 3.00006 19.4523 6.90568 19.4523 11.7234Z" fill="#009640" stroke="#009640" stroke-width="2" stroke-miterlimit="10" stroke-linecap="round" stroke-linejoin="round"/>
<path d="M8.72457 14.0199C8.72988 14.8895 9.43949 15.5902 10.3094 15.5849L11.1696 15.5796C12.04 15.5743 12.741 14.8644 12.7351 13.9943L12.735 13.9852C12.7317 13.4897 12.4953 13.0248 12.0968 12.73L9.35598 10.7024C8.95457 10.4054 8.71777 9.93579 8.71777 9.43657C8.71777 8.56688 9.42301 7.86188 10.293 7.86188H11.1545C12.0244 7.86188 12.7297 8.56688 12.7297 9.43657" stroke="white" stroke-width="2" stroke-miterlimit="10" stroke-linecap="round" stroke-linejoin="round"/>
<path d="M10.7256 7.86182V6.73674" stroke="white" stroke-width="2" stroke-miterlimit="10" stroke-linecap="round" stroke-linejoin="round"/>
<path d="M10.7256 16.71V15.5849" stroke="white" stroke-width="2" stroke-miterlimit="10" stroke-linecap="round" stroke-linejoin="round"/>
</svg>
