<svg width="41" height="40" viewBox="0 0 41 40" fill="none" xmlns="http://www.w3.org/2000/svg">
<rect x="2" y="1.5" width="37" height="37" rx="18.5" fill="white"/>
<path d="M13.8249 20.9998L15.6999 22.8998C15.8832 23.0831 15.9791 23.3123 15.9874 23.5873C15.9957 23.8623 15.8999 24.0998 15.6999 24.2998C15.5166 24.4831 15.2832 24.5748 14.9999 24.5748C14.7166 24.5748 14.4832 24.4831 14.2999 24.2998L10.6999 20.6998C10.4999 20.4998 10.3999 20.2665 10.3999 19.9998C10.3999 19.7331 10.4999 19.4998 10.6999 19.2998L14.2999 15.6998C14.4832 15.5165 14.7124 15.4248 14.9874 15.4248C15.2624 15.4248 15.4999 15.5165 15.6999 15.6998C15.8999 15.8998 15.9999 16.1373 15.9999 16.4123C15.9999 16.6873 15.8999 16.9248 15.6999 17.1248L13.8249 18.9998H17.9999C18.2832 18.9998 18.5207 19.0956 18.7124 19.2873C18.9041 19.479 18.9999 19.7165 18.9999 19.9998C18.9999 20.2831 18.9041 20.5206 18.7124 20.7123C18.5207 20.904 18.2832 20.9998 17.9999 20.9998H13.8249ZM26.1749 20.9998H21.9999C21.7166 20.9998 21.4791 20.904 21.2874 20.7123C21.0957 20.5206 20.9999 20.2831 20.9999 19.9998C20.9999 19.7165 21.0957 19.479 21.2874 19.2873C21.4791 19.0956 21.7166 18.9998 21.9999 18.9998L26.1999 18.9748L24.2999 17.0998C24.1166 16.9165 24.0249 16.6831 24.0249 16.3998C24.0249 16.1165 24.1166 15.8831 24.2999 15.6998C24.4832 15.5165 24.7166 15.4248 24.9999 15.4248C25.2832 15.4248 25.5166 15.5165 25.6999 15.6998L29.2999 19.2998C29.4999 19.4998 29.5999 19.7331 29.5999 19.9998C29.5999 20.2665 29.4999 20.4998 29.2999 20.6998L25.6999 24.2998C25.4999 24.4998 25.2666 24.5956 24.9999 24.5873C24.7332 24.579 24.4999 24.4748 24.2999 24.2748C24.1166 24.0748 24.0207 23.8415 24.0124 23.5748C24.0041 23.3081 24.0999 23.0748 24.2999 22.8748L26.1749 20.9998Z" fill="#009640"/>
<rect x="2" y="1.5" width="37" height="37" rx="18.5" stroke="#009640" stroke-width="3"/>
</svg>
