<svg width="64" height="64" viewBox="0 0 64 64" fill="none" xmlns="http://www.w3.org/2000/svg">
<g clip-path="url(#clip0_638_25023)">
<path d="M41.4364 6.5675C42.779 5.92688 44.2169 5.54925 45.672 5.43675L46.626 1.875L54.35 3.94462L53.397 7.50238C53.9935 7.91213 54.5599 8.382 55.089 8.91125C55.6192 9.4405 56.0881 10.0077 56.4979 10.6032L60.0556 9.65038L62.1252 17.3743L58.5645 18.3293C58.451 19.7833 58.0745 21.2213 57.4337 22.5649L60.0375 25.1686L54.382 30.8231L51.7782 28.2192C50.4356 28.8599 48.9977 29.2365 47.5426 29.35L46.5886 32.9118L38.8646 30.8421L39.8176 27.2844C39.2211 26.8746 38.6547 26.4047 38.1256 25.8755C37.5954 25.3452 37.1265 24.779 36.7167 24.1835L33.159 25.1365L31.0894 17.4114L34.6501 16.4574C34.7636 15.0024 35.1401 13.5644 35.7807 12.2218L33.177 9.618L38.8325 3.9635L41.4364 6.5675Z" fill="#009640" stroke="#009640" stroke-width="3" stroke-miterlimit="10" stroke-linecap="round" stroke-linejoin="round"/>
<path d="M43.7797 14.5656C45.3403 13.0051 47.8737 13.0051 49.4342 14.5656C50.9947 16.1261 50.9947 18.6606 49.4342 20.2201C47.8737 21.7806 45.3403 21.7806 43.7797 20.2201C42.2192 18.6606 42.2192 16.1261 43.7797 14.5656Z" fill="white"/>
<path d="M25.8666 26.6438C27.3327 27.0214 28.7185 27.6028 29.9907 28.3549L33.177 25.1686L38.8325 30.8231L35.6452 34.0094C36.3984 35.2826 36.9788 36.6674 37.3574 38.1345H41.86V46.1306H37.3574C36.9788 47.5978 36.3974 48.9835 35.6452 50.2558L38.8325 53.442L33.177 59.0965L29.9907 55.9103C28.7185 56.6624 27.3327 57.2438 25.8666 57.6214V62.125H17.8694V57.6214C16.4023 57.2438 15.0175 56.6624 13.7452 55.9103L10.558 59.0965L4.9035 53.442L8.08975 50.2558C7.33763 48.9825 6.75625 47.5978 6.37862 46.1306H1.875V38.1345H6.37875C6.75637 36.6674 7.33775 35.2816 8.08988 34.0094L4.90363 30.8231L10.5581 25.1686L13.7454 28.3549C15.0176 27.6028 16.4034 27.0214 17.8695 26.6438V22.1401H25.8668V26.6438H25.8666Z" stroke="#98A2B3" stroke-width="3" stroke-miterlimit="10" stroke-linecap="round" stroke-linejoin="round"/>
<path d="M21.8679 37.1343C24.6264 37.1343 26.8656 39.3735 26.8656 42.133C26.8656 44.8915 24.6264 47.1308 21.8679 47.1308C19.1094 47.1308 16.8691 44.8915 16.8691 42.133C16.8691 39.3737 19.1094 37.1343 21.8679 37.1343Z" stroke="#98A2B3" stroke-width="3" stroke-miterlimit="10" stroke-linecap="round" stroke-linejoin="round"/>
</g>
<defs>
<clipPath id="clip0_638_25023">
<rect width="64" height="64" fill="white"/>
</clipPath>
</defs>
</svg>
