<svg width="36" height="36" viewBox="0 0 36 36" fill="none" xmlns="http://www.w3.org/2000/svg">
<g clip-path="url(#clip0_853_42045)">
<path fill-rule="evenodd" clip-rule="evenodd" d="M0.708378 35.6108C0.956455 35.74 1.25578 35.7203 1.48487 35.5599L10.9911 28.9035L21.3386 30.7169C22.0974 30.8499 22.8782 30.676 23.5094 30.2341L35.3755 21.9255C35.7148 21.6879 35.7973 21.2203 35.5597 20.8809L34.6026 19.514C33.7579 18.3077 32.1444 17.9274 30.8482 18.6238L23.6395 22.2869C23.3412 21.2571 22.481 20.4335 21.3529 20.2358L12.5384 18.691C10.137 18.2701 7.66528 18.8201 5.66669 20.2195L0.624503 23.7501C0.424059 23.8905 0.304688 24.1198 0.304688 24.3645V34.9456C0.304688 35.2252 0.460302 35.4817 0.708378 35.6108ZM23.6134 23.9827L31.5359 19.9569C31.5418 19.9539 31.5477 19.9508 31.5535 19.9476C32.1832 19.6064 32.9657 19.7916 33.3738 20.3743C33.3738 20.3743 33.3738 20.3743 33.3738 20.3743L33.9008 21.1269L22.6492 29.0053C22.6491 29.0054 22.6492 29.0053 22.6492 29.0053C22.343 29.2197 21.9646 29.3038 21.5975 29.2394C21.5975 29.2394 21.5975 29.2394 21.5975 29.2394L10.9445 27.3724C10.7489 27.3381 10.5476 27.3829 10.3849 27.4968L1.80469 33.5048V24.7549L6.52704 21.4483C6.52704 21.4483 6.52704 21.4483 6.52704 21.4483C8.20059 20.2765 10.2698 19.8163 12.2794 20.1685L21.0939 21.7133C21.8577 21.8471 22.3667 22.574 22.2313 23.3375C22.0954 24.1034 21.3637 24.6155 20.5977 24.4808M23.6134 23.9827C23.1762 25.3466 21.7874 26.213 20.3379 25.9581C19.1931 25.7568 17.7907 25.5106 16.6744 25.3148L14.7287 24.9736C14.3207 24.9021 14.0473 24.5133 14.1188 24.1053C14.1903 23.6973 14.579 23.4245 14.987 23.496L16.9335 23.8374C18.0499 24.0332 19.4526 24.2794 20.5977 24.4808" fill="#101828"/>
<path d="M12.5612 16.1225C10.5944 16.1225 9 14.528 9 12.5612C9 10.5945 10.5944 9 12.5612 9C14.528 9 16.1225 10.5945 16.1225 12.5612C16.1225 14.528 14.528 16.1225 12.5612 16.1225Z" fill="#009640"/>
<path d="M17.0612 7.87247C15.0944 7.87247 13.5 6.27801 13.5 4.31123C13.5 2.34446 15.0944 0.75 17.0612 0.75C19.028 0.75 20.6225 2.34445 20.6225 4.31123C20.6225 6.27802 19.028 7.87247 17.0612 7.87247Z" fill="#009640"/>
<path d="M22.655 15.5297C20.6881 15.5297 19.0938 13.9352 19.0938 11.9685C19.0938 10.0017 20.6881 8.40723 22.655 8.40723C24.6218 8.40723 26.2162 10.0017 26.2162 11.9685C26.2162 13.9352 24.6218 15.5297 22.655 15.5297Z" fill="#009640"/>
</g>
<defs>
<clipPath id="clip0_853_42045">
<rect width="36" height="36" fill="white"/>
</clipPath>
</defs>
</svg>
