<svg width="48" height="48" viewBox="0 0 48 48" fill="none" xmlns="http://www.w3.org/2000/svg">
<path fill-rule="evenodd" clip-rule="evenodd" d="M0.944504 47.481C1.27527 47.6532 1.67437 47.627 1.97983 47.4131L14.6548 38.5379L28.4514 40.9558C29.4632 41.1331 30.5043 40.9013 31.3459 40.3121L47.1673 29.2339C47.6197 28.9171 47.7297 28.2936 47.4129 27.8412L46.1368 26.0186C45.0106 24.4102 42.8592 23.9032 41.131 24.8316L31.5194 29.7158C31.1216 28.3427 29.9747 27.2446 28.4705 26.981L16.7178 24.9213C13.516 24.3601 10.2204 25.0934 7.55559 26.9593L0.83267 31.6668C0.565412 31.8539 0.40625 32.1597 0.40625 32.4859V46.594C0.40625 46.9669 0.613736 47.3088 0.944504 47.481ZM31.4845 31.9769L42.0479 26.6091C42.0558 26.6051 42.0636 26.601 42.0713 26.5968C42.9109 26.1418 43.9543 26.3887 44.4985 27.1657L45.201 28.1691L30.1989 38.6737C29.7906 38.9595 29.2861 39.0716 28.7967 38.9858L14.5927 36.4965C14.3318 36.4508 14.0634 36.5104 13.8465 36.6623L2.40625 44.673V33.0065L8.70272 28.5976C10.9341 27.0352 13.6931 26.4216 16.3725 26.8913L28.1252 28.9509C29.1437 29.1294 29.8223 30.0986 29.6417 31.1166C29.4606 32.1377 28.4849 32.8205 27.4636 32.641M31.4845 31.9769C30.9016 33.7954 29.0499 34.9506 27.1172 34.6107C25.5909 34.3423 23.7209 34.0141 22.2325 33.753L19.6382 33.2981C19.0942 33.2028 18.7297 32.6843 18.825 32.1403C18.9204 31.5963 19.4387 31.2326 19.9827 31.328L22.5781 31.7831C24.0665 32.0442 25.9368 32.3724 27.4636 32.641" fill="#101828"/>
<path d="M16.7483 21.4966C14.1258 21.4966 12 19.3706 12 16.7483C12 14.1259 14.1258 11.9999 16.7483 11.9999C19.3707 11.9999 21.4966 14.1259 21.4966 16.7483C21.4966 19.3706 19.3707 21.4966 16.7483 21.4966Z" fill="url(#paint0_linear_3348_12413)"/>
<path d="M22.7483 10.4966C20.1258 10.4966 18 8.37061 18 5.74825C18 3.12589 20.1258 0.999939 22.7483 0.999939C25.3707 0.999939 27.4966 3.12587 27.4966 5.74825C27.4966 8.37063 25.3707 10.4966 22.7483 10.4966Z" fill="url(#paint1_linear_3348_12413)"/>
<path d="M30.2053 20.7062C27.5829 20.7062 25.457 18.5802 25.457 15.9578C25.457 13.3355 27.5829 11.2095 30.2053 11.2095C32.8277 11.2095 34.9537 13.3355 34.9537 15.9578C34.9537 18.5802 32.8277 20.7062 30.2053 20.7062Z" fill="url(#paint2_linear_3348_12413)"/>
<defs>
<linearGradient id="paint0_linear_3348_12413" x1="16.7483" y1="11.9999" x2="16.7483" y2="21.4966" gradientUnits="userSpaceOnUse">
<stop stop-color="#16B364"/>
<stop offset="1" stop-color="#CDE762"/>
</linearGradient>
<linearGradient id="paint1_linear_3348_12413" x1="22.7483" y1="0.999939" x2="22.7483" y2="10.4966" gradientUnits="userSpaceOnUse">
<stop stop-color="#16B364"/>
<stop offset="1" stop-color="#CDE762"/>
</linearGradient>
<linearGradient id="paint2_linear_3348_12413" x1="30.2053" y1="11.2095" x2="30.2053" y2="20.7062" gradientUnits="userSpaceOnUse">
<stop stop-color="#16B364"/>
<stop offset="1" stop-color="#CDE762"/>
</linearGradient>
</defs>
</svg>
