<svg width="24" height="24" viewBox="0 0 24 24" fill="none" xmlns="http://www.w3.org/2000/svg">
<mask id="mask0_3_402" style="mask-type:luminance" maskUnits="userSpaceOnUse" x="0" y="3" width="24" height="18">
<path d="M0 3H24V21H0V3Z" fill="white"/>
</mask>
<g mask="url(#mask0_3_402)">
<path fill-rule="evenodd" clip-rule="evenodd" d="M0 3H24V21H0V3Z" fill="#F2F4F7"/>
<path fill-rule="evenodd" clip-rule="evenodd" d="M0 14.0002V15.5002H24V14.0002H0ZM0 16.7498V18.2498H24V16.7498H0ZM0 8.49975V9.99975H24V8.49975H0ZM0 19.5V21H24V19.5H0ZM0 11.25V12.75H24V11.25H0ZM0 3V4.5H24V3H0ZM0 5.75025V7.25025H24V5.75025H0Z" fill="#D92D20"/>
<path d="M0 3H15V12.75H0V3Z" fill="#0B70FE"/>
<path fill-rule="evenodd" clip-rule="evenodd" d="M1.29152 5.20427L0.747021 5.58602L0.930772 4.90652L0.447021 4.47602H1.07927L1.29077 3.92102L1.53902 4.47602H2.07752L1.65452 4.90652L1.81802 5.58602L1.29152 5.20427ZM4.29152 5.20427L3.74702 5.58602L3.93077 4.90652L3.44777 4.47602H4.07927L4.29077 3.92102L4.53902 4.47602H5.07752L4.65452 4.90652L4.81802 5.58602L4.29152 5.20427ZM6.74702 5.58602L7.29152 5.20352L7.81802 5.58602L7.65452 4.90652L8.07752 4.47602H7.53902L7.29077 3.92102L7.07927 4.47602H6.44777L6.93077 4.90652L6.74702 5.58602ZM10.2915 5.20352L9.74702 5.58602L9.93077 4.90652L9.44777 4.47602H10.0793L10.2908 3.92102L10.539 4.47602H11.0775L10.6545 4.90652L10.818 5.58602L10.2915 5.20352ZM0.747021 8.58677L1.29152 8.20427L1.81802 8.58677L1.65452 7.90727L2.07752 7.47677H1.53902L1.29077 6.92177L1.07927 7.47677H0.447021L0.930772 7.90727L0.747021 8.58677ZM4.29152 8.20427L3.74702 8.58677L3.93077 7.90727L3.44777 7.47677H4.07927L4.29077 6.92177L4.53902 7.47677H5.07752L4.65452 7.90727L4.81802 8.58677L4.29152 8.20427ZM6.74702 8.58677L7.29152 8.20427L7.81802 8.58677L7.65452 7.90727L8.07752 7.47677H7.53902L7.29077 6.92177L7.07927 7.47677H6.44777L6.93077 7.90727L6.74702 8.58677ZM10.2915 8.20427L9.74702 8.58677L9.93077 7.90727L9.44777 7.47677H10.0793L10.2908 6.92177L10.539 7.47677H11.0775L10.6545 7.90727L10.818 8.58677L10.2915 8.20427ZM0.747021 11.5868L1.29152 11.2043L1.81802 11.5868L1.65452 10.9073L2.07752 10.4768H1.53902L1.29077 9.92177L1.07927 10.4768H0.447021L0.930772 10.9073L0.747021 11.586V11.5868ZM4.29152 11.2043L3.74702 11.5868L3.93077 10.9073L3.44777 10.4768H4.07927L4.29077 9.92177L4.53902 10.4768H5.07752L4.65452 10.9073L4.81802 11.586L4.29152 11.2043ZM6.74702 11.5868L7.29152 11.2043L7.81802 11.5868L7.65452 10.9073L8.07752 10.4768H7.53902L7.29077 9.92177L7.07927 10.4768H6.44777L6.93077 10.9073L6.74702 11.586V11.5868ZM10.2915 11.2043L9.74702 11.5868L9.93077 10.9073L9.44777 10.4768H10.0793L10.2908 9.92177L10.539 10.4768H11.0775L10.6545 10.9073L10.818 11.586L10.2915 11.2043ZM12.747 5.58677L13.2915 5.20427L13.818 5.58677L13.6545 4.90727L14.0775 4.47677H13.539L13.2908 3.92177L13.0793 4.47677H12.447L12.9308 4.90727L12.747 5.58677ZM13.2915 8.20427L12.747 8.58677L12.9308 7.90727L12.447 7.47677H13.0793L13.2908 6.92177L13.539 7.47677H14.0775L13.6545 7.90727L13.818 8.58677L13.2915 8.20427ZM12.747 11.5868L13.2915 11.2043L13.818 11.5868L13.6545 10.9073L14.0775 10.4768H13.539L13.2908 9.92177L13.0793 10.4768H12.447L12.9308 10.9073L12.747 11.586V11.5868ZM2.79152 6.70352L2.24702 7.08602L2.43077 6.40652L1.94702 5.97602H2.57927L2.79077 5.42102L3.03902 5.97602H3.57752L3.15452 6.40652L3.31802 7.08602L2.79152 6.70352ZM5.24702 7.08602L5.79152 6.70352L6.31802 7.08602L6.15452 6.40652L6.57752 5.97602H6.03902L5.79077 5.42102L5.57927 5.97602H4.94702L5.43077 6.40652L5.24702 7.08602ZM8.79152 6.70352L8.24702 7.08602L8.43077 6.40652L7.94777 5.97602H8.57927L8.79077 5.42102L9.03902 5.97602H9.57752L9.15452 6.40652L9.31802 7.08602L8.79152 6.70352ZM2.24702 10.086L2.79152 9.70352L3.31802 10.086L3.15452 9.40652L3.57752 8.97602H3.03902L2.79077 8.42102L2.57927 8.97602H1.94702L2.43077 9.40652L2.24702 10.086ZM5.79152 9.70352L5.24702 10.086L5.43077 9.40652L4.94777 8.97602H5.57927L5.79077 8.42102L6.03902 8.97602H6.57752L6.15452 9.40652L6.31802 10.086L5.79152 9.70352ZM8.24702 10.086L8.79152 9.70352L9.31802 10.086L9.15452 9.40652L9.57752 8.97602H9.03902L8.79077 8.42102L8.57927 8.97602H7.94777L8.43077 9.40652L8.24702 10.086ZM11.7915 6.70352L11.247 7.08602L11.4308 6.40652L10.9478 5.97602H11.5793L11.7908 5.42102L12.039 5.97602H12.5775L12.1545 6.40652L12.318 7.08602L11.7915 6.70352ZM11.247 10.086L11.7915 9.70352L12.318 10.086L12.1545 9.40652L12.5775 8.97602H12.039L11.7908 8.42102L11.5793 8.97602H10.9478L11.4308 9.40652L11.247 10.086Z" fill="#F2F4F7"/>
</g>
</svg>
