<svg width="48" height="48" viewBox="0 0 48 48" fill="none" xmlns="http://www.w3.org/2000/svg"><g clip-path="url(#a)"><path fill-rule="evenodd" clip-rule="evenodd" d="M9.844 15.531a1 1 0 0 0 1-1 2.75 2.75 0 1 1 5.5 0 1 1 0 0 0 2 0 4.75 4.75 0 1 0-9.5 0 1 1 0 0 0 1 1m15 0a1 1 0 0 0 1-1 2.75 2.75 0 1 1 5.5 0 1 1 0 0 0 2 0 4.75 4.75 0 1 0-9.5 0 1 1 0 0 0 1 1M8.25 27.656a1 1 0 0 0 1 1h23.69a1 1 0 1 0 0-2H9.25a1 1 0 0 0-1 1" fill="#101828"/><path fill-rule="evenodd" clip-rule="evenodd" d="M21.094 39.781c-10.321 0-18.688-8.366-18.688-18.687S10.773 2.406 21.094 2.406 39.78 10.773 39.78 21.094c0 2.351-.435 4.6-1.227 6.67a1 1 0 0 0 1.869.714 20.6 20.6 0 0 0 1.358-7.384C41.781 9.668 32.52.406 21.094.406S.406 9.668.406 21.094 9.668 41.78 21.094 41.78c2.6 0 5.09-.481 7.384-1.358a1 1 0 0 0-.714-1.869 18.6 18.6 0 0 1-6.67 1.227" fill="#101828"/><path fill-rule="evenodd" clip-rule="evenodd" d="M9.01 23.031c.508 6.229 5.724 11.125 12.084 11.125 2.83 0 5.43-.968 7.493-2.592a1 1 0 1 1 1.238 1.571 14.07 14.07 0 0 1-8.731 3.021c-7.801 0-14.125-6.324-14.125-14.125a1 1 0 0 1 1-1h26.25a1 1 0 0 1 1 1c0 2.992-.933 5.77-2.521 8.054a1 1 0 1 1-1.642-1.142 12.05 12.05 0 0 0 2.122-5.912z" fill="#101828"/><path d="M46.594 37.219a9.375 9.375 0 0 1-9.375 9.375 9.375 9.375 0 0 1-9.375-9.375 9.375 9.375 0 0 1 9.375-9.375 9.375 9.375 0 0 1 9.375 9.375" fill="url(#b)"/><path fill-rule="evenodd" clip-rule="evenodd" d="M26.844 37.219c0 5.73 4.645 10.375 10.375 10.375s10.375-4.645 10.375-10.375-4.645-10.375-10.375-10.375-10.375 4.645-10.375 10.375m10.375 8.375a8.375 8.375 0 1 1 0-16.75 8.375 8.375 0 0 1 0 16.75" fill="url(#c)"/><path fill-rule="evenodd" clip-rule="evenodd" d="M35.187 40.578a1 1 0 0 0 1.408.005l5.076-4.995a1 1 0 1 0-1.403-1.426l-4.369 4.3-1.95-1.95a1 1 0 0 0-1.414 1.414z" fill="#fff"/></g><defs><linearGradient id="b" x1="37.219" y1="46.594" x2="37.219" y2="27.844" gradientUnits="userSpaceOnUse"><stop stop-color="#16B364"/><stop offset="1" stop-color="#CDE762"/></linearGradient><linearGradient id="c" x1="37.219" y1="47.594" x2="37.219" y2="26.844" gradientUnits="userSpaceOnUse"><stop stop-color="#16B364"/><stop offset="1" stop-color="#CDE762"/></linearGradient><clipPath id="a"><path fill="#fff" d="M0 0h48v48H0z"/></clipPath></defs></svg>