<svg width="40" height="40" viewBox="0 0 40 40" fill="none" xmlns="http://www.w3.org/2000/svg">
<path d="M8.20312 12.1094C8.20312 10.3834 9.60219 8.98438 11.3281 8.98438C13.0541 8.98438 14.4531 10.3834 14.4531 12.1094" stroke="#101828" stroke-width="2" stroke-miterlimit="10" stroke-linecap="round" stroke-linejoin="round"/>
<path d="M26.9531 12.1094C26.9531 10.3834 25.5541 8.98438 23.8281 8.98438C22.1022 8.98438 20.7031 10.3834 20.7031 12.1094" stroke="#101828" stroke-width="2" stroke-miterlimit="10" stroke-linecap="round" stroke-linejoin="round"/>
<path d="M32.9071 23.4342C33.6023 21.6153 33.9844 19.6414 33.9844 17.5781C33.9844 8.51727 26.6391 1.17188 17.5781 1.17188C8.51727 1.17188 1.17188 8.51727 1.17188 17.5781C1.17188 26.639 8.51727 33.9844 17.5781 33.9844C19.6414 33.9844 21.6153 33.6023 23.4342 32.9071" stroke="#101828" stroke-width="2" stroke-miterlimit="10" stroke-linecap="round" stroke-linejoin="round"/>
<path d="M26.5641 24.5953C27.7941 22.8262 28.5156 20.6773 28.5156 18.3594H6.64062C6.64062 24.3999 11.5375 29.2969 17.5781 29.2969C20.13 29.2969 22.4776 28.4229 24.3383 26.958" stroke="#101828" stroke-width="2" stroke-miterlimit="10" stroke-linecap="round" stroke-linejoin="round"/>
<path d="M37.8281 30.0156C37.8281 34.3304 34.3304 37.8281 30.0156 37.8281C25.7009 37.8281 22.2031 34.3304 22.2031 30.0156C22.2031 25.7009 25.7009 22.2031 30.0156 22.2031C34.3304 22.2031 37.8281 25.7009 37.8281 30.0156Z" fill="#009640" stroke="#009640" stroke-width="2" stroke-miterlimit="10" stroke-linecap="round" stroke-linejoin="round"/>
<path d="M26.7012 30.0157L28.9109 32.2253L33.1408 28.0625" stroke="white" stroke-width="2" stroke-miterlimit="10" stroke-linecap="round" stroke-linejoin="round"/>
</svg>
