<svg width="48" height="48" viewBox="0 0 64 64" fill="none" xmlns="http://www.w3.org/2000/svg"><g clip-path="url(#a)"><path fill-rule="evenodd" clip-rule="evenodd" d="M.375 6.875a6.5 6.5 0 0 1 6.5-6.5h50.25a6.5 6.5 0 0 1 6.5 6.5v50.25a6.5 6.5 0 0 1-6.5 6.5H6.875a6.5 6.5 0 0 1-6.5-6.5V6.875Zm6.5-3.5a3.5 3.5 0 0 0-3.5 3.5v50.25a3.5 3.5 0 0 0 3.5 3.5h50.25a3.5 3.5 0 0 0 3.5-3.5V6.875a3.5 3.5 0 0 0-3.5-3.5H6.875Z" fill="#344054"/><path fill-rule="evenodd" clip-rule="evenodd" d="M.375 47a1.5 1.5 0 0 1 1.5-1.5H62a1.5 1.5 0 0 1 0 3H1.875a1.5 1.5 0 0 1-1.5-1.5Z" fill="#344054"/><path d="M56.375 54.5a1.875 1.875 0 1 0-3.75 0 1.875 1.875 0 0 0 3.75 0Zm-7.5 0a1.875 1.875 0 1 0-3.75 0 1.875 1.875 0 0 0 3.75 0Zm-7.5 0a1.875 1.875 0 1 0-3.75 0 1.875 1.875 0 0 0 3.75 0Z" fill="#344054"/><path d="m46.865 28.752-3.75 6.496-1.74-1.005c-2.5-1.444-5.625.36-5.625 3.247v2.01h-7.5v-2.01c0-2.886-3.125-4.69-5.625-3.247l-1.74 1.005-3.75-6.496 1.74-1.004c2.5-1.444 2.5-5.052 0-6.496l-1.74-1.004 3.75-6.496 1.74 1.005c2.5 1.444 5.625-.36 5.625-3.247V9.5h7.5v2.01c0 2.886 3.125 4.69 5.625 3.247l1.74-1.005 3.75 6.496-1.74 1.004c-2.5 1.444-2.5 5.052 0 6.496l1.74 1.004Z" fill="url(#b)"/><path fill-rule="evenodd" clip-rule="evenodd" d="M26.75 9.5a1.5 1.5 0 0 1 1.5-1.5h7.5a1.5 1.5 0 0 1 1.5 1.5v2.01c0 1.732 1.875 2.814 3.375 1.948l1.74-1.005a1.5 1.5 0 0 1 2.05.55l3.75 6.495a1.5 1.5 0 0 1-.55 2.049l-1.74 1.004c-1.5.866-1.5 3.032 0 3.898l1.74 1.004a1.5 1.5 0 0 1 .55 2.05l-3.75 6.495a1.5 1.5 0 0 1-2.05.549l-1.74-1.005c-1.5-.866-3.375.216-3.375 1.948v2.01a1.5 1.5 0 0 1-1.5 1.5h-7.5a1.5 1.5 0 0 1-1.5-1.5v-2.01c0-1.732-1.875-2.814-3.375-1.948l-1.74 1.005a1.5 1.5 0 0 1-2.05-.55l-3.75-6.495a1.5 1.5 0 0 1 .55-2.049l1.74-1.004c1.5-.866 1.5-3.032 0-3.898l-1.74-1.004a1.5 1.5 0 0 1-.55-2.05l3.75-6.495a1.5 1.5 0 0 1 2.05-.549l1.74 1.005c1.5.866 3.375-.216 3.375-1.948V9.5Zm3 1.5v.51c0 4.041-4.375 6.567-7.875 4.546l-.441-.255-2.25 3.898.441.254c3.5 2.021 3.5 7.073 0 9.094l-.441.254 2.25 3.898.441-.255c3.5-2.021 7.875.505 7.875 4.546V38h4.5v-.51c0-4.041 4.375-6.567 7.875-4.546l.441.255 2.25-3.897-.441-.255c-3.5-2.021-3.5-7.073 0-9.094l.441-.254-2.25-3.898-.441.255c-3.5 2.02-7.875-.505-7.875-4.546V11h-4.5Z" fill="url(#c)"/><path d="M35.75 24.5a3.75 3.75 0 1 0-7.5 0 3.75 3.75 0 0 0 7.5 0Z" fill="#fff"/></g><defs><linearGradient id="b" x1="32" y1="9.5" x2="32" y2="39.5" gradientUnits="userSpaceOnUse"><stop stop-color="#16B364"/><stop offset="1" stop-color="#CDE762"/></linearGradient><linearGradient id="c" x1="32" y1="8" x2="32" y2="41" gradientUnits="userSpaceOnUse"><stop stop-color="#16B364"/><stop offset="1" stop-color="#CDE762"/></linearGradient><clipPath id="a"><path fill="#fff" d="M0 0h64v64H0z"/></clipPath></defs></svg>