<svg  width="currentWidth" height="currentHeight" viewBox="0 0 64 64" fill="none" xmlns="http://www.w3.org/2000/svg">
  <g clip-path="url(#a)">
    <path d="M57.125 1.875H6.875a5 5 0 0 0-5 5v50.25a5 5 0 0 0 5 5h50.25a5 5 0 0 0 5-5V6.875a5 5 0 0 0-5-5ZM1.875 47H62" stroke="#98A2B3" stroke-width="3" stroke-miterlimit="10" stroke-linecap="round" stroke-linejoin="round"/>
    <path d="M56.375 54.5a1.875 1.875 0 1 0-3.75 0 1.875 1.875 0 0 0 3.75 0Zm-7.5 0a1.875 1.875 0 1 0-3.75 0 1.875 1.875 0 0 0 3.75 0Zm-7.5 0a1.875 1.875 0 1 0-3.75 0 1.875 1.875 0 0 0 3.75 0Z" fill="#98A2B3"/>
    <path d="m46.865 28.752-3.75 6.496-1.74-1.005c-2.5-1.444-5.625.36-5.625 3.247v2.01h-7.5v-2.01c0-2.886-3.125-4.69-5.625-3.247l-1.74 1.005-3.75-6.496 1.74-1.004c2.5-1.444 2.5-5.052 0-6.496l-1.74-1.004 3.75-6.496 1.74 1.005c2.5 1.444 5.625-.36 5.625-3.247V9.5h7.5v2.01c0 2.886 3.125 4.69 5.625 3.247l1.74-1.005 3.75 6.496-1.74 1.004c-2.5 1.444-2.5 5.052 0 6.496l1.74 1.004Z" fill="#009640" stroke="#009640" stroke-width="3" stroke-miterlimit="10" stroke-linecap="round" stroke-linejoin="round"/>
    <path d="M35.75 24.5a3.75 3.75 0 1 0-7.5 0 3.75 3.75 0 0 0 7.5 0Z" fill="#fff"/>
  </g>
  <defs>
    <clipPath id="a">
      <path fill="#fff" d="M0 0h64v64H0z"/>
    </clipPath>
  </defs>
</svg>
