<svg  width="currentWidth" height="currentHeight" viewBox="0 0 64 64" fill="none" xmlns="http://www.w3.org/2000/svg">
  <path d="M32 33v23m5-28a5 5 0 1 1-10 0 5 5 0 0 1 10 0Z" stroke="#98A2B3" stroke-width="3" stroke-miterlimit="10" stroke-linecap="round" stroke-linejoin="round"/>
  <path d="M22 37.686c-5.077-5.077-5.077-13.308 0-18.384m20 0c5.077 5.076 5.077 13.307 0 18.384m-25.657 5.657c-8.2-8.2-8.2-21.497 0-29.698m31.314 0c8.2 8.2 8.2 21.497 0 29.698" stroke="#009640" stroke-width="3" stroke-miterlimit="10" stroke-linecap="round" stroke-linejoin="round"/>
  <path d="M10.686 49c-11.748-11.748-11.748-29.264 0-41.012m42.628 0c11.748 11.748 11.748 29.264 0 41.012" stroke="#009640" stroke-width="3" stroke-miterlimit="10" stroke-linecap="round" stroke-linejoin="round"/>
</svg>
