<svg width="48" height="48" viewBox="0 0 64 64" fill="none" xmlns="http://www.w3.org/2000/svg"><path fill-rule="evenodd" clip-rule="evenodd" d="M32 57.5a1.5 1.5 0 0 0 1.5-1.5V33a1.5 1.5 0 0 0-3 0v23a1.5 1.5 0 0 0 1.5 1.5Z" fill="#475467"/><path fill-rule="evenodd" clip-rule="evenodd" d="M25.5 28a6.5 6.5 0 1 0 13 0 6.5 6.5 0 0 0-13 0Zm6.5 3.5a3.5 3.5 0 1 1 0-7 3.5 3.5 0 0 1 0 7Z" fill="#475467"/><path fill-rule="evenodd" clip-rule="evenodd" d="M23.06 38.747a1.5 1.5 0 0 0 0-2.121c-4.49-4.491-4.49-11.773 0-16.264a1.5 1.5 0 1 0-2.12-2.121c-5.663 5.662-5.663 14.843 0 20.506a1.5 1.5 0 0 0 2.12 0Z" fill="url(#a)"/><path fill-rule="evenodd" clip-rule="evenodd" d="M40.94 38.747a1.5 1.5 0 0 0 2.12 0c5.663-5.663 5.663-14.844 0-20.506a1.5 1.5 0 0 0-2.12 2.121c4.49 4.491 4.49 11.773 0 16.264a1.5 1.5 0 0 0 0 2.12Z" fill="url(#b)"/><path fill-rule="evenodd" clip-rule="evenodd" d="M17.404 44.404a1.5 1.5 0 0 0 0-2.122c-7.615-7.615-7.615-19.961 0-27.577a1.5 1.5 0 1 0-2.121-2.121c-8.787 8.787-8.787 23.033 0 31.82a1.5 1.5 0 0 0 2.12 0Z" fill="url(#c)"/><path fill-rule="evenodd" clip-rule="evenodd" d="M46.596 44.404a1.5 1.5 0 0 0 2.121 0c8.787-8.787 8.787-23.033 0-31.82a1.5 1.5 0 1 0-2.12 2.121c7.614 7.615 7.614 19.962 0 27.577a1.5 1.5 0 0 0 0 2.122Z" fill="url(#d)"/><path fill-rule="evenodd" clip-rule="evenodd" d="M11.747 50.06a1.5 1.5 0 0 0 0-2.12C.584 36.776.584 20.21 11.747 9.047a1.5 1.5 0 1 0-2.121-2.12C-2.71 19.26-2.71 37.726 9.626 50.06a1.5 1.5 0 0 0 2.12 0Z" fill="url(#e)"/><path fill-rule="evenodd" clip-rule="evenodd" d="M52.253 50.06a1.5 1.5 0 0 0 2.121 0c12.334-12.334 12.334-30.799 0-43.133a1.5 1.5 0 1 0-2.12 2.121c11.162 11.163 11.162 27.729 0 38.891a1.5 1.5 0 0 0 0 2.122Z" fill="url(#f)"/><defs><linearGradient id="a" x1="20.096" y1="39.186" x2="20.096" y2="17.802" gradientUnits="userSpaceOnUse"><stop stop-color="#16B364"/><stop offset="1" stop-color="#CDE762"/></linearGradient><linearGradient id="b" x1="43.904" y1="39.186" x2="43.904" y2="17.802" gradientUnits="userSpaceOnUse"><stop stop-color="#16B364"/><stop offset="1" stop-color="#CDE762"/></linearGradient><linearGradient id="c" x1="13.268" y1="44.843" x2="13.268" y2="12.145" gradientUnits="userSpaceOnUse"><stop stop-color="#16B364"/><stop offset="1" stop-color="#CDE762"/></linearGradient><linearGradient id="d" x1="50.732" y1="44.843" x2="50.732" y2="12.145" gradientUnits="userSpaceOnUse"><stop stop-color="#16B364"/><stop offset="1" stop-color="#CDE762"/></linearGradient><linearGradient id="e" x1="6.281" y1="50.5" x2="6.281" y2="6.488" gradientUnits="userSpaceOnUse"><stop stop-color="#16B364"/><stop offset="1" stop-color="#CDE762"/></linearGradient><linearGradient id="f" x1="57.719" y1="50.5" x2="57.719" y2="6.488" gradientUnits="userSpaceOnUse"><stop stop-color="#16B364"/><stop offset="1" stop-color="#CDE762"/></linearGradient></defs></svg>