<svg width="49" height="48" viewBox="0 0 49 48" fill="none" xmlns="http://www.w3.org/2000/svg">
<path fill-rule="evenodd" clip-rule="evenodd" d="M15.2158 20.2342C15.2158 18.4347 16.672 16.9749 18.4752 16.9749H19.2283C21.0315 16.9749 22.4877 18.4347 22.4877 20.2342V27.7654C22.4877 29.565 21.0315 31.0248 19.2283 31.0248H18.4752C16.672 31.0248 15.2158 29.565 15.2158 27.7654V20.2342ZM18.4752 18.9749C17.7779 18.9749 17.2158 19.5379 17.2158 20.2342V27.7654C17.2158 28.4617 17.7779 29.0248 18.4752 29.0248H19.2283C19.9256 29.0248 20.4877 28.4617 20.4877 27.7654V20.2342C20.4877 19.5379 19.9256 18.9749 19.2283 18.9749H18.4752Z" fill="black"/>
<path fill-rule="evenodd" clip-rule="evenodd" d="M33.2313 17.0806C33.7252 17.3276 33.9255 17.9283 33.6785 18.4223L27.6534 30.4723C27.4064 30.9663 26.8058 31.1666 26.3118 30.9196C25.8178 30.6726 25.6176 30.0719 25.8646 29.5779L31.8896 17.5279C32.1366 17.0339 32.7373 16.8337 33.2313 17.0806Z" fill="black"/>
<path fill-rule="evenodd" clip-rule="evenodd" d="M26.7598 16.9749C27.3121 16.9749 27.7598 17.4226 27.7598 17.9749V18.728C27.7598 19.2803 27.3121 19.728 26.7598 19.728C26.2075 19.728 25.7598 19.2803 25.7598 18.728V17.9749C25.7598 17.4226 26.2075 16.9749 26.7598 16.9749Z" fill="black"/>
<path fill-rule="evenodd" clip-rule="evenodd" d="M32.7842 28.2717C33.3365 28.2717 33.7842 28.7194 33.7842 29.2717V30.0249C33.7842 30.5772 33.3365 31.0249 32.7842 31.0249C32.2319 31.0249 31.7842 30.5772 31.7842 30.0249V29.2717C31.7842 28.7194 32.2319 28.2717 32.7842 28.2717Z" fill="black"/>
<path fill-rule="evenodd" clip-rule="evenodd" d="M47.0938 24C47.0938 36.4782 36.9782 46.5938 24.5 46.5938C12.0218 46.5938 1.90625 36.4782 1.90625 24C1.90625 11.5218 12.0218 1.40625 24.5 1.40625C36.9782 1.40625 47.0938 11.5218 47.0938 24ZM41.0686 24C41.0686 33.1506 33.6505 40.5687 24.4999 40.5687C15.3492 40.5687 7.93115 33.1506 7.93115 24C7.93115 14.8493 15.3492 7.43127 24.4999 7.43127C33.6505 7.43127 41.0686 14.8493 41.0686 24Z" fill="#009640"/>
</svg>
