<svg width="24" height="24" viewBox="0 0 24 24" fill="none" xmlns="http://www.w3.org/2000/svg">
<path d="M10.25 17.65L8.125 15.525C7.925 15.325 7.825 15.0833 7.825 14.8C7.825 14.5167 7.925 14.275 8.125 14.075C8.325 13.875 8.56667 13.775 8.85 13.775C9.13333 13.775 9.375 13.875 9.575 14.075L10.95 15.45L14.425 11.975C14.625 11.775 14.8667 11.675 15.15 11.675C15.4333 11.675 15.675 11.775 15.875 11.975C16.075 12.175 16.175 12.4167 16.175 12.7C16.175 12.9833 16.075 13.225 15.875 13.425L11.65 17.65C11.45 17.85 11.2167 17.95 10.95 17.95C10.6833 17.95 10.45 17.85 10.25 17.65ZM5 22C4.45 22 3.979 21.8043 3.587 21.413C3.19567 21.021 3 20.55 3 20V6C3 5.45 3.19567 4.97933 3.587 4.588C3.979 4.196 4.45 4 5 4H6V3C6 2.71667 6.09567 2.479 6.287 2.287C6.479 2.09567 6.71667 2 7 2C7.28333 2 7.521 2.09567 7.713 2.287C7.90433 2.479 8 2.71667 8 3V4H16V3C16 2.71667 16.096 2.479 16.288 2.287C16.4793 2.09567 16.7167 2 17 2C17.2833 2 17.5207 2.09567 17.712 2.287C17.904 2.479 18 2.71667 18 3V4H19C19.55 4 20.021 4.196 20.413 4.588C20.8043 4.97933 21 5.45 21 6V20C21 20.55 20.8043 21.021 20.413 21.413C20.021 21.8043 19.55 22 19 22H5ZM5 20H19V10H5V20ZM5 8H19V6H5V8Z" fill="#101828"/>
</svg>
