<svg width="24" height="24" viewBox="0 0 24 24" fill="none" xmlns="http://www.w3.org/2000/svg">
<mask id="mask0_2_22510" style="mask-type:alpha" maskUnits="userSpaceOnUse" x="0" y="0" width="24" height="24">
<rect width="24" height="24" fill="#D9D9D9"/>
</mask>
<g mask="url(#mask0_2_22510)">
<path d="M13.9 16.925C14.1833 17.0417 14.4542 17.0458 14.7125 16.9375C14.9708 16.8292 15.1417 16.6417 15.225 16.375C15.4583 15.675 15.6292 14.9625 15.7375 14.2375C15.8458 13.5125 15.9 12.7667 15.9 12C15.9 11.2333 15.8458 10.4875 15.7375 9.7625C15.6292 9.0375 15.4583 8.325 15.225 7.625C15.1417 7.35833 14.9667 7.16667 14.7 7.05C14.4333 6.93333 14.1583 6.94167 13.875 7.075C13.6417 7.175 13.4708 7.34583 13.3625 7.5875C13.2542 7.82917 13.2417 8.075 13.325 8.325C13.5083 8.90833 13.65 9.50833 13.75 10.125C13.85 10.7417 13.9 11.3667 13.9 12C13.9 12.6333 13.85 13.2583 13.75 13.875C13.65 14.4917 13.5083 15.0917 13.325 15.675C13.2417 15.925 13.2583 16.1708 13.375 16.4125C13.4917 16.6542 13.6667 16.825 13.9 16.925ZM10.675 15.625C10.9417 15.725 11.2 15.7208 11.45 15.6125C11.7 15.5042 11.8667 15.325 11.95 15.075C12.1 14.5917 12.2125 14.0917 12.2875 13.575C12.3625 13.0583 12.4 12.5333 12.4 12C12.4 11.4667 12.3625 10.9417 12.2875 10.425C12.2125 9.90833 12.1 9.40833 11.95 8.925C11.8667 8.675 11.7 8.49167 11.45 8.375C11.2 8.25833 10.9417 8.25833 10.675 8.375C10.4417 8.475 10.2667 8.64583 10.15 8.8875C10.0333 9.12917 10.0167 9.39167 10.1 9.675C10.2167 10.0583 10.2958 10.4417 10.3375 10.825C10.3792 11.2083 10.4 11.6 10.4 12C10.4 12.4 10.3792 12.7917 10.3375 13.175C10.2958 13.5583 10.2167 13.9417 10.1 14.325C10.0167 14.6083 10.0292 14.8708 10.1375 15.1125C10.2458 15.3542 10.425 15.525 10.675 15.625ZM7.425 14.25C7.70833 14.3667 7.975 14.3667 8.225 14.25C8.475 14.1333 8.63333 13.9333 8.7 13.65C8.76667 13.3833 8.81667 13.1125 8.85 12.8375C8.88333 12.5625 8.9 12.2833 8.9 12C8.9 11.7167 8.88333 11.4375 8.85 11.1625C8.81667 10.8875 8.76667 10.6167 8.7 10.35C8.63333 10.0667 8.475 9.86667 8.225 9.75C7.975 9.63333 7.70833 9.63333 7.425 9.75C7.19167 9.83333 7.01667 9.99583 6.9 10.2375C6.78333 10.4792 6.75 10.7333 6.8 11C6.83333 11.1667 6.85833 11.3333 6.875 11.5C6.89167 11.6667 6.9 11.8333 6.9 12C6.9 12.1667 6.89167 12.3333 6.875 12.5C6.85833 12.6667 6.83333 12.8333 6.8 13C6.75 13.2667 6.78333 13.5167 6.9 13.75C7.01667 13.9833 7.19167 14.15 7.425 14.25ZM12 22C10.6167 22 9.31667 21.7375 8.1 21.2125C6.88333 20.6875 5.825 19.975 4.925 19.075C4.025 18.175 3.3125 17.1167 2.7875 15.9C2.2625 14.6833 2 13.3833 2 12C2 10.6167 2.2625 9.31667 2.7875 8.1C3.3125 6.88333 4.025 5.825 4.925 4.925C5.825 4.025 6.88333 3.3125 8.1 2.7875C9.31667 2.2625 10.6167 2 12 2C13.3833 2 14.6833 2.2625 15.9 2.7875C17.1167 3.3125 18.175 4.025 19.075 4.925C19.975 5.825 20.6875 6.88333 21.2125 8.1C21.7375 9.31667 22 10.6167 22 12C22 13.3833 21.7375 14.6833 21.2125 15.9C20.6875 17.1167 19.975 18.175 19.075 19.075C18.175 19.975 17.1167 20.6875 15.9 21.2125C14.6833 21.7375 13.3833 22 12 22Z" fill="white"/>
</g>
</svg>
