<svg width="37" height="36" viewBox="0 0 37 36" fill="none" xmlns="http://www.w3.org/2000/svg">
  <g clip-path="url(#a)">
    <path d="M32.814 33.469H3.436a2.256 2.256 0 0 1-2.256-2.257V7.615A2.256 2.256 0 0 1 3.436 5.36h29.378a2.256 2.256 0 0 1 2.256 2.256v23.597a2.256 2.256 0 0 1-2.256 2.257ZM1.18 11.663h33.89" stroke="#101828" stroke-width="2" stroke-miterlimit="10"/>
    <path d="M18.137 7.862V2.558M5.973 7.835V2.531m6.082 5.304V2.531m18.488 5.304V2.531M24.34 7.862V2.558" stroke="#101828" stroke-width="2" stroke-miterlimit="10" stroke-linecap="round"/>
    <path d="M30.538 30.6h-8.854a.973.973 0 0 1-.973-.973v-8.854c0-.537.436-.973.973-.973h8.854c.537 0 .973.436.973.973v8.854a.973.973 0 0 1-.973.973Z" fill="#009640"/>
    <path d="m24.164 25.792 1.013 1.007a.69.69 0 0 0 .974 0l2.513-2.499" stroke="#F2F4F7" stroke-width="2" stroke-miterlimit="10" stroke-linecap="round"/>
  </g>
  <defs>
    <clipPath id="a">
      <path fill="#fff" d="M.125 0h36v36h-36z"/>
    </clipPath>
  </defs>
</svg>
