<svg width="37" height="36" viewBox="0 0 37 36" fill="none" xmlns="http://www.w3.org/2000/svg">
<g clip-path="url(#clip0_3910_13634)">
<path fill-rule="evenodd" clip-rule="evenodd" d="M25.2164 4.60882H29.9193V2.53125C29.9193 2.11704 30.2551 1.78125 30.6693 1.78125C31.0835 1.78125 31.4193 2.11704 31.4193 2.53125V4.60882H32.9389C34.5993 4.60882 35.9453 5.95477 35.9453 7.61515V31.2124C35.9453 32.8728 34.5993 34.2188 32.9389 34.2188H3.56109C1.90065 34.2188 0.554688 32.8728 0.554688 31.2124V7.61515C0.554688 5.95477 1.90067 4.60882 3.56109 4.60882H5.34784V2.53125C5.34784 2.11704 5.68363 1.78125 6.09784 1.78125C6.51205 1.78125 6.84784 2.11704 6.84784 2.53125V4.60882H11.4306V2.53125C11.4306 2.11704 11.7664 1.78125 12.1806 1.78125C12.5948 1.78125 12.9306 2.11704 12.9306 2.53125V4.60882H17.5134V2.5578C17.5134 2.14359 17.8492 1.8078 18.2634 1.8078C18.6776 1.8078 19.0134 2.14359 19.0134 2.5578V4.60882H23.7164V2.5578C23.7164 2.14359 24.0522 1.8078 24.4664 1.8078C24.8806 1.8078 25.2164 2.14359 25.2164 2.5578V4.60882ZM6.09784 8.58492C6.51205 8.58492 6.84784 8.24914 6.84784 7.83492V6.10882H11.4306V7.83492C11.4306 8.24914 11.7664 8.58492 12.1806 8.58492C12.5948 8.58492 12.9306 8.24914 12.9306 7.83492V6.10882H17.5134V7.86147C17.5134 8.27569 17.8492 8.61147 18.2634 8.61147C18.6776 8.61147 19.0134 8.27569 19.0134 7.86147V6.10882H23.7164V7.86147C23.7164 8.27569 24.0522 8.61147 24.4664 8.61147C24.8806 8.61147 25.2164 8.27569 25.2164 7.86147V6.10882H29.9193V7.83492C29.9193 8.24914 30.2551 8.58492 30.6693 8.58492C31.0835 8.58492 31.4193 8.24914 31.4193 7.83492V6.10882H32.9389C33.7709 6.10882 34.4453 6.78323 34.4453 7.61515V10.9127H2.05469V7.61515C2.05469 6.78323 2.72907 6.10882 3.56109 6.10882H5.34784V7.83492C5.34784 8.24914 5.68363 8.58492 6.09784 8.58492ZM3.56109 32.7188C2.72908 32.7188 2.05469 32.0444 2.05469 31.2124V12.4127H34.4453V31.2124C34.4453 32.0444 33.7709 32.7188 32.9389 32.7188H3.56109Z" fill="#101828"/>
<path d="M30.6628 30.6001H21.8089C21.2717 30.6001 20.8359 30.1645 20.8359 29.6269V20.7731C20.8359 20.2357 21.2717 19.8001 21.8089 19.8001H30.6628C31.2003 19.8001 31.6359 20.2357 31.6359 20.7731V29.6269C31.6359 30.1645 31.2003 30.6001 30.6628 30.6001Z" fill="url(#paint0_linear_3910_13634)"/>
<path fill-rule="evenodd" clip-rule="evenodd" d="M25.7891 26.2259L24.8179 25.2601C24.5242 24.968 24.0493 24.9693 23.7573 25.263C23.4652 25.5567 23.4665 26.0316 23.7602 26.3237L24.7734 27.3313C25.3348 27.8896 26.2433 27.8897 26.8047 27.3313L29.3179 24.8318C29.6116 24.5397 29.6129 24.0649 29.3208 23.7712C29.0288 23.4775 28.5539 23.4762 28.2602 23.7683L25.7891 26.2259Z" fill="#F2F4F7"/>
</g>
<defs>
<linearGradient id="paint0_linear_3910_13634" x1="26.2359" y1="30.6001" x2="26.2359" y2="19.8001" gradientUnits="userSpaceOnUse">
<stop stop-color="#16B364"/>
<stop offset="1" stop-color="#CDE762"/>
</linearGradient>
<clipPath id="clip0_3910_13634">
<rect width="36" height="36" fill="white" transform="translate(0.25)"/>
</clipPath>
</defs>
</svg>
