<svg width="37" height="36" viewBox="0 0 37 36" fill="none" xmlns="http://www.w3.org/2000/svg">
<path fill-rule="evenodd" clip-rule="evenodd" d="M26.5772 10.8642C26.818 10.5271 27.2864 10.4491 27.6234 10.6898L33.9516 15.2099C34.1487 15.3507 34.2656 15.578 34.2656 15.8202V32.8358C34.2656 34.4151 32.9855 35.6952 31.4062 35.6952H6.09375C4.51453 35.6952 3.23438 34.4151 3.23438 32.8358V15.8202C3.23438 15.578 3.35135 15.3507 3.54845 15.2099L9.87657 10.6899C10.2136 10.4491 10.682 10.5272 10.9228 10.8643C11.1636 11.2013 11.0855 11.6697 10.7484 11.9105L4.73438 16.2062V32.8358C4.73438 33.5866 5.34296 34.1952 6.09375 34.1952H31.4062C32.157 34.1952 32.7656 33.5866 32.7656 32.8358V16.2062L26.7516 11.9104C26.4145 11.6696 26.3364 11.2012 26.5772 10.8642Z" fill="#101828"/>
<path d="M10.3125 0.304688C9.89829 0.304688 9.5625 0.640474 9.5625 1.05469V20.039C9.5625 20.2805 9.67879 20.5072 9.87494 20.6481L18.3124 26.7091C18.5686 26.8931 18.9124 26.8972 19.1728 26.7194L27.6103 20.9599C27.815 20.8201 27.9375 20.5883 27.9375 20.3404V1.05469C27.9375 0.640474 27.6017 0.304688 27.1875 0.304688H10.3125Z" fill="url(#paint0_linear_3910_13625)"/>
<path fill-rule="evenodd" clip-rule="evenodd" d="M3.37414 15.3844C3.61489 15.0474 4.08331 14.9693 4.42036 15.2101L18.7499 25.4456L33.0796 15.2101C33.4167 14.9693 33.8851 15.0474 34.1258 15.3844C34.3666 15.7215 34.2885 16.1899 33.9515 16.4307L19.1858 26.9775C18.9251 27.1638 18.5748 27.1638 18.314 26.9775L3.5485 16.4307C3.21144 16.1899 3.13338 15.7215 3.37414 15.3844Z" fill="#101828"/>
<path fill-rule="evenodd" clip-rule="evenodd" d="M17.9348 6.66464C17.4742 6.74909 17.0247 6.92354 16.638 7.20674C15.9997 7.67429 15.5828 8.40557 15.5743 9.35074C15.5664 10.2454 15.9347 10.8992 16.4904 11.3638C17.0021 11.7916 17.6586 12.0462 18.2156 12.2429C18.2394 12.2513 18.2633 12.2584 18.2873 12.2643C18.3521 12.2868 18.4157 12.3087 18.478 12.3302L18.479 12.3306L18.4798 12.3308C19.0331 12.5214 19.4907 12.6791 19.8571 12.913C20.0641 13.0452 20.2002 13.179 20.2863 13.3197C20.3683 13.4539 20.429 13.6332 20.4266 13.9008C20.4224 14.3688 20.236 14.658 19.9765 14.848C19.692 15.0564 19.2712 15.1756 18.8032 15.1605C18.3362 15.1455 17.8983 14.9987 17.5959 14.77C17.3098 14.5535 17.1508 14.2742 17.1508 13.9164C17.1508 13.5021 16.815 13.1664 16.4008 13.1664C15.9865 13.1664 15.6508 13.5021 15.6508 13.9164C15.6508 14.8096 16.0855 15.5081 16.6909 15.9662C17.0937 16.2709 17.5722 16.4723 18.0659 16.5766V17.6161C18.0659 18.0303 18.4017 18.3661 18.8159 18.3661C19.2301 18.3661 19.5659 18.0303 19.5659 17.6161V16.6003C20.0265 16.5158 20.4761 16.3414 20.8628 16.0582C21.5011 15.5906 21.918 14.8594 21.9265 13.9142C21.9312 13.391 21.807 12.9314 21.566 12.5372C21.3289 12.1495 21.0036 11.8654 20.6643 11.6488C20.1314 11.3085 19.4599 11.0792 18.901 10.8884C18.788 10.8498 18.6795 10.8128 18.5778 10.7767C18.5611 10.7708 18.5444 10.7656 18.5277 10.7609C18.0602 10.5883 17.7025 10.4221 17.4525 10.213C17.2142 10.0137 17.0706 9.77565 17.0743 9.36414C17.0785 8.89613 17.2649 8.60692 17.5244 8.41686C17.8089 8.20848 18.2296 8.08933 18.6976 8.10438C19.1646 8.1194 19.6026 8.26621 19.9049 8.49495C20.191 8.71147 20.3501 8.99072 20.3501 9.34858C20.3501 9.76279 20.6859 10.0986 21.1001 10.0986C21.5143 10.0986 21.8501 9.76279 21.8501 9.34858C21.8501 8.45529 21.4153 7.75679 20.81 7.29876C20.4071 6.99398 19.9285 6.79262 19.4348 6.68829V5.68091C19.4348 5.26669 19.099 4.93091 18.6848 4.93091C18.2706 4.93091 17.9348 5.26669 17.9348 5.68091V6.66464Z" fill="white"/>
<path fill-rule="evenodd" clip-rule="evenodd" d="M26.4375 30.7266C26.4375 30.3123 26.7733 29.9766 27.1875 29.9766H29.2969C29.7111 29.9766 30.0469 30.3123 30.0469 30.7266C30.0469 31.1408 29.7111 31.4766 29.2969 31.4766H27.1875C26.7733 31.4766 26.4375 31.1408 26.4375 30.7266Z" fill="#101828"/>
<defs>
<linearGradient id="paint0_linear_3910_13625" x1="18.75" y1="0.304687" x2="18.75" y2="26.85" gradientUnits="userSpaceOnUse">
<stop stop-color="#16B364"/>
<stop offset="1" stop-color="#CDE762"/>
</linearGradient>
</defs>
</svg>
