<svg width="37" height="36" viewBox="0 0 37 36" fill="none" xmlns="http://www.w3.org/2000/svg">
<g clip-path="url(#clip0_3910_13628)">
<path fill-rule="evenodd" clip-rule="evenodd" d="M0.958378 35.6108C1.20645 35.74 1.50578 35.7203 1.73487 35.5599L11.2411 28.9035L21.5886 30.7169C22.3474 30.8499 23.1282 30.676 23.7594 30.2341L35.6255 21.9255C35.9648 21.6879 36.0473 21.2203 35.8097 20.8809L34.8526 19.514C34.0079 18.3077 32.3944 17.9274 31.0982 18.6238L23.8895 22.2869C23.5912 21.2571 22.731 20.4335 21.6029 20.2358L12.7884 18.691C10.387 18.2701 7.91528 18.8201 5.91669 20.2195L0.874503 23.7501C0.674059 23.8905 0.554688 24.1198 0.554688 24.3645V34.9456C0.554688 35.2252 0.710302 35.4817 0.958378 35.6108ZM23.8634 23.9827L31.7859 19.9569C31.7918 19.9539 31.7977 19.9508 31.8035 19.9476C32.4332 19.6064 33.2157 19.7916 33.6238 20.3743L34.1508 21.1269L22.8992 29.0053C22.593 29.2197 22.2146 29.3038 21.8475 29.2394L11.1945 27.3724C10.9989 27.3381 10.7976 27.3829 10.6349 27.4968L2.05469 33.5048V24.7549L6.77704 21.4483C8.45059 20.2765 10.5198 19.8163 12.5294 20.1685L21.3439 21.7133C22.1077 21.8471 22.6167 22.574 22.4813 23.3375C22.3454 24.1034 21.6137 24.6155 20.8477 24.4808M23.8634 23.9827C23.4262 25.3466 22.0374 26.213 20.5879 25.9581C19.4431 25.7568 18.0407 25.5106 16.9244 25.3148L14.9787 24.9736C14.5707 24.9021 14.2973 24.5133 14.3688 24.1053C14.4403 23.6973 14.829 23.4245 15.237 23.496L17.1835 23.8374C18.2999 24.0332 19.7026 24.2794 20.8477 24.4808" fill="#101828"/>
<path d="M12.8112 16.1225C10.8444 16.1225 9.25 14.528 9.25 12.5612C9.25 10.5945 10.8444 9 12.8112 9C14.778 9 16.3725 10.5945 16.3725 12.5612C16.3725 14.528 14.778 16.1225 12.8112 16.1225Z" fill="url(#paint0_linear_3910_13628)"/>
<path d="M17.3112 7.87247C15.3444 7.87247 13.75 6.27801 13.75 4.31123C13.75 2.34446 15.3444 0.75 17.3112 0.75C19.278 0.75 20.8725 2.34445 20.8725 4.31123C20.8725 6.27802 19.278 7.87247 17.3112 7.87247Z" fill="url(#paint1_linear_3910_13628)"/>
<path d="M22.905 15.5297C20.9381 15.5297 19.3438 13.9352 19.3438 11.9685C19.3438 10.0017 20.9381 8.40723 22.905 8.40723C24.8718 8.40723 26.4662 10.0017 26.4662 11.9685C26.4662 13.9352 24.8718 15.5297 22.905 15.5297Z" fill="url(#paint2_linear_3910_13628)"/>
</g>
<defs>
<linearGradient id="paint0_linear_3910_13628" x1="12.8112" y1="9" x2="12.8112" y2="16.1225" gradientUnits="userSpaceOnUse">
<stop stop-color="#16B364"/>
<stop offset="1" stop-color="#CDE762"/>
</linearGradient>
<linearGradient id="paint1_linear_3910_13628" x1="17.3112" y1="0.75" x2="17.3112" y2="7.87247" gradientUnits="userSpaceOnUse">
<stop stop-color="#16B364"/>
<stop offset="1" stop-color="#CDE762"/>
</linearGradient>
<linearGradient id="paint2_linear_3910_13628" x1="22.905" y1="8.40723" x2="22.905" y2="15.5297" gradientUnits="userSpaceOnUse">
<stop stop-color="#16B364"/>
<stop offset="1" stop-color="#CDE762"/>
</linearGradient>
<clipPath id="clip0_3910_13628">
<rect width="36" height="36" fill="white" transform="translate(0.25)"/>
</clipPath>
</defs>
</svg>
