<svg width="37" height="36" viewBox="0 0 37 36" fill="none" xmlns="http://www.w3.org/2000/svg">
  <path fill-rule="evenodd" clip-rule="evenodd" d="M26.702 10.864a.75.75 0 0 1 1.046-.174l6.329 4.52a.75.75 0 0 1 .314.61v17.016a2.86 2.86 0 0 1-2.86 2.86H6.22a2.86 2.86 0 0 1-2.86-2.86V15.82a.75.75 0 0 1 .314-.61l6.329-4.52a.75.75 0 1 1 .871 1.22L4.86 16.207v16.63c0 .75.609 1.36 1.36 1.36h25.31c.751 0 1.36-.61 1.36-1.36v-16.63l-6.014-4.296a.75.75 0 0 1-.175-1.046Z" fill="#101828"/>
  <path d="M10.438 20.039V1.055h16.874V20.34" fill="#009640"/>
  <path d="M10.438 20.039V1.055h16.874V20.34l-8.437 5.76-8.438-6.061Z" fill="#009640"/>
  <path fill-rule="evenodd" clip-rule="evenodd" d="M9.688 1.055a.75.75 0 0 1 .75-.75h16.874a.75.75 0 0 1 .75.75V20.34a.75.75 0 0 1-.327.62l-8.437 5.76a.75.75 0 0 1-.86-.01L10 20.647a.75.75 0 0 1-.313-.609V1.055Zm1.5.75v17.85l7.698 5.53 7.677-5.24V1.804H11.188Z" fill="#009640"/>
  <path fill-rule="evenodd" clip-rule="evenodd" d="M3.5 15.384a.75.75 0 0 1 1.045-.174l14.33 10.236 14.33-10.236a.75.75 0 1 1 .872 1.22L19.31 26.978a.75.75 0 0 1-.872 0L3.674 16.431a.75.75 0 0 1-.175-1.047Z" fill="#101828"/>
  <path fill-rule="evenodd" clip-rule="evenodd" d="M18.875 8.442a1.36 1.36 0 1 0 0 2.719.75.75 0 0 1 0 1.5 2.86 2.86 0 1 1 2.022-4.881.75.75 0 1 1-1.06 1.06 1.353 1.353 0 0 0-.962-.398Z" fill="#fff"/>
  <path fill-rule="evenodd" clip-rule="evenodd" d="M18.124 11.91a.75.75 0 0 1 .75-.75 2.86 2.86 0 1 1-2.021 4.882.75.75 0 1 1 1.06-1.06 1.36 1.36 0 1 0 .961-2.32.75.75 0 0 1-.75-.751Zm.751-7.077a.75.75 0 0 1 .75.75v2.11a.75.75 0 0 1-1.5 0v-2.11a.75.75 0 0 1 .75-.75Z" fill="#fff"/>
  <path fill-rule="evenodd" clip-rule="evenodd" d="M18.875 15.38a.75.75 0 0 1 .75.75v2.109a.75.75 0 0 1-1.5 0v-2.11a.75.75 0 0 1 .75-.75Z" fill="#fff"/>
  <path fill-rule="evenodd" clip-rule="evenodd" d="M26.563 30.727a.75.75 0 0 1 .75-.75h2.109a.75.75 0 1 1 0 1.5h-2.11a.75.75 0 0 1-.75-.75Z" fill="#101828"/>
</svg>
