<svg width="37" height="36" viewBox="0 0 37 36" fill="none" xmlns="http://www.w3.org/2000/svg"><g clip-path="url(#a)"><path fill-rule="evenodd" clip-rule="evenodd" d="M1.333 35.61a.75.75 0 0 0 .777-.05l9.506-6.657 10.348 1.814a2.91 2.91 0 0 0 2.17-.483l11.867-8.309a.75.75 0 0 0 .184-1.044l-.957-1.367a2.904 2.904 0 0 0-3.755-.89l-7.208 3.663a2.9 2.9 0 0 0-2.287-2.051l-8.815-1.545a9.21 9.21 0 0 0-6.871 1.529L1.25 23.75a.75.75 0 0 0-.32.614v10.582c0 .28.155.536.403.665Zm22.905-11.627 7.923-4.026a1.405 1.405 0 0 1 1.838.417l.527.753-11.252 7.878a1.41 1.41 0 0 1-1.052.234L11.57 27.372a.75.75 0 0 0-.56.125l-8.58 6.008v-8.75l4.723-3.307a7.71 7.71 0 0 1 5.752-1.28l8.815 1.545a1.4 1.4 0 0 1 1.137 1.624 1.412 1.412 0 0 1-1.633 1.144m3.015-.498a2.913 2.913 0 0 1-3.275 1.975l-3.664-.643-1.945-.341a.75.75 0 0 1 .258-1.478l1.946.341 3.665.644" fill="#101828"/><path d="M13.186 16.122a3.561 3.561 0 1 1 0-7.122 3.561 3.561 0 0 1 0 7.122Zm4.5-8.25a3.561 3.561 0 1 1 0-7.122 3.561 3.561 0 0 1 0 7.122Zm5.594 7.658a3.561 3.561 0 1 1 0-7.123 3.561 3.561 0 0 1 0 7.123Z" fill="#009640"/></g><defs><clipPath id="a"><path fill="#fff" d="M.625 0h36v36h-36z"/></clipPath></defs></svg>