<svg width="37" height="36" viewBox="0 0 37 36" fill="none" xmlns="http://www.w3.org/2000/svg">
<g clip-path="url(#clip0_3910_13631)">
<path fill-rule="evenodd" clip-rule="evenodd" d="M12.2133 0.390923C12.4598 0.261258 12.7579 0.278868 12.9874 0.436658L15.8964 2.43661L18.2727 0.476159C18.5498 0.247533 18.9502 0.247533 19.2273 0.476159L21.6036 2.43661L24.5126 0.436658C24.7421 0.278868 25.0402 0.261258 25.2867 0.390923C25.5332 0.520587 25.6875 0.77617 25.6875 1.05469V2.44301C25.6875 4.35364 25.039 6.19746 23.864 7.68013C24.6272 8.224 25.125 9.11637 25.125 10.125C25.125 11.2735 24.4796 12.2712 23.5318 12.7754L29.1396 18.7337C30.8966 20.6006 31.875 23.0675 31.875 25.6312C31.875 31.1895 27.3692 35.6953 21.8109 35.6953H15.689C10.1308 35.6953 5.625 31.1895 5.625 25.6312C5.625 23.0675 6.6034 20.6005 8.36037 18.7337L13.9682 12.7754C13.0204 12.2712 12.375 11.2735 12.375 10.125C12.375 9.11637 12.8728 8.224 13.636 7.68013C12.461 6.19746 11.8125 4.35364 11.8125 2.44301V1.05469C11.8125 0.77617 11.9668 0.520587 12.2133 0.390923ZM15.375 11.625H22.125C22.9534 11.625 23.625 10.9534 23.625 10.125C23.625 9.29728 22.9546 8.62613 22.1271 8.625H15.3729C14.5454 8.62613 13.875 9.29728 13.875 10.125C13.875 10.9534 14.5466 11.625 15.375 11.625ZM15.6991 13.125L9.45269 19.7617C7.95758 21.3503 7.125 23.4497 7.125 25.6312C7.125 30.3611 10.9592 34.1953 15.689 34.1953H21.8109C26.5408 34.1953 30.375 30.3611 30.375 25.6312C30.375 23.4497 29.5424 21.3504 28.0473 19.7617L21.8009 13.125H15.6991ZM22.3674 7.125H15.1326C13.9728 5.85879 13.3219 4.20392 13.3126 2.48053L15.5126 3.99303C15.7884 4.18268 16.1566 4.16656 16.4148 3.95353L18.75 2.02698L21.0852 3.95353C21.3434 4.16656 21.7116 4.18268 21.9874 3.99303L24.1874 2.48053C24.1781 4.20392 23.5272 5.85879 22.3674 7.125Z" fill="#101828"/>
<path d="M32.9615 0.887845C32.8594 0.581577 32.5728 0.374996 32.25 0.375C31.9272 0.375004 31.6406 0.581591 31.5385 0.887861L31.2228 1.83511C30.7692 3.19576 29.785 4.31617 28.4945 4.94188L28.4768 4.95045C28.2188 5.07587 28.0549 5.33751 28.0547 5.62441C28.0545 5.91131 28.2179 6.17321 28.4758 6.29903L28.4934 6.30761L28.4951 6.30845C29.7857 6.93416 30.7691 8.0542 31.2227 9.41494L31.5385 10.3622C31.6406 10.6684 31.9272 10.875 32.25 10.875C32.5728 10.875 32.8594 10.6684 32.9615 10.3622L33.291 9.37363C33.7374 8.03433 34.6977 6.92722 35.9604 6.29581C36.2145 6.16877 36.375 5.90907 36.375 5.625C36.375 5.34093 36.2145 5.08123 35.9604 4.95419C34.6977 4.32278 33.7374 3.21566 33.291 1.87635L32.9615 0.887845Z" fill="url(#paint0_linear_3910_13631)"/>
<path d="M5.96152 7.63784C5.85944 7.33158 5.57282 7.125 5.24999 7.125C4.92716 7.125 4.64055 7.33159 4.53848 7.63786L4.22277 8.58511C3.76917 9.94576 2.78504 11.0662 1.49449 11.6919L1.47684 11.7005C1.2188 11.8259 1.05491 12.0875 1.05469 12.3744C1.05446 12.6613 1.21793 12.9232 1.47578 13.049L1.49335 13.0576L1.49508 13.0584C2.7857 13.6842 3.76912 14.8042 4.22272 16.1649L4.53849 17.1122C4.64059 17.4184 4.92719 17.625 5.25002 17.625C5.57284 17.625 5.85944 17.4184 5.96152 17.1122L6.291 16.1236C6.73744 14.7843 7.69768 13.6772 8.96042 13.0458C9.2145 12.9188 9.375 12.6591 9.375 12.375C9.375 12.0909 9.2145 11.8312 8.96042 11.7042C7.69768 11.0728 6.73744 9.96566 6.291 8.62635L5.96152 7.63784Z" fill="url(#paint1_linear_3910_13631)"/>
<path fill-rule="evenodd" clip-rule="evenodd" d="M17.9348 19.4146C17.4742 19.4991 17.0247 19.6735 16.638 19.9567C15.9997 20.4243 15.5828 21.1556 15.5743 22.1007C15.5664 22.9954 15.9347 23.6492 16.4904 24.1138C17.0021 24.5416 17.6586 24.7962 18.2156 24.9929C18.2394 25.0013 18.2633 25.0084 18.2873 25.0143C18.3521 25.0368 18.4157 25.0587 18.478 25.0802L18.479 25.0806L18.4798 25.0808C19.0331 25.2714 19.4907 25.4291 19.8571 25.663C20.0641 25.7952 20.2002 25.929 20.2863 26.0697C20.3683 26.2039 20.429 26.3832 20.4266 26.6508C20.4224 27.1188 20.236 27.408 19.9765 27.598C19.692 27.8064 19.2712 27.9256 18.8032 27.9105C18.3362 27.8955 17.8983 27.7487 17.5959 27.52C17.3098 27.3035 17.1508 27.0242 17.1508 26.6664C17.1508 26.2521 16.815 25.9164 16.4008 25.9164C15.9865 25.9164 15.6508 26.2521 15.6508 26.6664C15.6508 27.5596 16.0855 28.2581 16.6909 28.7162C17.0937 29.0209 17.5722 29.2223 18.0659 29.3266V30.3661C18.0659 30.7803 18.4017 31.1161 18.8159 31.1161C19.2301 31.1161 19.5659 30.7803 19.5659 30.3661V29.3503C20.0265 29.2658 20.4761 29.0914 20.8628 28.8082C21.5011 28.3406 21.918 27.6094 21.9265 26.6642C21.9312 26.141 21.807 25.6814 21.566 25.2872C21.3289 24.8995 21.0036 24.6154 20.6643 24.3988C20.1314 24.0585 19.4599 23.8292 18.901 23.6384C18.788 23.5998 18.6795 23.5628 18.5778 23.5267C18.5611 23.5208 18.5444 23.5156 18.5277 23.5109C18.0602 23.3383 17.7025 23.1721 17.4525 22.963C17.2142 22.7637 17.0706 22.5257 17.0743 22.1141C17.0785 21.6461 17.2649 21.3569 17.5244 21.1669C17.8089 20.9585 18.2296 20.8393 18.6976 20.8544C19.1646 20.8694 19.6026 21.0162 19.9049 21.2449C20.191 21.4615 20.3501 21.7407 20.3501 22.0986C20.3501 22.5128 20.6859 22.8486 21.1001 22.8486C21.5143 22.8486 21.8501 22.5128 21.8501 22.0986C21.8501 21.2053 21.4153 20.5068 20.81 20.0488C20.4071 19.744 19.9285 19.5426 19.4348 19.4383V18.4309C19.4348 18.0167 19.099 17.6809 18.6848 17.6809C18.2706 17.6809 17.9348 18.0167 17.9348 18.4309V19.4146Z" fill="#101828"/>
</g>
<defs>
<linearGradient id="paint0_linear_3910_13631" x1="32.2148" y1="0.375" x2="32.2148" y2="10.875" gradientUnits="userSpaceOnUse">
<stop stop-color="#16B364"/>
<stop offset="1" stop-color="#CDE762"/>
</linearGradient>
<linearGradient id="paint1_linear_3910_13631" x1="5.21484" y1="7.125" x2="5.21484" y2="17.625" gradientUnits="userSpaceOnUse">
<stop stop-color="#16B364"/>
<stop offset="1" stop-color="#CDE762"/>
</linearGradient>
<clipPath id="clip0_3910_13631">
<rect width="36" height="36" fill="white" transform="translate(0.75)"/>
</clipPath>
</defs>
</svg>
