<svg width="37" height="36" viewBox="0 0 37 36" fill="none" xmlns="http://www.w3.org/2000/svg">
  <g clip-path="url(#a)" stroke-width="2" stroke-miterlimit="10" stroke-linecap="round" stroke-linejoin="round">
    <path d="M21.75 12.375H15a2.25 2.25 0 0 1 0-4.5h6.75a2.25 2.25 0 0 1 0 4.5Zm2.813-11.32v1.388c0 2.037-.81 3.991-2.25 5.432h-7.875a7.682 7.682 0 0 1-2.25-5.432V1.055l3.374 2.32 2.813-2.32 2.813 2.32 3.375-2.32Zm6.187 24.576a9.314 9.314 0 0 1-9.314 9.314h-6.122a9.314 9.314 0 0 1-6.782-15.697L15 12.375h6.75l6.468 6.873a9.315 9.315 0 0 1 2.532 6.383Z" stroke="#101828"/>
    <path d="m35.32 5.625-.037.018a6.021 6.021 0 0 0-3.085 3.514l-.323.968-.336-1.01a6.02 6.02 0 0 0-3.02-3.48l-.019-.01a6.02 6.02 0 0 0 3.03-3.516l.345-1.054.33 1.013a6.02 6.02 0 0 0 3.098 3.548l.017.009Zm-27.07 6.75a6.073 6.073 0 0 0-3.046 3.511l-.329.989-.316-.947a6.073 6.073 0 0 0-3.112-3.544l-.017-.009.017-.009A6.073 6.073 0 0 0 4.56 8.822l.316-.947.33.989a6.073 6.073 0 0 0 3.045 3.511Z" fill="#009640" stroke="#009640"/>
    <path d="M19.903 21.463s-.843-.778-2.143-.386c-1.193.36-1.49 1.992-.679 2.628.466.365 1.167.665 2.11 1 2.114.746 1.333 3.726-.817 3.74-.839.006-1.23-.047-1.968-.53m1.969 1.335v-.804m0-7.476v-.72" stroke="#101828"/>
  </g>
  <defs>
    <clipPath id="a">
      <path fill="#fff" d="M.375 0h36v36h-36z"/>
    </clipPath>
  </defs>
</svg>
