<svg width="24" height="24" viewBox="0 0 24 24" fill="none" xmlns="http://www.w3.org/2000/svg">
<path d="M7.875 5.70007L2.275 11.3001C2.175 11.4001 2.10433 11.5084 2.063 11.6251C2.021 11.7417 2 11.8667 2 12.0001C2 12.1334 2.021 12.2584 2.063 12.3751C2.10433 12.4917 2.175 12.6001 2.275 12.7001L7.875 18.3001C8.05833 18.4834 8.28767 18.5751 8.563 18.5751C8.83767 18.5751 9.075 18.4834 9.275 18.3001C9.475 18.1001 9.575 17.8627 9.575 17.5881C9.575 17.3127 9.475 17.0751 9.275 16.8751L5.4 13.0001L20.575 13.0001C20.8583 13.0001 21.0957 12.9044 21.287 12.7131C21.479 12.5211 21.575 12.2834 21.575 12.0001C21.575 11.7167 21.479 11.4794 21.287 11.2881C21.0957 11.0961 20.8583 11.0001 20.575 11.0001L5.4 11.0001L9.275 7.10007C9.45833 6.91674 9.55433 6.68774 9.563 6.41307C9.571 6.13774 9.475 5.90007 9.275 5.70007C9.09167 5.51674 8.85833 5.42507 8.575 5.42507C8.29167 5.42507 8.05833 5.51674 7.875 5.70007Z" fill="#101828"/>
</svg>
