<svg width="24" height="24" viewBox="0 0 24 24" fill="none" xmlns="http://www.w3.org/2000/svg">
<mask id="mask0_2_23120" style="mask-type:alpha" maskUnits="userSpaceOnUse" x="0" y="0" width="24" height="24">
<rect width="24" height="24" fill="#D9D9D9"/>
</mask>
<g mask="url(#mask0_2_23120)">
<path d="M13 17.075C13.1333 17.075 13.2583 17.0542 13.375 17.0125C13.4917 16.9708 13.6 16.9 13.7 16.8L16.5 14C16.6833 13.8167 16.8292 13.6 16.9375 13.35C17.0458 13.1 17.1 12.8333 17.1 12.55C17.1 11.9833 16.9 11.5 16.5 11.1C16.1 10.7 15.6167 10.5 15.05 10.5C14.7333 10.5 14.4208 10.5917 14.1125 10.775C13.8042 10.9583 13.4333 11.2667 13 11.7C12.5 11.2333 12.1083 10.9167 11.825 10.75C11.5417 10.5833 11.25 10.5 10.95 10.5C10.3833 10.5 9.9 10.7 9.5 11.1C9.1 11.5 8.9 11.9833 8.9 12.55C8.9 12.8333 8.95417 13.1 9.0625 13.35C9.17083 13.6 9.31667 13.8167 9.5 14L12.3 16.8C12.4 16.9 12.5083 16.9708 12.625 17.0125C12.7417 17.0542 12.8667 17.075 13 17.075ZM12.85 22C12.5667 22 12.3 21.9458 12.05 21.8375C11.8 21.7292 11.5833 21.5833 11.4 21.4L2.6 12.6C2.41667 12.4167 2.27083 12.2 2.1625 11.95C2.05417 11.7 2 11.4333 2 11.15V4C2 3.45 2.19583 2.97917 2.5875 2.5875C2.97917 2.19583 3.45 2 4 2H11.15C11.4333 2 11.7 2.05417 11.95 2.1625C12.2 2.27083 12.4167 2.41667 12.6 2.6L21.4 11.425C21.7833 11.8083 21.975 12.2792 21.975 12.8375C21.975 13.3958 21.7833 13.8667 21.4 14.25L14.25 21.4C14.0667 21.5833 13.8542 21.7292 13.6125 21.8375C13.3708 21.9458 13.1167 22 12.85 22ZM6.5 8C6.91667 8 7.27083 7.85417 7.5625 7.5625C7.85417 7.27083 8 6.91667 8 6.5C8 6.08333 7.85417 5.72917 7.5625 5.4375C7.27083 5.14583 6.91667 5 6.5 5C6.08333 5 5.72917 5.14583 5.4375 5.4375C5.14583 5.72917 5 6.08333 5 6.5C5 6.91667 5.14583 7.27083 5.4375 7.5625C5.72917 7.85417 6.08333 8 6.5 8Z" fill="white"/>
</g>
</svg>
