<svg width="24" height="24" viewBox="0 0 24 24" fill="none" xmlns="http://www.w3.org/2000/svg">
<path d="M14.35 20.775L9 18.9L4.35 20.7C4.01667 20.8333 3.70833 20.7957 3.425 20.587C3.14167 20.379 3 20.1 3 19.75V5.75001C3 5.53335 3.06267 5.34168 3.188 5.17501C3.31267 5.00835 3.48333 4.88335 3.7 4.80001L8.35 3.22501C8.56667 3.15835 8.78333 3.12068 9 3.11201C9.21667 3.10401 9.43333 3.14168 9.65 3.22501L15 5.10001L19.65 3.30001C19.9833 3.16668 20.2917 3.20401 20.575 3.41201C20.8583 3.62068 21 3.90001 21 4.25001V18.25C21 18.4667 20.9373 18.6583 20.812 18.825C20.6873 18.9917 20.5167 19.1167 20.3 19.2L15.65 20.775C15.4333 20.8417 15.2167 20.879 15 20.887C14.7833 20.8957 14.5667 20.8583 14.35 20.775ZM14 18.55V6.85001L10 5.45001V17.15L14 18.55ZM16 18.55L19 17.55V5.70001L16 6.85001V18.55ZM5 18.3L8 17.15V5.45001L5 6.45001V18.3Z" fill="#101828"/>
</svg>
