<svg width="24" height="24" viewBox="0 0 24 24" fill="none" xmlns="http://www.w3.org/2000/svg">
<path d="M13.0001 11H21.9001C21.6334 8.61664 20.6794 6.59998 19.0381 4.94998C17.3961 3.29998 15.3834 2.34998 13.0001 2.09998V11ZM11.0251 21.875V2.09998C8.49176 2.34998 6.3711 3.41664 4.6631 5.29998C2.95443 7.18331 2.1001 9.41664 2.1001 12C2.1001 14.5666 2.95443 16.7916 4.6631 18.675C6.3711 20.5583 8.49176 21.625 11.0251 21.875ZM13.0001 21.875C15.3834 21.6416 17.4041 20.696 19.0621 19.038C20.7208 17.3793 21.6668 15.3583 21.9001 12.975H13.0001V21.875Z" fill="#101828"/>
</svg>
