<svg width="24" height="24" viewBox="0 0 24 24" fill="none" xmlns="http://www.w3.org/2000/svg">
<path d="M15 20C12.7667 20 10.875 19.225 9.325 17.675C7.775 16.125 7 14.2333 7 12C7 9.78333 7.775 7.89567 9.325 6.337C10.875 4.779 12.7667 4 15 4C17.2167 4 19.1043 4.779 20.663 6.337C22.221 7.89567 23 9.78333 23 12C23 14.2333 22.221 16.125 20.663 17.675C19.1043 19.225 17.2167 20 15 20ZM15 18C16.6667 18 18.0833 17.4167 19.25 16.25C20.4167 15.0833 21 13.6667 21 12C21 10.3333 20.4167 8.91667 19.25 7.75C18.0833 6.58333 16.6667 6 15 6C13.3333 6 11.9167 6.58333 10.75 7.75C9.58333 8.91667 9 10.3333 9 12C9 13.6667 9.58333 15.0833 10.75 16.25C11.9167 17.4167 13.3333 18 15 18ZM16 11.6V9C16 8.71667 15.9043 8.479 15.713 8.287C15.521 8.09567 15.2833 8 15 8C14.7167 8 14.4793 8.09567 14.288 8.287C14.096 8.479 14 8.71667 14 9V12.025C14 12.1583 14.0293 12.2873 14.088 12.412C14.146 12.5373 14.2167 12.6417 14.3 12.725L16.575 15C16.775 15.2 17.0127 15.3 17.288 15.3C17.5627 15.3 17.8 15.2 18 15C18.2 14.8 18.3 14.5623 18.3 14.287C18.3 14.0123 18.2 13.775 18 13.575L16 11.6ZM3 9C2.71667 9 2.47933 8.904 2.288 8.712C2.096 8.52067 2 8.28333 2 8C2 7.71667 2.096 7.479 2.288 7.287C2.47933 7.09567 2.71667 7 3 7H5C5.28333 7 5.521 7.09567 5.713 7.287C5.90433 7.479 6 7.71667 6 8C6 8.28333 5.90433 8.52067 5.713 8.712C5.521 8.904 5.28333 9 5 9H3ZM2 13C1.71667 13 1.47933 12.904 1.288 12.712C1.096 12.5207 1 12.2833 1 12C1 11.7167 1.096 11.479 1.288 11.287C1.47933 11.0957 1.71667 11 2 11H5C5.28333 11 5.521 11.0957 5.713 11.287C5.90433 11.479 6 11.7167 6 12C6 12.2833 5.90433 12.5207 5.713 12.712C5.521 12.904 5.28333 13 5 13H2ZM3 17C2.71667 17 2.47933 16.904 2.288 16.712C2.096 16.5207 2 16.2833 2 16C2 15.7167 2.096 15.479 2.288 15.287C2.47933 15.0957 2.71667 15 3 15H5C5.28333 15 5.521 15.0957 5.713 15.287C5.90433 15.479 6 15.7167 6 16C6 16.2833 5.90433 16.5207 5.713 16.712C5.521 16.904 5.28333 17 5 17H3Z" fill="#101828"/>
</svg>
