<svg width="24" height="24" viewBox="0 0 24 24" fill="none" xmlns="http://www.w3.org/2000/svg">
<path d="M11.9998 18.275L7.84983 20.775C7.66649 20.8916 7.47483 20.9416 7.27483 20.9249C7.07483 20.9083 6.89983 20.8416 6.74983 20.725C6.59983 20.6083 6.48316 20.4626 6.39983 20.288C6.31649 20.1126 6.29983 19.9166 6.34983 19.7L7.44983 14.975L3.77483 11.8C3.60816 11.65 3.50416 11.479 3.46283 11.287C3.42083 11.0956 3.43316 10.9083 3.49983 10.725C3.56649 10.5416 3.66649 10.3916 3.79983 10.275C3.93316 10.1583 4.11649 10.0833 4.34983 10.05L9.19983 9.62495L11.0748 5.17495C11.1582 4.97495 11.2875 4.82495 11.4628 4.72495C11.6375 4.62495 11.8165 4.57495 11.9998 4.57495C12.1832 4.57495 12.3625 4.62495 12.5378 4.72495C12.7125 4.82495 12.8415 4.97495 12.9248 5.17495L14.7998 9.62495L19.6498 10.05C19.8832 10.0833 20.0665 10.1583 20.1998 10.275C20.3332 10.3916 20.4332 10.5416 20.4998 10.725C20.5665 10.9083 20.5792 11.0956 20.5378 11.287C20.4958 11.479 20.3915 11.65 20.2248 11.8L16.5498 14.975L17.6498 19.7C17.6998 19.9166 17.6832 20.1126 17.5998 20.288C17.5165 20.4626 17.3998 20.6083 17.2498 20.725C17.0998 20.8416 16.9248 20.9083 16.7248 20.9249C16.5248 20.9416 16.3332 20.8916 16.1498 20.775L11.9998 18.275Z" fill="#101828"/>
</svg>
