<svg width="24" height="24" viewBox="0 0 24 24" fill="none" xmlns="http://www.w3.org/2000/svg">
<path d="M10 20.9999C9.45 20.9999 8.97933 20.8043 8.588 20.4129C8.196 20.0209 8 19.5499 8 18.9999V8.82495C8 8.55828 8.05433 8.30395 8.163 8.06195C8.271 7.82062 8.41667 7.60828 8.6 7.42495L14.025 2.02495C14.275 1.79162 14.571 1.64995 14.913 1.59995C15.2543 1.54995 15.5833 1.60828 15.9 1.77495C16.2167 1.94162 16.4457 2.17495 16.587 2.47495C16.729 2.77495 16.7583 3.08328 16.675 3.39995L15.55 7.99995H21C21.5333 7.99995 22 8.19995 22.4 8.59995C22.8 8.99995 23 9.46662 23 9.99995V11.9999C23 12.1166 22.9873 12.2416 22.962 12.3749C22.9373 12.5083 22.9 12.6333 22.85 12.7499L19.85 19.7999C19.7 20.1333 19.45 20.4166 19.1 20.6499C18.75 20.8833 18.3833 20.9999 18 20.9999H10ZM4 20.9999C3.45 20.9999 2.97933 20.8043 2.588 20.4129C2.196 20.0209 2 19.5499 2 18.9999V9.99995C2 9.44995 2.196 8.97895 2.588 8.58695C2.97933 8.19562 3.45 7.99995 4 7.99995C4.55 7.99995 5.02067 8.19562 5.412 8.58695C5.804 8.97895 6 9.44995 6 9.99995V18.9999C6 19.5499 5.804 20.0209 5.412 20.4129C5.02067 20.8043 4.55 20.9999 4 20.9999Z" fill="#101828"/>
</svg>
