<svg width="24" height="24" viewBox="0 0 24 24" fill="none" xmlns="http://www.w3.org/2000/svg">
<path d="M3 16C2.46667 16 2 15.8 1.6 15.4C1.2 15 1 14.5333 1 14V12C1 11.8833 1.01267 11.7583 1.038 11.625C1.06267 11.4917 1.1 11.3667 1.15 11.25L4.15 4.2C4.3 3.86667 4.55 3.58333 4.9 3.35C5.25 3.11667 5.61667 3 6 3H14C14.55 3 15.021 3.19567 15.413 3.587C15.8043 3.979 16 4.45 16 5V15.175C16 15.4417 15.946 15.696 15.838 15.938C15.7293 16.1793 15.5833 16.3917 15.4 16.575L9.975 21.975C9.725 22.2083 9.42933 22.35 9.088 22.4C8.746 22.45 8.41667 22.3917 8.1 22.225C7.78333 22.0583 7.554 21.825 7.412 21.525C7.27067 21.225 7.24167 20.9167 7.325 20.6L8.45 16H3ZM20 3C20.55 3 21.021 3.19567 21.413 3.587C21.8043 3.979 22 4.45 22 5V14C22 14.55 21.8043 15.0207 21.413 15.412C21.021 15.804 20.55 16 20 16C19.45 16 18.979 15.804 18.587 15.412C18.1957 15.0207 18 14.55 18 14V5C18 4.45 18.1957 3.979 18.587 3.587C18.979 3.19567 19.45 3 20 3Z" fill="#101828"/>
</svg>
