<svg width="24" height="24" viewBox="0 0 24 24" fill="none" xmlns="http://www.w3.org/2000/svg">
<path d="M6.7002 19.3L3.9502 18.7C3.7002 18.65 3.5002 18.5206 3.3502 18.312C3.2002 18.104 3.14186 17.875 3.1752 17.625L3.4502 14.8L1.5752 12.65C1.40853 12.4666 1.3252 12.25 1.3252 12C1.3252 11.75 1.40853 11.5333 1.5752 11.35L3.4502 9.19996L3.1752 6.37496C3.14186 6.12496 3.2002 5.89596 3.3502 5.68796C3.5002 5.4793 3.7002 5.34996 3.9502 5.29996L6.7002 4.69996L8.1502 2.24996C8.28353 2.0333 8.46686 1.89163 8.7002 1.82496C8.93353 1.7583 9.16686 1.76663 9.4002 1.84996L12.0002 2.94996L14.6002 1.84996C14.8335 1.76663 15.0669 1.7583 15.3002 1.82496C15.5335 1.89163 15.7169 2.0333 15.8502 2.24996L17.3002 4.69996L20.0502 5.29996C20.3002 5.34996 20.5002 5.4793 20.6502 5.68796C20.8002 5.89596 20.8585 6.12496 20.8252 6.37496L20.5502 9.19996L22.4252 11.35C22.5919 11.5333 22.6752 11.75 22.6752 12C22.6752 12.25 22.5919 12.4666 22.4252 12.65L20.5502 14.8L20.8252 17.625C20.8585 17.875 20.8002 18.104 20.6502 18.312C20.5002 18.5206 20.3002 18.65 20.0502 18.7L17.3002 19.3L15.8502 21.75C15.7169 21.9666 15.5335 22.1083 15.3002 22.175C15.0669 22.2416 14.8335 22.2333 14.6002 22.15L12.0002 21.05L9.4002 22.15C9.16686 22.2333 8.93353 22.2416 8.7002 22.175C8.46686 22.1083 8.28353 21.9666 8.1502 21.75L6.7002 19.3ZM10.2502 14.85C10.4335 15.0333 10.6669 15.125 10.9502 15.125C11.2335 15.125 11.4669 15.0333 11.6502 14.85L15.9002 10.6C16.1002 10.4 16.2002 10.1623 16.2002 9.88696C16.2002 9.6123 16.1002 9.37496 15.9002 9.17496C15.7002 8.97496 15.4629 8.87496 15.1882 8.87496C14.9129 8.87496 14.6752 8.97496 14.4752 9.17496L10.9502 12.7L9.5002 11.275C9.3002 11.0916 9.06286 11.004 8.7882 11.012C8.51286 11.0206 8.28353 11.1166 8.1002 11.3C7.91686 11.4833 7.8252 11.7166 7.8252 12C7.8252 12.2833 7.91686 12.5166 8.1002 12.7L10.2502 14.85ZM9.4502 19.95L12.0002 18.85L14.6002 19.95L16.0002 17.55L18.7502 16.9L18.5002 14.1L20.3502 12L18.5002 9.84996L18.7502 7.04996L16.0002 6.44996L14.5502 4.04996L12.0002 5.14996L9.4002 4.04996L8.0002 6.44996L5.2502 7.04996L5.5002 9.84996L3.6502 12L5.5002 14.1L5.2502 16.95L8.0002 17.55L9.4502 19.95Z" fill="#101828"/>
</svg>
