<svg width="24" height="24" viewBox="0 0 24 24" fill="none" xmlns="http://www.w3.org/2000/svg">
<mask id="mask0_2_22785" style="mask-type:alpha" maskUnits="userSpaceOnUse" x="0" y="0" width="24" height="24">
<rect width="24" height="24" fill="#D9D9D9"/>
</mask>
<g mask="url(#mask0_2_22785)">
<path d="M6.7002 19.3L3.9502 18.7C3.7002 18.65 3.5002 18.5208 3.3502 18.3125C3.2002 18.1041 3.14186 17.875 3.1752 17.625L3.4502 14.8L1.5752 12.65C1.40853 12.4666 1.3252 12.25 1.3252 12C1.3252 11.75 1.40853 11.5333 1.5752 11.35L3.4502 9.19996L3.1752 6.37496C3.14186 6.12496 3.2002 5.8958 3.3502 5.68746C3.5002 5.47913 3.7002 5.34996 3.9502 5.29996L6.7002 4.69996L8.1502 2.24996C8.28353 2.0333 8.46686 1.89163 8.7002 1.82496C8.93353 1.7583 9.16686 1.76663 9.4002 1.84996L12.0002 2.94996L14.6002 1.84996C14.8335 1.76663 15.0669 1.7583 15.3002 1.82496C15.5335 1.89163 15.7169 2.0333 15.8502 2.24996L17.3002 4.69996L20.0502 5.29996C20.3002 5.34996 20.5002 5.47913 20.6502 5.68746C20.8002 5.8958 20.8585 6.12496 20.8252 6.37496L20.5502 9.19996L22.4252 11.35C22.5919 11.5333 22.6752 11.75 22.6752 12C22.6752 12.25 22.5919 12.4666 22.4252 12.65L20.5502 14.8L20.8252 17.625C20.8585 17.875 20.8002 18.1041 20.6502 18.3125C20.5002 18.5208 20.3002 18.65 20.0502 18.7L17.3002 19.3L15.8502 21.75C15.7169 21.9666 15.5335 22.1083 15.3002 22.175C15.0669 22.2416 14.8335 22.2333 14.6002 22.15L12.0002 21.05L9.4002 22.15C9.16686 22.2333 8.93353 22.2416 8.7002 22.175C8.46686 22.1083 8.28353 21.9666 8.1502 21.75L6.7002 19.3ZM10.2502 14.85C10.4335 15.0333 10.6669 15.125 10.9502 15.125C11.2335 15.125 11.4669 15.0333 11.6502 14.85L15.9002 10.6C16.1002 10.4 16.2002 10.1625 16.2002 9.88746C16.2002 9.61246 16.1002 9.37496 15.9002 9.17496C15.7002 8.97496 15.4627 8.87496 15.1877 8.87496C14.9127 8.87496 14.6752 8.97496 14.4752 9.17496L10.9502 12.7L9.5002 11.275C9.3002 11.0916 9.0627 11.0041 8.7877 11.0125C8.5127 11.0208 8.28353 11.1166 8.1002 11.3C7.91686 11.4833 7.8252 11.7166 7.8252 12C7.8252 12.2833 7.91686 12.5166 8.1002 12.7L10.2502 14.85Z" fill="white"/>
</g>
</svg>
