<svg width="24" height="24" viewBox="0 0 24 24" fill="none" xmlns="http://www.w3.org/2000/svg">
<mask id="mask0_2_23018" style="mask-type:alpha" maskUnits="userSpaceOnUse" x="0" y="0" width="24" height="24">
<rect width="24" height="24" fill="#D9D9D9"/>
</mask>
<g mask="url(#mask0_2_23018)">
<path d="M17.8 22.9501C17.5833 22.9834 17.3958 22.9251 17.2375 22.7751C17.0792 22.6251 17 22.4334 17 22.2001C17 22.0168 17.0667 21.8543 17.2 21.7126C17.3333 21.5709 17.4917 21.4834 17.675 21.4501C18.6583 21.3001 19.4958 20.8793 20.1875 20.1876C20.8792 19.4959 21.3 18.6584 21.45 17.6751C21.4833 17.4918 21.5667 17.3334 21.7 17.2001C21.8333 17.0668 21.9917 17.0001 22.175 17.0001C22.4083 17.0001 22.6042 17.0793 22.7625 17.2376C22.9208 17.3959 22.9833 17.5834 22.95 17.8001C22.7667 19.1334 22.1958 20.2793 21.2375 21.2376C20.2792 22.1959 19.1333 22.7668 17.8 22.9501ZM1.8 7.00011C1.56667 7.00011 1.375 6.92094 1.225 6.76261C1.075 6.60427 1.01667 6.41677 1.05 6.20011C1.23333 4.86677 1.80417 3.72094 2.7625 2.76261C3.72083 1.80427 4.86667 1.23344 6.2 1.05011C6.41667 1.01677 6.60417 1.07511 6.7625 1.22511C6.92083 1.37511 7 1.56677 7 1.80011C7 1.98344 6.93333 2.14594 6.8 2.28761C6.66667 2.42927 6.50833 2.51677 6.325 2.55011C5.35833 2.70011 4.525 3.12511 3.825 3.82511C3.125 4.52511 2.7 5.35844 2.55 6.32511C2.51667 6.50844 2.42917 6.66677 2.2875 6.80011C2.14583 6.93344 1.98333 7.00011 1.8 7.00011ZM6.05 9.82511C5.96667 9.90844 5.925 10.0084 5.925 10.1251C5.925 10.2418 5.96667 10.3501 6.05 10.4501C6.53333 10.9668 6.82917 11.5918 6.9375 12.3251C7.04583 13.0584 6.85833 13.7501 6.375 14.4001C6.29167 14.5168 6.25417 14.6376 6.2625 14.7626C6.27083 14.8876 6.31667 14.9918 6.4 15.0751C6.51667 15.1918 6.64583 15.2501 6.7875 15.2501C6.92917 15.2501 7.04167 15.1918 7.125 15.0751C7.65833 14.3918 7.93333 13.5793 7.95 12.6376C7.96667 11.6959 7.68333 10.8751 7.1 10.1751L14.725 2.55011C14.975 2.30011 15.2708 2.17511 15.6125 2.17511C15.9542 2.17511 16.25 2.30011 16.5 2.55011C16.7333 2.78344 16.8583 3.07094 16.875 3.41261C16.8917 3.75427 16.7667 4.05844 16.5 4.32511L11.375 9.45011C11.275 9.55011 11.225 9.66677 11.225 9.80011C11.225 9.93344 11.2667 10.0501 11.35 10.1501C11.45 10.2334 11.5667 10.2793 11.7 10.2876C11.8333 10.2959 11.95 10.2501 12.05 10.1501L18.6 3.60011C18.8333 3.36677 19.1292 3.25011 19.4875 3.25011C19.8458 3.25011 20.1417 3.36677 20.375 3.60011C20.6083 3.83344 20.725 4.12927 20.725 4.48761C20.725 4.84594 20.6083 5.14177 20.375 5.37511L13.85 11.9001C13.75 12.0001 13.7 12.1209 13.7 12.2626C13.7 12.4043 13.75 12.5251 13.85 12.6251C13.9333 12.7251 14.0458 12.7751 14.1875 12.7751C14.3292 12.7751 14.45 12.7251 14.55 12.6251L20.025 7.15011C20.275 6.90011 20.5708 6.77511 20.9125 6.77511C21.2542 6.77511 21.55 6.90011 21.8 7.15011C22.0333 7.38344 22.15 7.67927 22.15 8.03761C22.15 8.39594 22.0333 8.69177 21.8 8.92511L15.6 15.1001C15.5 15.2001 15.45 15.3168 15.45 15.4501C15.45 15.5834 15.5 15.7001 15.6 15.8001C15.7 15.9001 15.8167 15.9543 15.95 15.9626C16.0833 15.9709 16.2 15.9251 16.3 15.8251L20.375 11.7501C20.6417 11.4834 20.9458 11.3584 21.2875 11.3751C21.6292 11.3918 21.9167 11.5168 22.15 11.7501C22.3833 11.9834 22.5083 12.2709 22.525 12.6126C22.5417 12.9543 22.4167 13.2584 22.15 13.5251L15.075 20.6001C14.275 21.4001 13.3667 22.0001 12.35 22.4001C11.3333 22.8001 10.2958 23.0001 9.2375 23.0001C8.17917 23.0001 7.14167 22.8001 6.125 22.4001C5.10833 22.0001 4.2 21.4001 3.4 20.6001C2.6 19.8001 2 18.8918 1.6 17.8751C1.2 16.8584 1 15.8209 1 14.7626C1 13.7043 1.2 12.6668 1.6 11.6501C2 10.6334 2.6 9.72511 3.4 8.92511L8 4.32511C8.23333 4.09177 8.52917 3.96677 8.8875 3.95011C9.24583 3.93344 9.55 4.05011 9.8 4.30011C10.0333 4.53344 10.15 4.82927 10.15 5.18761C10.15 5.54594 10.0333 5.84177 9.8 6.07511L6.05 9.82511Z" fill="red"/>
</g>
</svg>
